{
.appVersion = "3227";
.formatVersion = 3;
customParameters = (
{
name = fsType;
value = (
);
},
{
name = "Use Typo Metrics";
value = 1;
}
);
date = "2011-10-09 19:49:26 +0000";
familyName = Sancreek;
featurePrefixes = (
{
automatic = 1;
code = "languagesystem DFLT dflt;

languagesystem latn dflt;
languagesystem latn AZE;
languagesystem latn CRT;
languagesystem latn KAZ;
languagesystem latn TAT;
languagesystem latn TRK;
languagesystem latn ROM;
languagesystem latn MOL;
languagesystem latn CAT;
";
name = Languagesystems;
}
);
features = (
{
automatic = 1;
code = "feature locl;
feature sups;
feature frac;
feature ordn;
feature case;
";
tag = aalt;
},
{
automatic = 1;
code = "lookup ccmp_Other_1 {
	@CombiningTopAccents = [acutecomb brevecomb breveinvertedcomb caroncomb circumflexcomb commaturnedabovecomb dblgravecomb dieresiscomb dotaccentcomb gravecomb hungarumlautcomb macroncomb ringcomb tildecomb];
	lookupflag UseMarkFilteringSet @CombiningTopAccents;
	sub i' @CombiningTopAccents by idotless;
	sub j' @CombiningTopAccents by jdotless;
} ccmp_Other_1;

lookup ccmp_latn_1 {
	lookupflag 0;
	sub fi by f i;
	sub fl by f l;
	sub Ldot by L periodcentered.loclCAT.case;
	sub ldot by l periodcentered.loclCAT;
	sub dzcaron by d zcaron;
	sub Dzcaron by D zcaron;
	sub DZcaron by D Zcaron;
	sub Dz by D z;
	sub DZ by D Z;
} ccmp_latn_1;

script latn;
lookup ccmp_latn_1;
";
tag = ccmp;
},
{
automatic = 1;
code = "script latn;
language AZE;
lookup locl_latn_0 {
	sub i by idotaccent;
} locl_latn_0;
language CRT;
lookup locl_latn_0;
language KAZ;
lookup locl_latn_0;
language TAT;
lookup locl_latn_0;
language TRK;
lookup locl_latn_0;

script latn;
language ROM;
lookup locl_latn_1 {
	sub Scedilla by Scommaaccent;
	sub scedilla by scommaaccent;
	sub Tcedilla by Tcommaaccent;
	sub tcedilla by tcommaaccent;
} locl_latn_1;
language MOL;
lookup locl_latn_1;

script latn;
language CAT;
lookup locl_latn_2 {
	sub l periodcentered' l by periodcentered.loclCAT;

glyphs = (
{
glyphname = A;
kernLeft = A;
kernRight = A;
lastChange = "2023-11-17 15:31:30 +0000";
layers = (
{
anchors = (
{
name = bottom;
pos = (631,0);
},
{
name = ogonek;
pos = (1135,10);
},
{
name = top;
pos = (631,1562);
}
);
background = {
shapes = (
{
closed = 1;
nodes = (
(1280,-50,o),
(1280,5,qs),
(1280,9,l),
(1186,88,o),
(1047,423,o),
(1047,592,qs),
(1047,682,o),
(1073,712,qs),
(1083,723,o),
(1099,744,o),
(1099,762,o),
(1074,781,o),
(1032,820,o),
(983,888,o),
(928,1035,o),
(892,1203,o),
(892,1418,o),
(921,1502,q),
(913,1532,o),
(877,1562,o),
(809,1562,o),
(774,1550,qs),
(689,1518,o),
(660,1447,q),
(644,1471,o),
(629,1488,qs),
(561,1562,o),
(503,1562,qs),
(390,1562,o),
(390,1506,qs),
(390,1502,l),
(443,1419,o),
(443,1255,o),
(404,1117,qs),
(288,707,l),
(196,720,o),
(134,768,q),
(124,766,o),
(116,756,qs),
(113,751,o),
(107,730,o),
(107,687,o),
(141,654,qs),
(159,635,o),
(177,629,q),
(107,593,o),
(107,546,qs),
(107,525,o),
(124,495,o),
(134,495,q),
(182,532,o),
(243,547,q),
(191,364,ls),
(151,221,o),
(65,74,o),
(-17,9,q),
(-17,2,ls),
(-17,-50,o),
(53,-50,qs),
(96,-50,o),
(214,14,o),
(255,55,q),
(266,19,o),
(296,-13,qs),
(309,-28,o),
(356,-50,o),
(419,-50,o),
(441,-30,qs),
(449,-22,o),
(462,-1,o),
(464,7,o),
(465,9,q),
(392,91,o),
(392,220,qs),
(392,305,o),
(412,393,qs),
(418,423,o),
(448,539,o),
(454,564,q),
(683,565,l),
(690,565,l),
(704,511,o),
(737,397,o),
(764,303,o),
(764,202,qs),
(764,85,o),
(701,9,q),
(710,-12,o),
(742,-36,qs),
(763,-50,o),
(820,-50,qs),
(928,-50,o),
(981,55,q),
(1081,-50,o)
);
},
{
closed = 1;
nodes = (
(537,698,o),
(486,698,q),
(530,884,o),
(572,1054,q),
(577,1026,o),
(658,698,q),
(596,698,ls)
);
}
);
};
layerId = m01;
shapes = (
{
closed = 1;
nodes = (
(110,-50,o),
(200,0,o),
(255,55,c),
(262,31,o),
(276,8,o),
(296,-13,cs),
(330,-52,o),
(403,-64,o),
(441,-30,cs),
(457,-14,o),
(457,-6,o),
(465,9,c),
(416,64,o),
(392,134,o),
(392,220,cs),
(392,277,o),
(399,334,o),
(412,393,cs),
(416,413,o),
(423,442,o),
(433,481,cs),
(454,564,l),
(690,565,l),
(708,497,o),
(729,426,o),
(751,350,cs),
(760,319,o),
(764,269,o),
(764,202,cs),
(764,124,o),
(743,60,o),
(701,9,c),
(707,-5,o),
(721,-20,o),
(742,-36,cs),
(756,-45,o),
(782,-50,o),
(820,-50,cs),
(892,-50,o),
(946,-15,o),
(981,55,c),
(1048,-15,o),
(1114,-50,o),
(1181,-50,cs),
(1247,-50,o),
(1280,-32,o),
(1280,5,cs),
(1280,9,l),
(1155,114,o),
(1047,367,o),
(1047,592,cs),
(1047,652,o),
(1056,692,o),
(1073,712,cs),
(1086,727,o),
(1099,741,o),
(1099,753,cs),
(1099,766,o),
(1078,778,o),
(1053,801,cs),
(1039,814,o),
(1024,831,o),
(1008,854,cs),
(975,899,o),
(934,1007,o),
(910,1119,cs),
(898,1175,o),
(892,1239,o),
(892,1311,cs),
(892,1382,o),
(902,1446,o),
(921,1502,c),
(906,1558,o),
(860,1579,o),
(774,1550,cs),
(717,1529,o),
(679,1494,o),
(660,1447,c),
(649,1463,o),
(639,1477,o),
(629,1488,cs),
(584,1537,o),
(542,1562,o),
(503,1562,cs),
(428,1562,o),
(390,1543,o),
(390,1506,cs),
(390,1502,l),
(425,1447,o),
(443,1392,o),
(443,1337,cs),
(443,1282,o),
(430,1209,o),
(404,1117,cs),
(288,707,l),
(227,716,o),
(175,736,o),
(134,768,c),
(127,767,o),
(121,763,o),
(116,756,cs),
(111,748,o),
(107,733,o),
(107,709,cs),
(107,694,o),
(118,676,o),
(141,654,cs),
(153,641,o),
(165,633,o),
(177,629,c),
(130,605,o),
(107,577,o),
(107,546,cs),
(107,518,o),
(121,495,o),
(134,495,c),
(166,520,o),
(202,537,o),
(243,547,c),
(191,364,ls),
(138,173,o),
(92,96,o),
(-17,9,c),
(-17,2,ls),
(-17,-33,o),
(6,-50,o),
(53,-50,cs)
);
},
{
closed = 1;
nodes = (
(572,1054,l),
(575,1035,o),
(604,917,o),
(658,698,c),
(596,698,l),
(486,698,l)
);
}
);
width = 1261;
}
);
note = A;
unicode = 65;
},
{
glyphname = Aacute;
kernLeft = A;
kernRight = A;
lastChange = "2023-11-17 14:42:02 +0000";
layers = (
{
background = {
shapes = (
{
closed = 1;
nodes = (
(997,1937,o),
(1015,1994,q),
(989,2036,o),
(913,2036,qs),
(875,2036,o),
(823,2011,qs),
(807,2003,o),
(741,1965,o),
(732,1960,q),
(562,1688,l),
(687,1688,l),
(932,1886,ls)
);
},
{
closed = 1;
nodes = (
(1280,-50,o),
(1280,5,qs),
(1280,9,l),
(1186,88,o),
(1047,423,o),
(1047,592,qs),
(1047,682,o),
(1073,712,qs),
(1083,723,o),
(1099,744,o),
(1099,762,o),
(1074,781,o),
(1032,820,o),
(983,888,o),
(928,1035,o),
(892,1203,o),
(892,1418,o),
(921,1502,q),
(913,1532,o),
(877,1562,o),
(809,1562,o),
(774,1550,qs),
(689,1518,o),
(660,1447,q),
(644,1471,o),
(629,1488,qs),
(561,1562,o),
(503,1562,qs),
(390,1562,o),
(390,1506,qs),
(390,1502,l),
(443,1419,o),
(443,1255,o),
(404,1117,qs),
(288,707,l),
(196,720,o),
(134,768,q),
(124,766,o),
(116,756,qs),
(113,751,o),
(107,730,o),
(107,687,o),
(141,654,qs),
(159,635,o),
(177,629,q),
(107,593,o),
(107,546,qs),
(107,525,o),
(124,495,o),
(134,495,q),
(182,532,o),
(243,547,q),
(191,364,ls),
(151,221,o),
(65,74,o),
(-17,9,q),
(-17,2,ls),
(-17,-50,o),
(53,-50,qs),
(96,-50,o),
(214,14,o),
(255,55,q),
(266,19,o),
(296,-13,qs),
(309,-28,o),
(356,-50,o),
(419,-50,o),
(441,-30,qs),
(449,-22,o),
(462,-1,o),
(464,7,o),
(465,9,q),
(392,91,o),
(392,220,qs),
(392,305,o),
(412,393,qs),
(418,423,o),
(448,539,o),
(454,564,q),
(683,565,l),
(690,565,l),
(704,511,o),
(737,397,o),
(764,303,o),
(764,202,qs),
(764,85,o),
(701,9,q),
(710,-12,o),
(742,-36,qs),
(763,-50,o),
(820,-50,qs),
(928,-50,o),
(981,55,q),
(1081,-50,o)
);
},
{
closed = 1;
nodes = (
(537,698,o),
(486,698,q),
(530,884,o),
(572,1054,q),
(577,1026,o),
(658,698,q),
(596,698,ls)
);
}
);
};
layerId = m01;
shapes = (
{
ref = A;
},
{
pos = (501,273);
ref = acutecomb;
}
);
width = 1261;
}
);
note = Aacute;
unicode = 193;
},
{
glyphname = Abreve;
kernLeft = A;
kernRight = A;
lastChange = "2023-11-17 14:42:02 +0000";
layers = (
{
background = {
shapes = (
{
closed = 1;
nodes = (
(484,1688,o),
(759,1688,o),
(924,1854,o),
(934,1997,q),
(817,1997,l),
(790,1835,o),
(620,1835,qs),
(542,1835,o),
(443,1920,o),
(432,1997,q),
(316,1997,l),
(322,1860,o)
);
},
{
closed = 1;
nodes = (
(1280,-50,o),
(1280,5,qs),
(1280,9,l),
(1186,88,o),
(1047,423,o),
(1047,592,qs),
(1047,682,o),
(1073,712,qs),
(1083,723,o),
(1099,744,o),
(1099,762,o),
(1074,781,o),
(1032,820,o),
(983,888,o),
(928,1035,o),
(892,1203,o),
(892,1418,o),
(921,1502,q),
(913,1532,o),
(877,1562,o),
(809,1562,o),
(774,1550,qs),
(689,1518,o),
(660,1447,q),
(644,1471,o),
(629,1488,qs),
(561,1562,o),
(503,1562,qs),
(390,1562,o),
(390,1506,qs),
(390,1502,l),
(443,1419,o),
(443,1255,o),
(404,1117,qs),
(288,707,l),
(196,720,o),
(134,768,q),
(124,766,o),
(116,756,qs),
(113,751,o),
(107,730,o),
(107,687,o),
(141,654,qs),
(159,635,o),
(177,629,q),
(107,593,o),
(107,546,qs),
(107,525,o),
(124,495,o),
(134,495,q),
(182,532,o),
(243,547,q),
(191,364,ls),
(151,221,o),
(65,74,o),
(-17,9,q),
(-17,2,ls),
(-17,-50,o),
(53,-50,qs),
(96,-50,o),
(214,14,o),
(255,55,q),
(266,19,o),
(296,-13,qs),
(309,-28,o),
(356,-50,o),
(419,-50,o),
(441,-30,qs),
(449,-22,o),
(462,-1,o),
(464,7,o),
(465,9,q),
(392,91,o),
(392,220,qs),
(392,305,o),
(412,393,qs),
(418,423,o),
(448,539,o),
(454,564,q),
(683,565,l),
(690,565,l),
(704,511,o),
(737,397,o),
(764,303,o),
(764,202,qs),
(764,85,o),
(701,9,q),
(710,-12,o),
(742,-36,qs),
(763,-50,o),
(820,-50,qs),
(928,-50,o),
(981,55,q),
(1081,-50,o)
);
},
{
closed = 1;
nodes = (
(537,698,o),
(486,698,q),
(530,884,o),
(572,1054,q),
(577,1026,o),
(658,698,q),
(596,698,ls)
);
}
);
};
layerId = m01;
shapes = (
{
ref = A;
},
{
pos = (247,272);
ref = brevecomb;
}
);
width = 1261;
}
);
note = Abreve;
unicode = 258;
},
{
glyphname = Acircumflex;
kernLeft = A;
kernRight = A;
lastChange = "2023-11-17 14:42:02 +0000";
layers = (
{
background = {
shapes = (
{
closed = 1;
nodes = (
(426,1688,l),
(624,1876,l),
(821,1688,l),
(949,1688,l),
(737,2024,l),
(509,2024,l),
(301,1688,l)
);
},
{
closed = 1;
nodes = (
(1280,-50,o),
(1280,5,qs),
(1280,9,l),
(1186,88,o),
(1047,423,o),
(1047,592,qs),
(1047,682,o),
(1073,712,qs),
(1083,723,o),
(1099,744,o),
(1099,762,o),
(1074,781,o),
(1032,820,o),
(983,888,o),
(928,1035,o),
(892,1203,o),
(892,1418,o),
(921,1502,q),
(913,1532,o),
(877,1562,o),
(809,1562,o),
(774,1550,qs),
(689,1518,o),
(660,1447,q),
(644,1471,o),
(629,1488,qs),
(561,1562,o),
(503,1562,qs),
(390,1562,o),
(390,1506,qs),
(390,1502,l),
(443,1419,o),
(443,1255,o),
(404,1117,qs),
(288,707,l),
(196,720,o),
(134,768,q),
(124,766,o),
(116,756,qs),
(113,751,o),
(107,730,o),
(107,687,o),
(141,654,qs),
(159,635,o),
(177,629,q),
(107,593,o),
(107,546,qs),
(107,525,o),
(124,495,o),
(134,495,q),
(182,532,o),
(243,547,q),
(191,364,ls),
(151,221,o),
(65,74,o),
(-17,9,q),
(-17,2,ls),
(-17,-50,o),
(53,-50,qs),
(96,-50,o),
(214,14,o),
(255,55,q),
(266,19,o),
(296,-13,qs),
(309,-28,o),
(356,-50,o),
(419,-50,o),
(441,-30,qs),
(449,-22,o),
(462,-1,o),
(464,7,o),
(465,9,q),
(392,91,o),
(392,220,qs),
(392,305,o),
(412,393,qs),
(418,423,o),
(448,539,o),
(454,564,q),
(683,565,l),
(690,565,l),
(704,511,o),
(737,397,o),
(764,303,o),
(764,202,qs),
(764,85,o),
(701,9,q),
(710,-12,o),
(742,-36,qs),
(763,-50,o),
(820,-50,qs),
(928,-50,o),
(981,55,q),
(1081,-50,o)
);
},
{
closed = 1;
nodes = (
(537,698,o),
(486,698,q),
(530,884,o),
(572,1054,q),
(577,1026,o),
(658,698,q),
(596,698,ls)
);
}
);
};
layerId = m01;
shapes = (
{
ref = A;
},
{
pos = (237,273);
ref = circumflexcomb;
}
);
width = 1261;
}
);
note = Acircumflex;
unicode = 194;
},
{
glyphname = Adblgrave;
kernLeft = A;
kernRight = A;
lastChange = "2023-11-17 14:42:02 +0000";
layers = (
{
background = {
shapes = (
{
closed = 1;
nodes = (
(379,1949,o),
(340,1981,o),
(327,1990,o),
(265,2031,o),
(213,2031,qs),
(150,2031,o),
(116,1995,q),
(140,1946,o),
(227,1857,qs),
(390,1688,l),
(508,1688,l),
(383,1946,l)
);
},
{
closed = 1;
nodes = (
(743,1951,o),
(705,1979,o),
(697,1985,qs),
(636,2031,o),
(570,2031,qs),
(510,2031,o),
(483,1995,q),
(510,1942,o),
(593,1857,qs),
(756,1688,l),
(874,1688,l),
(749,1946,l)
);
},
{
closed = 1;
nodes = (
(1280,-50,o),
(1280,5,qs),
(1280,9,l),
(1186,88,o),
(1047,423,o),
(1047,592,qs),
(1047,682,o),
(1073,712,qs),
(1083,723,o),
(1099,744,o),
(1099,762,o),
(1074,781,o),
(1032,820,o),
(983,888,o),
(928,1035,o),
(892,1203,o),
(892,1418,o),
(921,1502,q),
(913,1532,o),
(877,1562,o),
(809,1562,o),
(774,1550,qs),
(689,1518,o),
(660,1447,q),
(644,1471,o),
(629,1488,qs),
(561,1562,o),
(503,1562,qs),
(390,1562,o),
(390,1506,qs),
(390,1502,l),
(443,1419,o),
(443,1255,o),
(404,1117,qs),
(288,707,l),
(196,720,o),
(134,768,q),
(124,766,o),
(116,756,qs),
(113,751,o),
(107,730,o),
(107,687,o),
(141,654,qs),
(159,635,o),
(177,629,q),
(107,593,o),
(107,546,qs),
(107,525,o),
(124,495,o),
(134,495,q),
(182,532,o),
(243,547,q),
(191,364,ls),
(151,221,o),
(65,74,o),
(-17,9,q),
(-17,2,ls),
(-17,-50,o),
(53,-50,qs),
(96,-50,o),
(214,14,o),
(255,55,q),
(266,19,o),
(296,-13,qs),
(309,-28,o),
(356,-50,o),
(419,-50,o),
(441,-30,qs),
(449,-22,o),
(462,-1,o),
(464,7,o),
(465,9,q),
(392,91,o),
(392,220,qs),
(392,305,o),
(412,393,qs),
(418,423,o),
(448,539,o),
(454,564,q),
(683,565,l),
(690,565,l),
(704,511,o),
(737,397,o),
(764,303,o),
(764,202,qs),
(764,85,o),
(701,9,q),
(710,-12,o),
(742,-36,qs),
(763,-50,o),
(820,-50,qs),
(928,-50,o),
(981,55,q),
(1081,-50,o)
);
},
{
closed = 1;
nodes = (
(537,698,o),
(486,698,q),
(530,884,o),
(572,1054,q),
(577,1026,o),
(658,698,q),
(596,698,ls)
);
}
);
};
layerId = m01;
shapes = (
{
ref = A;
},
{
pos = (45,273);
ref = dblgravecomb;
}
);
width = 1261;
}
);
note = uni0200;
unicode = 512;
},
{
glyphname = Adieresis;
kernLeft = A;
kernRight = A;
lastChange = "2023-11-17 14:42:02 +0000";
layers = (
{
background = {
shapes = (
{
closed = 1;
nodes = (
(875,1688,o),
(946,1761,o),
(946,1863,o),
(875,1936,o),
(771,1936,o),
(699,1863,o),
(699,1761,o),
(771,1688,o)
);
},
{
closed = 1;
nodes = (
(479,1688,o),
(550,1761,o),
(550,1863,o),
(479,1936,o),
(373,1936,o),
(302,1863,o),
(302,1761,o),
(373,1688,o)
);
},
{
closed = 1;
nodes = (
(1280,-50,o),
(1280,5,qs),
(1280,9,l),
(1186,88,o),
(1047,423,o),
(1047,592,qs),
(1047,682,o),
(1073,712,qs),
(1083,723,o),
(1099,744,o),
(1099,762,o),
(1074,781,o),
(1032,820,o),
(983,888,o),
(928,1035,o),
(892,1203,o),
(892,1418,o),
(921,1502,q),
(913,1532,o),
(877,1562,o),
(809,1562,o),
(774,1550,qs),
(689,1518,o),
(660,1447,q),
(644,1471,o),
(629,1488,qs),
(561,1562,o),
(503,1562,qs),
(390,1562,o),
(390,1506,qs),
(390,1502,l),
(443,1419,o),
(443,1255,o),
(404,1117,qs),
(288,707,l),
(196,720,o),
(134,768,q),
(124,766,o),
(116,756,qs),
(113,751,o),
(107,730,o),
(107,687,o),
(141,654,qs),
(159,635,o),
(177,629,q),
(107,593,o),
(107,546,qs),
(107,525,o),
(124,495,o),
(134,495,q),
(182,532,o),
(243,547,q),
(191,364,ls),
(151,221,o),
(65,74,o),
(-17,9,q),
(-17,2,ls),
(-17,-50,o),
(53,-50,qs),
(96,-50,o),
(214,14,o),
(255,55,q),
(266,19,o),
(296,-13,qs),
(309,-28,o),
(356,-50,o),
(419,-50,o),
(441,-30,qs),
(449,-22,o),
(462,-1,o),
(464,7,o),
(465,9,q),
(392,91,o),
(392,220,qs),
(392,305,o),
(412,393,qs),
(418,423,o),
(448,539,o),
(454,564,q),
(683,565,l),
(690,565,l),
(704,511,o),
(737,397,o),
(764,303,o),
(764,202,qs),
(764,85,o),
(701,9,q),
(710,-12,o),
(742,-36,qs),
(763,-50,o),
(820,-50,qs),
(928,-50,o),
(981,55,q),
(1081,-50,o)
);
},
{
closed = 1;
nodes = (
(537,698,o),
(486,698,q),
(530,884,o),
(572,1054,q),
(577,1026,o),
(658,698,q),
(596,698,ls)
);
}
);
};
layerId = m01;
shapes = (
{
ref = A;
},
{
pos = (227,273);
ref = dieresiscomb;
}
);
width = 1261;
}
);
note = Adieresis;
unicode = 196;
},
{
glyphname = Agrave;
kernLeft = A;
kernRight = A;
lastChange = "2023-11-17 14:42:02 +0000";
layers = (
{
background = {
shapes = (
{
closed = 1;
nodes = (
(304,1900,qs),
(562,1688,l),
(687,1688,l),
(537,1914,l),
(517,1960,l),
(510,1964,o),
(444,2004,o),
(382,2036,o),
(333,2036,qs),
(268,2036,o),
(233,1994,q),
(246,1945,o)
);
},
{
closed = 1;
nodes = (
(1280,-50,o),
(1280,5,qs),
(1280,9,l),
(1186,88,o),
(1047,423,o),
(1047,592,qs),
(1047,682,o),
(1073,712,qs),
(1083,723,o),
(1099,744,o),
(1099,762,o),
(1074,781,o),
(1032,820,o),
(983,888,o),
(928,1035,o),
(892,1203,o),
(892,1418,o),
(921,1502,q),
(913,1532,o),
(877,1562,o),
(809,1562,o),
(774,1550,qs),
(689,1518,o),
(660,1447,q),
(644,1471,o),
(629,1488,qs),
(561,1562,o),
(503,1562,qs),
(390,1562,o),
(390,1506,qs),
(390,1502,l),
(443,1419,o),
(443,1255,o),
(404,1117,qs),
(288,707,l),
(196,720,o),
(134,768,q),
(124,766,o),
(116,756,qs),
(113,751,o),
(107,730,o),
(107,687,o),
(141,654,qs),
(159,635,o),
(177,629,q),
(107,593,o),
(107,546,qs),
(107,525,o),
(124,495,o),
(134,495,q),
(182,532,o),
(243,547,q),
(191,364,ls),
(151,221,o),
(65,74,o),
(-17,9,q),
(-17,2,ls),
(-17,-50,o),
(53,-50,qs),
(96,-50,o),
(214,14,o),
(255,55,q),
(266,19,o),
(296,-13,qs),
(309,-28,o),
(356,-50,o),
(419,-50,o),
(441,-30,qs),
(449,-22,o),
(462,-1,o),
(464,7,o),
(465,9,q),
(392,91,o),
(392,220,qs),
(392,305,o),
(412,393,qs),
(418,423,o),
(448,539,o),
(454,564,q),
(683,565,l),
(690,565,l),
(704,511,o),
(737,397,o),
(764,303,o),
(764,202,qs),
(764,85,o),
(701,9,q),
(710,-12,o),
(742,-36,qs),
(763,-50,o),
(820,-50,qs),
(928,-50,o),
(981,55,q),
(1081,-50,o)
);
},
{
closed = 1;
nodes = (
(537,698,o),
(486,698,q),
(530,884,o),
(572,1054,q),
(577,1026,o),
(658,698,q),
(596,698,ls)
);
}
);
};
layerId = m01;
shapes = (
{
ref = A;
},
{
pos = (164,273);
ref = gravecomb;
}
);
width = 1261;
}
);
note = Agrave;
unicode = 192;
},
{
glyphname = Ainvertedbreve;
kernLeft = A;
kernRight = A;
lastChange = "2023-11-17 14:42:02 +0000";
layers = (
{
background = {
shapes = (
{
closed = 1;
nodes = (
(548,1850,o),
(626,1850,qs),
(796,1850,o),
(823,1688,q),
(940,1688,l),
(930,1831,o),
(765,1997,o),
(490,1997,o),
(328,1825,o),
(322,1688,q),
(438,1688,l),
(449,1765,o)
);
},
{
closed = 1;
nodes = (
(1280,-50,o),
(1280,5,qs),
(1280,9,l),
(1186,88,o),
(1047,423,o),
(1047,592,qs),
(1047,682,o),
(1073,712,qs),
(1083,723,o),
(1099,744,o),
(1099,762,o),
(1074,781,o),
(1032,820,o),
(983,888,o),
(928,1035,o),
(892,1203,o),
(892,1418,o),
(921,1502,q),
(913,1532,o),
(877,1562,o),
(809,1562,o),
(774,1550,qs),
(689,1518,o),
(660,1447,q),
(644,1471,o),
(629,1488,qs),
(561,1562,o),
(503,1562,qs),
(390,1562,o),
(390,1506,qs),
(390,1502,l),
(443,1419,o),
(443,1255,o),
(404,1117,qs),
(288,707,l),
(196,720,o),
(134,768,q),
(124,766,o),
(116,756,qs),
(113,751,o),
(107,730,o),
(107,687,o),
(141,654,qs),
(159,635,o),
(177,629,q),
(107,593,o),
(107,546,qs),
(107,525,o),
(124,495,o),
(134,495,q),
(182,532,o),
(243,547,q),
(191,364,ls),
(151,221,o),
(65,74,o),
(-17,9,q),
(-17,2,ls),
(-17,-50,o),
(53,-50,qs),
(96,-50,o),
(214,14,o),
(255,55,q),
(266,19,o),
(296,-13,qs),
(309,-28,o),
(356,-50,o),
(419,-50,o),
(441,-30,qs),
(449,-22,o),
(462,-1,o),
(464,7,o),
(465,9,q),
(392,91,o),
(392,220,qs),
(392,305,o),
(412,393,qs),
(418,423,o),
(448,539,o),
(454,564,q),
(683,565,l),
(690,565,l),
(704,511,o),
(737,397,o),
(764,303,o),
(764,202,qs),
(764,85,o),
(701,9,q),
(710,-12,o),
(742,-36,qs),
(763,-50,o),
(820,-50,qs),
(928,-50,o),
(981,55,q),
(1081,-50,o)
);
},
{
closed = 1;
nodes = (
(537,698,o),
(486,698,q),
(530,884,o),
(572,1054,q),
(577,1026,o),
(658,698,q),
(596,698,ls)
);
}
);
};
layerId = m01;
shapes = (
{
ref = A;
},
{
pos = (244,273);
ref = breveinvertedcomb;
}
);
width = 1261;
}
);
note = uni0202;
unicode = 514;
},
{
glyphname = Amacron;
kernLeft = A;
kernRight = A;
lastChange = "2023-11-17 14:42:02 +0000";
layers = (
{
background = {
shapes = (
{
closed = 1;
nodes = (
(316,1815,l),
(316,1688,l),
(947,1688,l),
(947,1815,l)
);
},
{
closed = 1;
nodes = (
(1280,-50,o),
(1280,5,qs),
(1280,9,l),
(1186,88,o),
(1047,423,o),
(1047,592,qs),
(1047,682,o),
(1073,712,qs),
(1083,723,o),
(1099,744,o),
(1099,762,o),
(1074,781,o),
(1032,820,o),
(983,888,o),
(928,1035,o),
(892,1203,o),
(892,1418,o),
(921,1502,q),
(913,1532,o),
(877,1562,o),
(809,1562,o),
(774,1550,qs),
(689,1518,o),
(660,1447,q),
(644,1471,o),
(629,1488,qs),
(561,1562,o),
(503,1562,qs),
(390,1562,o),
(390,1506,qs),
(390,1502,l),
(443,1419,o),
(443,1255,o),
(404,1117,qs),
(288,707,l),
(196,720,o),
(134,768,q),
(124,766,o),
(116,756,qs),
(113,751,o),
(107,730,o),
(107,687,o),
(141,654,qs),
(159,635,o),
(177,629,q),
(107,593,o),
(107,546,qs),
(107,525,o),
(124,495,o),
(134,495,q),
(182,532,o),
(243,547,q),
(191,364,ls),
(151,221,o),
(65,74,o),
(-17,9,q),
(-17,2,ls),
(-17,-50,o),
(53,-50,qs),
(96,-50,o),
(214,14,o),
(255,55,q),
(266,19,o),
(296,-13,qs),
(309,-28,o),
(356,-50,o),
(419,-50,o),
(441,-30,qs),
(449,-22,o),
(462,-1,o),
(464,7,o),
(465,9,q),
(392,91,o),
(392,220,qs),
(392,305,o),
(412,393,qs),
(418,423,o),
(448,539,o),
(454,564,q),
(683,565,l),
(690,565,l),
(704,511,o),
(737,397,o),
(764,303,o),
(764,202,qs),
(764,85,o),
(701,9,q),
(710,-12,o),
(742,-36,qs),
(763,-50,o),
(820,-50,qs),
(928,-50,o),
(981,55,q),
(1081,-50,o)
);
},
{
closed = 1;
nodes = (
(537,698,o),
(486,698,q),
(530,884,o),
(572,1054,q),
(577,1026,o),
(658,698,q),
(596,698,ls)
);
}
);
};
layerId = m01;
shapes = (
{
ref = A;
},
{
pos = (227,273);
ref = macroncomb;
}
);
width = 1261;
}
);
note = Amacron;
unicode = 256;
},
{
glyphname = Aogonek;
kernLeft = A;
kernRight = A;
lastChange = "2023-11-17 14:42:02 +0000";
layers = (
{
background = {
shapes = (
{
closed = 1;
nodes = (
(536,-136,o),
(494,-176,o),
(421,-259,o),
(421,-316,qs),
(421,-402,o),
(554,-494,o),
(752,-494,o),
(837,-453,q),
(821,-346,l),
(770,-372,o),
(710,-372,qs),
(612,-372,o),
(612,-282,qs),
(612,-227,o),
(686,-122,o),
(757,-60,q),
(624,-60,l),
(608,-75,o)
);
},
{
closed = 1;
nodes = (
(1280,-50,o),
(1280,5,qs),
(1280,9,l),
(1186,88,o),
(1047,423,o),
(1047,592,qs),
(1047,682,o),
(1073,712,qs),
(1083,723,o),
(1099,744,o),
(1099,762,o),
(1074,781,o),
(1032,820,o),
(983,888,o),
(928,1035,o),
(892,1203,o),
(892,1418,o),
(921,1502,q),
(913,1532,o),
(877,1562,o),
(809,1562,o),
(774,1550,qs),
(689,1518,o),
(660,1447,q),
(644,1471,o),
(629,1488,qs),
(561,1562,o),
(503,1562,qs),
(390,1562,o),
(390,1506,qs),
(390,1502,l),
(443,1419,o),
(443,1255,o),
(404,1117,qs),
(288,707,l),
(196,720,o),
(134,768,q),
(124,766,o),
(116,756,qs),
(113,751,o),
(107,730,o),
(107,687,o),
(141,654,qs),
(159,635,o),
(177,629,q),
(107,593,o),
(107,546,qs),
(107,525,o),
(124,495,o),
(134,495,q),
(182,532,o),
(243,547,q),
(191,364,ls),
(151,221,o),
(65,74,o),
(-17,9,q),
(-17,2,ls),
(-17,-50,o),
(53,-50,qs),
(96,-50,o),
(214,14,o),
(255,55,q),
(266,19,o),
(296,-13,qs),
(309,-28,o),
(356,-50,o),
(419,-50,o),
(441,-30,qs),
(449,-22,o),
(462,-1,o),
(464,7,o),
(465,9,q),
(392,91,o),
(392,220,qs),
(392,305,o),
(412,393,qs),
(418,423,o),
(448,539,o),
(454,564,q),
(683,565,l),
(690,565,l),
(704,511,o),
(737,397,o),
(764,303,o),
(764,202,qs),
(764,85,o),
(701,9,q),
(710,-12,o),
(742,-36,qs),
(763,-50,o),
(820,-50,qs),
(928,-50,o),
(981,55,q),
(1081,-50,o)
);
},
{
closed = 1;
nodes = (
(537,698,o),
(486,698,q),
(530,884,o),
(572,1054,q),
(577,1026,o),
(658,698,q),
(596,698,ls)
);
}
);
};
layerId = m01;
shapes = (
{
ref = A;
},
{
pos = (756,10);
ref = ogonekcomb;
}
);
width = 1261;
}
);
note = Aogonek;
unicode = 260;
},
{
glyphname = Aring;
kernLeft = A;
kernRight = A;
lastChange = "2023-11-17 14:42:02 +0000";
layers = (
{
background = {
shapes = (
{
closed = 1;
nodes = (
(416,1693,o),
(536,1572,o),
(712,1572,o),
(833,1693,o),
(833,1869,o),
(712,1988,o),
(536,1988,o),
(416,1869,o)
);
},
{
closed = 1;
nodes = (
(743,1730,o),
(675,1661,o),
(573,1661,o),
(505,1730,o),
(505,1831,o),
(573,1899,o),
(675,1899,o),
(743,1831,o)
);
},
{
closed = 1;
nodes = (
(1280,-50,o),
(1280,5,qs),
(1280,9,l),
(1186,88,o),
(1047,423,o),
(1047,592,qs),
(1047,682,o),
(1073,712,qs),
(1083,723,o),
(1099,744,o),
(1099,762,o),
(1074,781,o),
(1032,820,o),
(983,888,o),
(928,1035,o),
(892,1203,o),
(892,1418,o),
(921,1502,q),
(913,1532,o),
(877,1562,o),
(809,1562,o),
(774,1550,qs),
(689,1518,o),
(660,1447,q),
(644,1471,o),
(629,1488,qs),
(561,1562,o),
(503,1562,qs),
(390,1562,o),
(390,1506,qs),
(390,1502,l),
(443,1419,o),
(443,1255,o),
(404,1117,qs),
(288,707,l),
(196,720,o),
(134,768,q),
(124,766,o),
(116,756,qs),
(113,751,o),
(107,730,o),
(107,687,o),
(141,654,qs),
(159,635,o),
(177,629,q),
(107,593,o),
(107,546,qs),
(107,525,o),
(124,495,o),
(134,495,q),
(182,532,o),
(243,547,q),
(191,364,ls),
(151,221,o),
(65,74,o),
(-17,9,q),
(-17,2,ls),
(-17,-50,o),
(53,-50,qs),
(96,-50,o),
(214,14,o),
(255,55,q),
(266,19,o),
(296,-13,qs),
(309,-28,o),
(356,-50,o),
(419,-50,o),
(441,-30,qs),
(449,-22,o),
(462,-1,o),
(464,7,o),
(465,9,q),
(392,91,o),
(392,220,qs),
(392,305,o),
(412,393,qs),
(418,423,o),
(448,539,o),
(454,564,q),
(683,565,l),
(690,565,l),
(704,511,o),
(737,397,o),
(764,303,o),
(764,202,qs),
(764,85,o),
(701,9,q),
(710,-12,o),
(742,-36,qs),
(763,-50,o),
(820,-50,qs),
(928,-50,o),
(981,55,q),
(1081,-50,o)
);
},
{
closed = 1;
nodes = (
(537,698,o),
(486,698,q),
(530,884,o),
(572,1054,q),
(577,1026,o),
(658,698,q),
(596,698,ls)
);
}
);
};
layerId = m01;
shapes = (
{
ref = A;
},
{
alignment = -1;
pos = (367,277);
ref = ringcomb;
}
);
width = 1261;
}
);
note = Aring;
unicode = 197;
},
{
glyphname = Atilde;
kernLeft = A;
kernRight = A;
lastChange = "2023-11-17 14:42:02 +0000";
layers = (
{
background = {
shapes = (
{
closed = 1;
nodes = (
(589,1744,o),
(712,1688,o),
(766,1688,qs),
(859,1688,o),
(967,1839,o),
(977,1956,q),
(878,1956,l),
(858,1847,o),
(793,1847,qs),
(761,1847,o),
(708,1875,qs),
(549,1959,o),
(485,1959,qs),
(394,1959,o),
(278,1817,o),
(272,1696,q),
(371,1696,l),
(380,1800,o),
(444,1800,qs),
(480,1800,o)
);
},
{
closed = 1;
nodes = (
(1280,-50,o),
(1280,5,qs),
(1280,9,l),
(1186,88,o),
(1047,423,o),
(1047,592,qs),
(1047,682,o),
(1073,712,qs),
(1083,723,o),
(1099,744,o),
(1099,762,o),
(1074,781,o),
(1032,820,o),
(983,888,o),
(928,1035,o),
(892,1203,o),
(892,1418,o),
(921,1502,q),
(913,1532,o),
(877,1562,o),
(809,1562,o),
(774,1550,qs),
(689,1518,o),
(660,1447,q),
(644,1471,o),
(629,1488,qs),
(561,1562,o),
(503,1562,qs),
(390,1562,o),
(390,1506,qs),
(390,1502,l),
(443,1419,o),
(443,1255,o),
(404,1117,qs),
(288,707,l),
(196,720,o),
(134,768,q),
(124,766,o),
(116,756,qs),
(113,751,o),
(107,730,o),
(107,687,o),
(141,654,qs),
(159,635,o),
(177,629,q),
(107,593,o),
(107,546,qs),
(107,525,o),
(124,495,o),
(134,495,q),
(182,532,o),
(243,547,q),
(191,364,ls),
(151,221,o),
(65,74,o),
(-17,9,q),
(-17,2,ls),
(-17,-50,o),
(53,-50,qs),
(96,-50,o),
(214,14,o),
(255,55,q),
(266,19,o),
(296,-13,qs),
(309,-28,o),
(356,-50,o),
(419,-50,o),
(441,-30,qs),
(449,-22,o),
(462,-1,o),
(464,7,o),
(465,9,q),
(392,91,o),
(392,220,qs),
(392,305,o),
(412,393,qs),
(418,423,o),
(448,539,o),
(454,564,q),
(683,565,l),
(690,565,l),
(704,511,o),
(737,397,o),
(764,303,o),
(764,202,qs),
(764,85,o),
(701,9,q),
(710,-12,o),
(742,-36,qs),
(763,-50,o),
(820,-50,qs),
(928,-50,o),
(981,55,q),
(1081,-50,o)
);
},
{
closed = 1;
nodes = (
(537,698,o),
(486,698,q),
(530,884,o),
(572,1054,q),
(577,1026,o),
(658,698,q),
(596,698,ls)
);
}
);
};
layerId = m01;
shapes = (
{
ref = A;
},
{
pos = (198,273);
ref = tildecomb;
}
);
width = 1261;
}
);
note = Atilde;
unicode = 195;
},
{
glyphname = AE;
kernLeft = AE;
kernRight = E;
lastChange = "2023-11-17 15:31:12 +0000";
layers = (
{
anchors = (
{
name = bottom;
pos = (900,0);
},
{
name = top;
pos = (900,1562);
}
);
background = {
shapes = (
{
closed = 1;
nodes = (
(509,1309,qs),
(509,1276,o),
(502,1231,qs),
(499,1216,o),
(488,1161,o),
(486,1148,q),
(440,969,o),
(382,886,qs),
(358,850,o),
(310,800,o),
(276,782,o),
(255,763,o),
(255,746,o),
(276,719,o),
(296,655,o),
(296,511,o),
(227,223,o),
(133,58,o),
(47,-14,q),
(47,-19,ls),
(47,-35,o),
(65,-58,qs),
(78,-74,o),
(135,-74,qs),
(211,-74,o),
(296,11,q),
(312,-18,o),
(360,-53,qs),
(389,-74,o),
(452,-74,qs),
(542,-74,o),
(572,-14,q),
(532,74,o),
(532,209,o),
(538,257,qs),
(564,465,o),
(623,602,q),
(667,640,o),
(877,640,o),
(913,601,q),
(924,526,o),
(924,359,o),
(892,103,o),
(808,-14,q),
(811,-34,o),
(832,-53,qs),
(842,-62,o),
(884,-74,o),
(975,-74,o),
(1024,-44,qs),
(1043,-33,o),
(1077,-4,o),
(1087,8,o),
(1090,11,q),
(1147,-74,o),
(1264,-74,qs),
(1327,-74,o),
(1449,-22,o),
(1488,21,q),
(1512,-11,o),
(1552,-40,qs),
(1572,-54,o),
(1629,-74,o),
(1679,-74,o),
(1695,-69,qs),
(1737,-56,o),
(1737,-30,q),
(1646,46,o),
(1646,331,o),
(1727,395,q),
(1721,415,o),
(1686,435,o),
(1657,435,qs),
(1583,435,o),
(1525,377,q),
(1510,392,ls),
(1467,435,o),
(1382,435,qs),
(1333,435,o),
(1323,395,q),
(1394,326,o),
(1394,237,qs),
(1394,186,o),
(1336,117,o),
(1275,117,qs),
(1176,117,o),
(1176,206,q),
(1200,669,l),
(1409,669,o),
(1505,610,q),
(1512,612,ls),
(1532,618,o),
(1532,661,qs),
(1532,712,o),
(1492,752,q),
(1532,798,o),
(1532,855,qs),
(1532,876,o),
(1515,905,o),
(1505,905,q),
(1454,872,o),
(1318,847,o),
(1200,847,q),
(1177,1294,l),
(1177,1372,o),
(1393,1372,o),
(1393,1277,qs),
(1393,1191,o),
(1322,1127,q),
(1328,1108,o),
(1364,1088,o),
(1393,1088,qs),
(1467,1088,o),
(1524,1145,q),
(1539,1130,ls),
(1554,1116,o),
(1620,1088,o),
(1685,1088,o),
(1722,1111,o),
(1726,1127,q),
(1645,1188,o),
(1645,1312,qs),
(1645,1382,o),
(1686,1478,o),
(1736,1516,q),
(1730,1539,o),
(1690,1562,o),
(1657,1562,qs),
(1559,1562,o),
(1487,1466,q),
(1448,1513,o),
(1313,1562,o),
(1250,1562,qs),
(1130,1562,o),
(1039,1448,q),
(1018,1503,o),
(938,1562,o),
(839,1562,o),
(744,1509,o),
(714,1456,q),
(704,1478,o),
(691,1494,qs),
(634,1562,o),
(548,1562,qs),
(458,1562,o),
(428,1503,q),
(509,1419,o)
);
},
{
closed = 1;
nodes = (
(845,1367,o),
(866,1367,qs),
(894,1367,o),
(904,1005,qs),
(908,858,ls),
(908,825,o),
(838,790,o),
(746,790,o),
(689,821,o),
(689,849,qs),
(689,854,o),
(694,867,o),
(730,995,o),
(770,1131,o)
);
}
);
};
layerId = m01;
shapes = (
{
closed = 1;
nodes = (
(186,-74,o),
(239,-46,o),
(296,11,c),
(307,-8,o),
(328,-30,o),
(360,-53,cs),
(379,-67,o),
(410,-74,o),
(452,-74,cs),
(512,-74,o),
(552,-54,o),
(572,-14,c),
(545,45,o),
(532,97,o),
(532,142,cs),
(532,187,o),
(534,225,o),
(538,257,cs),
(555,396,o),
(584,511,o),
(623,602,c),
(652,627,o),
(702,640,o),
(772,640,cs),
(842,640,o),
(889,627,o),
(913,601,c),
(930,485,o),
(926,376,o),
(908,231,cs),
(897,146,o),
(864,64,o),
(808,-14,c),
(810,-27,o),
(818,-40,o),
(832,-53,cs),
(857,-76,o),
(947,-91,o),
(1024,-44,cs),
(1058,-24,o),
(1073,-6,o),
(1090,11,c),
(1128,-46,o),
(1186,-74,o),
(1264,-74,cs),
(1348,-74,o),
(1436,-36,o),
(1488,21,c),
(1504,0,o),
(1525,-21,o),
(1552,-40,cs),
(1597,-71,o),
(1657,-81,o),
(1695,-69,cs),
(1723,-60,o),
(1737,-47,o),
(1737,-30,c),
(1676,21,o),
(1646,94,o),
(1646,189,cs),
(1646,284,o),
(1673,352,o),
(1727,395,c),
(1719,422,o),
(1696,435,o),
(1657,435,cs),
(1608,435,o),
(1564,416,o),
(1525,377,c),
(1510,392,ls),
(1481,421,o),
(1439,435,o),
(1382,435,cs),
(1349,435,o),
(1330,422,o),
(1323,395,c),
(1370,349,o),
(1394,296,o),
(1394,237,cs),
(1394,169,o),
(1356,117,o),
(1275,117,cs),
(1209,117,o),
(1176,147,o),
(1176,206,c),
(1200,669,l),
(1339,669,o),
(1441,649,o),
(1505,610,c),
(1512,612,ls),
(1525,616,o),
(1532,632,o),
(1532,661,cs),
(1532,695,o),
(1519,725,o),
(1492,752,c),
(1519,783,o),
(1532,817,o),
(1532,855,cs),
(1532,883,o),
(1518,905,o),
(1505,905,c),
(1437,861,o),
(1357,847,o),
(1200,847,c),
(1177,1294,l),
(1177,1346,o),
(1213,1372,o),
(1285,1372,cs),
(1357,1372,o),
(1393,1340,o),
(1393,1277,cs),
(1393,1220,o),
(1369,1170,o),
(1322,1127,c),
(1330,1102,o),
(1354,1088,o),
(1393,1088,cs),
(1442,1088,o),
(1486,1107,o),
(1524,1145,c),
(1539,1130,ls),
(1593,1079,o),
(1712,1071,o),
(1726,1127,c),
(1672,1168,o),
(1645,1229,o),
(1645,1312,cs),
(1645,1405,o),
(1669,1465,o),
(1736,1516,c),
(1728,1547,o),
(1701,1562,o),
(1657,1562,cs),
(1592,1562,o),
(1535,1530,o),
(1487,1466,c),
(1435,1529,o),
(1334,1562,o),
(1250,1562,cs),
(1170,1562,o),
(1100,1524,o),
(1039,1448,c),
(979,1605,o),
(792,1593,o),
(714,1456,c),
(707,1471,o),
(700,1483,o),
(691,1494,cs),
(653,1539,o),
(605,1562,o),
(548,1562,cs),
(488,1562,o),
(448,1542,o),
(428,1503,c),
(482,1447,o),
(509,1382,o),
(509,1309,cs),
(509,1287,o),
(507,1261,o),
(502,1231,cs),
(494,1189,l),
(486,1148,l),
(455,1029,o),
(421,941,o),
(382,886,cs),
(350,838,o),
(316,803,o),
(293,791,cs),
(270,779,o),
(255,766,o),
(255,755,cs),
(255,742,o),
(274,726,o),
(286,687,cs),
(293,666,o),
(296,631,o),
(296,583,cs),
(296,487,o),
(243,251,o),
(180,141,cs),
(149,86,o),
(104,34,o),
(47,-14,c),
(47,-19,ls),
(47,-30,o),
(53,-43,o),
(65,-58,cs),
(74,-69,o),
(97,-74,o),
(135,-74,cs)
);
},
{
closed = 1;
nodes = (
(731,790,o),
(689,812,o),
(689,849,cs),
(689,857,o),
(700,887,o),
(712,931,cs),
(750,1063,ls),
(777,1154,o),
(838,1367,o),
(866,1367,cs),
(885,1367,o),
(897,1246,o),
(904,1005,cs),
(908,858,ls),
(908,814,o),
(853,790,o),
(792,790,cs)
);
}
);
width = 1800;
}
);
note = AE;
unicode = 198;
},
{
glyphname = B;
kernLeft = H;
kernRight = B;
lastChange = "2023-11-17 14:42:02 +0000";
layers = (
{
anchors = (
{
name = bottom;
pos = (575,0);
},
{
name = center;
pos = (575,781);
},
{
name = top;
pos = (575,1562);
}
);
background = {
shapes = (
{
closed = 1;
nodes = (
(974,802,qs),
(1044,870,o),
(1044,1046,o),
(1088,1088,qs),
(1104,1104,o),
(1131,1127,o),
(1131,1138,o),
(1034,1245,o),
(1034,1323,qs),
(1034,1449,o),
(923,1508,qs),
(820,1562,o),
(664,1562,qs),
(432,1562,o),
(350,1459,q),
(329,1484,ls),
(308,1510,o),
(215,1562,o),
(135,1562,o),
(114,1556,qs),
(58,1539,o),
(58,1503,q),
(126,1438,o),
(179,1287,o),
(179,941,o),
(141,860,qs),
(125,826,o),
(92,787,o),
(70,767,o),
(70,748,o),
(92,729,o),
(125,689,o),
(157,621,o),
(179,481,o),
(179,241,o),
(123,57,o),
(59,1,q),
(69,-12,ls),
(98,-50,o),
(177,-50,qs),
(223,-50,o),
(278,-10,qs),
(298,5,o),
(344,54,o),
(350,65,q),
(398,-4,o),
(560,-50,o),
(664,-50,qs),
(887,-50,o),
(990,58,qs),
(1044,114,o),
(1044,292,o),
(1110,374,qs),
(1131,401,o),
(1131,411,o),
(1110,437,qs),
(1044,516,o),
(1044,569,qs),
(1044,642,o),
(974,716,qs),
(936,756,o),
(888,761,q),
(937,766,o)
);
},
{
closed = 1;
nodes = (
(761,1057,qs),
(743,853,o),
(575,853,qs),
(477,853,l),
(478,1220,ls),
(478,1257,o),
(484,1288,qs),
(488,1308,o),
(509,1333,o),
(558,1372,o),
(638,1372,qs),
(765,1372,o),
(765,1196,qs),
(764,1137,ls),
(764,1091,o)
);
},
{
closed = 1;
nodes = (
(638,134,qs),
(554,134,o),
(513,174,qs),
(497,189,o),
(481,244,o),
(478,279,o),
(478,658,o),
(477,682,q),
(516,683,ls),
(643,683,o),
(704,626,qs),
(765,568,o),
(765,400,qs),
(766,337,ls),
(766,134,o)
);
}
);
};
layerId = m01;
shapes = (
{
closed = 1;
nodes = (
(208,-50,o),
(241,-37,o),
(278,-10,cs),
(305,10,o),
(342,50,o),
(350,65,c),
(414,-27,o),
(525,-50,o),
(664,-50,cs),
(813,-50,o),
(921,-14,o),
(990,58,cs),
(1026,95,o),
(1044,144,o),
(1044,203,cs),
(1044,262,o),
(1066,319,o),
(1110,374,cs),
(1124,392,o),
(1131,403,o),
(1131,406,cs),
(1131,409,o),
(1124,420,o),
(1110,437,cs),
(1066,490,o),
(1044,534,o),
(1044,569,cs),
(1044,618,o),
(1021,667,o),
(974,716,cs),
(949,743,o),
(920,758,o),
(888,761,c),
(921,764,o),
(949,778,o),
(974,802,cs),
(1021,847,o),
(1044,899,o),
(1044,958,cs),
(1044,1017,o),
(1059,1060,o),
(1088,1088,cs),
(1109,1109,o),
(1131,1125,o),
(1131,1133,cs),
(1131,1136,o),
(1115,1156,o),
(1083,1192,cs),
(1050,1227,o),
(1034,1271,o),
(1034,1323,cs),
(1034,1407,o),
(997,1469,o),
(923,1508,cs),
(854,1544,o),
(768,1562,o),
(664,1562,cs),
(509,1562,o),
(405,1528,o),
(350,1459,c),
(329,1484,ls),
(301,1519,o),
(228,1562,o),
(175,1562,cs),
(148,1562,o),
(128,1560,o),
(114,1556,cs),
(77,1545,o),
(58,1527,o),
(58,1503,c),
(149,1416,o),
(179,1345,o),
(179,1114,cs),
(179,999,o),
(166,914,o),
(141,860,cs),
(120,815,o),
(96,790,o),
(81,777,cs),
(74,770,o),
(70,764,o),
(70,758,cs),
(70,723,o),
(146,690,o),
(168,551,cs),
(184,452,o),
(189,273,o),
(151,149,cs),
(132,88,o),
(102,38,o),
(59,1,c),
(69,-12,ls),
(88,-37,o),
(124,-50,o),
(177,-50,cs)
);
},
{
closed = 1;
nodes = (
(582,134,o),
(540,147,o),
(513,174,cs),
(492,194,o),
(482,238,o),
(480,262,cs),
(474,328,o),
(490,369,o),
(477,682,c),
(516,683,ls),
(601,683,o),
(663,664,o),
(704,626,cs),
(745,587,o),
(765,512,o),
(765,400,cs),
(766,337,ls),
(766,202,o),
(723,134,o),
(638,134,cs)
);
},
{
closed = 1;
nodes = (
(478,1220,ls),
(478,1245,o),
(480,1267,o),
(484,1288,cs),
(489,1315,o),
(501,1327,o),
(534,1353,cs),
(550,1366,o),
(585,1372,o),
(638,1372,cs),
(723,1372,o),
(765,1313,o),
(765,1196,cs),
(764,1137,ls),
(764,1106,o),
(763,1080,o),
(761,1057,cs),
(749,921,o),
(687,853,o),
(575,853,cs),
(477,853,l)
);
}
);
width = 1149;
}
);
note = B;
unicode = 66;
},
{
glyphname = C;
kernLeft = O;
kernRight = C;
lastChange = "2023-11-17 14:42:02 +0000";
layers = (
{
anchors = (
{
name = bottom;
pos = (553,0);
},
{
name = top;
pos = (553,1562);
}
);
background = {
shapes = (
{
closed = 1;
nodes = (
(792,924,o),
(820,943,o),
(828,951,o),
(843,937,o),
(875,914,o),
(915,891,o),
(975,875,o),
(1029,875,o),
(1062,895,o),
(1065,907,q),
(987,1003,o),
(987,1235,qs),
(987,1400,o),
(895,1485,qs),
(786,1586,o),
(602,1586,qs),
(148,1586,o),
(148,1096,qs),
(148,917,o),
(110,846,qs),
(94,817,o),
(61,783,o),
(39,766,o),
(39,749,o),
(61,729,o),
(78,710,qs),
(148,629,o),
(148,396,qs),
(148,146,o),
(380,-93,o),
(585,-93,qs),
(698,-93,o),
(794,-51,qs),
(851,-26,o),
(935,51,o),
(991,184,o),
(991,390,o),
(1014,542,o),
(1055,597,q),
(1052,604,ls),
(1041,628,o),
(993,628,qs),
(967,628,o),
(882,605,o),
(819,550,q),
(765,608,o),
(702,608,qs),
(671,608,o),
(649,602,qs),
(595,586,o),
(595,545,q),
(699,531,o),
(699,273,qs),
(699,138,o),
(652,110,qs),
(601,79,o),
(521,113,qs),
(504,120,o),
(481,158,qs),
(456,200,o),
(456,334,qs),
(456,395,ls),
(456,583,o),
(494,664,qs),
(510,698,o),
(543,738,o),
(565,757,o),
(565,782,o),
(536,804,qs),
(524,813,o),
(496,865,o),
(471,939,o),
(455,1081,o),
(455,1256,o),
(468,1300,qs),
(476,1331,o),
(505,1368,o),
(559,1392,o),
(629,1392,o),
(650,1380,qs),
(698,1352,o),
(698,1226,qs),
(698,1118,o),
(643,1025,qs),
(623,990,o),
(588,935,o),
(588,931,qs),
(588,891,o),
(681,891,qs),
(715,891,o)
);
}
);
};
layerId = m01;
shapes = (
{
closed = 1;
nodes = (
(660,-93,o),
(730,-79,o),
(794,-51,cs),
(870,-18,o),
(926,29,o),
(963,118,cs),
(982,162,o),
(991,218,o),
(991,287,cs),
(991,424,o),
(1000,524,o),
(1055,597,c),
(1052,604,ls),
(1045,620,o),
(1025,628,o),
(993,628,cs),
(976,628,o),
(953,624,o),
(925,617,cs),
(896,609,o),
(861,587,o),
(819,550,c),
(783,589,o),
(744,608,o),
(702,608,cs),
(681,608,o),
(664,606,o),
(649,602,cs),
(613,591,o),
(595,572,o),
(595,545,c),
(664,536,o),
(699,445,o),
(699,273,cs),
(699,183,o),
(683,129,o),
(652,110,cs),
(618,89,o),
(574,90,o),
(521,113,cs),
(510,118,o),
(496,133,o),
(481,158,cs),
(464,186,o),
(456,245,o),
(456,334,cs),
(456,395,ls),
(456,520,o),
(469,610,o),
(494,664,cs),
(515,709,o),
(539,735,o),
(554,748,cs),
(573,764,o),
(569,779,o),
(536,804,cs),
(520,816,o),
(500,853,o),
(484,902,cs),
(475,927,o),
(468,963,o),
(463,1010,cs),
(458,1057,o),
(455,1110,o),
(455,1169,cs),
(455,1227,o),
(459,1271,o),
(468,1300,cs),
(497,1412,o),
(617,1399,o),
(650,1380,cs),
(682,1361,o),
(698,1310,o),
(698,1226,cs),
(698,1154,o),
(680,1087,o),
(643,1025,cs),
(606,963,ls),
(594,944,o),
(588,934,o),
(588,931,cs),
(588,904,o),
(619,891,o),
(681,891,cs),
(771,891,o),
(821,958,o),
(836,944,cs),
(867,915,o),
(931,875,o),
(1002,875,cs),
(1038,875,o),
(1061,891,o),
(1065,907,c),
(1013,971,o),
(987,1080,o),
(987,1235,cs),
(987,1345,o),
(956,1428,o),
(895,1485,cs),
(822,1552,o),
(725,1586,o),
(602,1586,cs),
(299,1586,o),
(148,1423,o),
(148,1096,cs),
(148,977,o),
(135,893,o),
(110,846,cs),
(89,807,o),
(65,786,o),
(50,775,cs),
(43,769,o),
(39,763,o),
(39,758,cs),
(39,752,o),
(43,746,o),
(50,739,cs),
(57,732,o),
(67,723,o),
(78,710,cs),
(125,656,o),
(148,551,o),
(148,396,cs),
(148,63,o),
(312,-93,o),
(585,-93,cs)
);
}
);
width = 1106;
}
);
note = C;
unicode = 67;
},
{
glyphname = Cacute;
kernLeft = O;
kernRight = C;
lastChange = "2023-11-17 14:42:02 +0000";
layers = (
{
background = {
shapes = (
{
closed = 1;
nodes = (
(914,1937,o),
(932,1994,q),
(906,2036,o),
(830,2036,qs),
(792,2036,o),
(740,2011,qs),
(724,2003,o),
(658,1965,o),
(649,1960,q),
(479,1688,l),
(604,1688,l),
(849,1886,ls)
);
},
{
closed = 1;
nodes = (
(792,924,o),
(820,943,o),
(828,951,o),
(843,937,o),
(875,914,o),
(915,891,o),
(975,875,o),
(1029,875,o),
(1062,895,o),
(1065,907,q),
(987,1003,o),
(987,1235,qs),
(987,1400,o),
(895,1485,qs),
(786,1586,o),
(602,1586,qs),
(148,1586,o),
(148,1096,qs),
(148,917,o),
(110,846,qs),
(94,817,o),
(61,783,o),
(39,766,o),
(39,749,o),
(61,729,o),
(78,710,qs),
(148,629,o),
(148,396,qs),
(148,146,o),
(380,-93,o),
(585,-93,qs),
(698,-93,o),
(794,-51,qs),
(851,-26,o),
(935,51,o),
(991,184,o),
(991,390,o),
(1014,542,o),
(1055,597,q),
(1052,604,ls),
(1041,628,o),
(993,628,qs),
(967,628,o),
(882,605,o),
(819,550,q),
(765,608,o),
(702,608,qs),
(671,608,o),
(649,602,qs),
(595,586,o),
(595,545,q),
(699,531,o),
(699,273,qs),
(699,138,o),
(652,110,qs),
(601,79,o),
(521,113,qs),
(504,120,o),
(481,158,qs),
(456,200,o),
(456,334,qs),
(456,395,ls),
(456,583,o),
(494,664,qs),
(510,698,o),
(543,738,o),
(565,757,o),
(565,782,o),
(536,804,qs),
(524,813,o),
(496,865,o),
(471,939,o),
(455,1081,o),
(455,1256,o),
(468,1300,qs),
(476,1331,o),
(505,1368,o),
(559,1392,o),
(629,1392,o),
(650,1380,qs),
(698,1352,o),
(698,1226,qs),
(698,1118,o),
(643,1025,qs),
(623,990,o),
(588,935,o),
(588,931,qs),
(588,891,o),
(681,891,qs),
(715,891,o)
);
}
);
};
layerId = m01;
shapes = (
{
ref = C;
},
{
pos = (423,273);
ref = acutecomb;
}
);
width = 1106;
}
);
note = Cacute;
unicode = 262;
},
{
glyphname = Ccaron;
kernLeft = O;
kernRight = C;
lastChange = "2023-11-17 14:42:02 +0000";
layers = (
{
background = {
shapes = (
{
closed = 1;
nodes = (
(741,2024,l),
(547,1836,l),
(346,2024,l),
(218,2024,l),
(431,1688,l),
(659,1688,l),
(866,2024,l)
);
},
{
closed = 1;
nodes = (
(792,924,o),
(820,943,o),
(828,951,o),
(843,937,o),
(875,914,o),
(915,891,o),
(975,875,o),
(1029,875,o),
(1062,895,o),
(1065,907,q),
(987,1003,o),
(987,1235,qs),
(987,1400,o),
(895,1485,qs),
(786,1586,o),
(602,1586,qs),
(148,1586,o),
(148,1096,qs),
(148,917,o),
(110,846,qs),
(94,817,o),
(61,783,o),
(39,766,o),
(39,749,o),
(61,729,o),
(78,710,qs),
(148,629,o),
(148,396,qs),
(148,146,o),
(380,-93,o),
(585,-93,qs),
(698,-93,o),
(794,-51,qs),
(851,-26,o),
(935,51,o),
(991,184,o),
(991,390,o),
(1014,542,o),
(1055,597,q),
(1052,604,ls),
(1041,628,o),
(993,628,qs),
(967,628,o),
(882,605,o),
(819,550,q),
(765,608,o),
(702,608,qs),
(671,608,o),
(649,602,qs),
(595,586,o),
(595,545,q),
(699,531,o),
(699,273,qs),
(699,138,o),
(652,110,qs),
(601,79,o),
(521,113,qs),
(504,120,o),
(481,158,qs),
(456,200,o),
(456,334,qs),
(456,395,ls),
(456,583,o),
(494,664,qs),
(510,698,o),
(543,738,o),
(565,757,o),
(565,782,o),
(536,804,qs),
(524,813,o),
(496,865,o),
(471,939,o),
(455,1081,o),
(455,1256,o),
(468,1300,qs),
(476,1331,o),
(505,1368,o),
(559,1392,o),
(629,1392,o),
(650,1380,qs),
(698,1352,o),
(698,1226,qs),
(698,1118,o),
(643,1025,qs),
(623,990,o),
(588,935,o),
(588,931,qs),
(588,891,o),
(681,891,qs),
(715,891,o)
);
}
);
};
layerId = m01;
shapes = (
{
ref = C;
},
{
pos = (163,276);
ref = caroncomb;
}
);
width = 1106;
}
);
note = Ccaron;
unicode = 268;
},
{
glyphname = Ccedilla;
kernLeft = O;
kernRight = C;
lastChange = "2023-11-17 14:42:02 +0000";
layers = (
{
background = {
shapes = (
{
closed = 1;
nodes = (
(456,-394,qs),
(417,-394,o),
(370,-383,q),
(354,-472,l),
(417,-490,o),
(483,-490,qs),
(621,-490,o),
(696,-414,qs),
(735,-373,o),
(735,-246,o),
(652,-163,o),
(578,-163,qs),
(560,-163,o),
(551,-164,q),
(587,-59,l),
(497,-59,l),
(437,-251,l),
(458,-258,o),
(469,-264,q),
(486,-260,o),
(502,-260,q),
(563,-267,o),
(563,-321,qs),
(563,-394,o)
);
},
{
closed = 1;
nodes = (
(792,924,o),
(820,943,o),
(828,951,o),
(843,937,o),
(875,914,o),
(915,891,o),
(975,875,o),
(1029,875,o),
(1062,895,o),
(1065,907,q),
(987,1003,o),
(987,1235,qs),
(987,1400,o),
(895,1485,qs),
(786,1586,o),
(602,1586,qs),
(148,1586,o),
(148,1096,qs),
(148,917,o),
(110,846,qs),
(94,817,o),
(61,783,o),
(39,766,o),
(39,749,o),
(61,729,o),
(78,710,qs),
(148,629,o),
(148,396,qs),
(148,146,o),
(380,-93,o),
(585,-93,qs),
(698,-93,o),
(794,-51,qs),
(851,-26,o),
(935,51,o),
(991,184,o),
(991,390,o),
(1014,542,o),
(1055,597,q),
(1052,604,ls),
(1041,628,o),
(993,628,qs),
(967,628,o),
(882,605,o),
(819,550,q),
(765,608,o),
(702,608,qs),
(671,608,o),
(649,602,qs),
(595,586,o),
(595,545,q),
(699,531,o),
(699,273,qs),
(699,138,o),
(652,110,qs),
(601,79,o),
(521,113,qs),
(504,120,o),
(481,158,qs),
(456,200,o),
(456,334,qs),
(456,395,ls),
(456,583,o),
(494,664,qs),
(510,698,o),
(543,738,o),
(565,757,o),
(565,782,o),
(536,804,qs),
(524,813,o),
(496,865,o),
(471,939,o),
(455,1081,o),
(455,1256,o),
(468,1300,qs),
(476,1331,o),
(505,1368,o),
(559,1392,o),
(629,1392,o),
(650,1380,qs),
(698,1352,o),
(698,1226,qs),
(698,1118,o),
(643,1025,qs),
(623,990,o),
(588,935,o),
(588,931,qs),
(588,891,o),
(681,891,qs),
(715,891,o)
);
}
);
};
layerId = m01;
shapes = (
{
ref = C;
},
{
pos = (284,0);
ref = cedillacomb;
}
);
width = 1106;
}
);
note = Ccedilla;
unicode = 199;
},
{
glyphname = Ccircumflex;
kernLeft = O;
kernRight = C;
lastChange = "2023-11-17 14:42:02 +0000";
layers = (
{
background = {
shapes = (
{
closed = 1;
nodes = (
(343,1688,l),
(541,1876,l),
(738,1688,l),
(866,1688,l),
(654,2024,l),
(426,2024,l),
(218,1688,l)
);
},
{
closed = 1;
nodes = (
(792,924,o),
(820,943,o),
(828,951,o),
(843,937,o),
(875,914,o),
(915,891,o),
(975,875,o),
(1029,875,o),
(1062,895,o),
(1065,907,q),
(987,1003,o),
(987,1235,qs),
(987,1400,o),
(895,1485,qs),
(786,1586,o),
(602,1586,qs),
(148,1586,o),
(148,1096,qs),
(148,917,o),
(110,846,qs),
(94,817,o),
(61,783,o),
(39,766,o),
(39,749,o),
(61,729,o),
(78,710,qs),
(148,629,o),
(148,396,qs),
(148,146,o),
(380,-93,o),
(585,-93,qs),
(698,-93,o),
(794,-51,qs),
(851,-26,o),
(935,51,o),
(991,184,o),
(991,390,o),
(1014,542,o),
(1055,597,q),
(1052,604,ls),
(1041,628,o),
(993,628,qs),
(967,628,o),
(882,605,o),
(819,550,q),
(765,608,o),
(702,608,qs),
(671,608,o),
(649,602,qs),
(595,586,o),
(595,545,q),
(699,531,o),
(699,273,qs),
(699,138,o),
(652,110,qs),
(601,79,o),
(521,113,qs),
(504,120,o),
(481,158,qs),
(456,200,o),
(456,334,qs),
(456,395,ls),
(456,583,o),
(494,664,qs),
(510,698,o),
(543,738,o),
(565,757,o),
(565,782,o),
(536,804,qs),
(524,813,o),
(496,865,o),
(471,939,o),
(455,1081,o),
(455,1256,o),
(468,1300,qs),
(476,1331,o),
(505,1368,o),
(559,1392,o),
(629,1392,o),
(650,1380,qs),
(698,1352,o),
(698,1226,qs),
(698,1118,o),
(643,1025,qs),
(623,990,o),
(588,935,o),
(588,931,qs),
(588,891,o),
(681,891,qs),
(715,891,o)
);
}
);
};
layerId = m01;
shapes = (
{
ref = C;
},
{
pos = (159,273);
ref = circumflexcomb;
}
);
width = 1106;
}
);
note = Ccircumflex;
unicode = 264;
},
{
glyphname = Cdotaccent;
kernLeft = O;
kernRight = C;
lastChange = "2023-11-17 14:42:02 +0000";
layers = (
{
background = {
shapes = (
{
closed = 1;
nodes = (
(605,1688,o),
(676,1761,o),
(676,1863,o),
(605,1936,o),
(499,1936,o),
(428,1863,o),
(428,1761,o),
(499,1688,o)
);
},
{
closed = 1;
nodes = (
(792,924,o),
(820,943,o),
(828,951,o),
(843,937,o),
(875,914,o),
(915,891,o),
(975,875,o),
(1029,875,o),
(1062,895,o),
(1065,907,q),
(987,1003,o),
(987,1235,qs),
(987,1400,o),
(895,1485,qs),
(786,1586,o),
(602,1586,qs),
(148,1586,o),
(148,1096,qs),
(148,917,o),
(110,846,qs),
(94,817,o),
(61,783,o),
(39,766,o),
(39,749,o),
(61,729,o),
(78,710,qs),
(148,629,o),
(148,396,qs),
(148,146,o),
(380,-93,o),
(585,-93,qs),
(698,-93,o),
(794,-51,qs),
(851,-26,o),
(935,51,o),
(991,184,o),
(991,390,o),
(1014,542,o),
(1055,597,q),
(1052,604,ls),
(1041,628,o),
(993,628,qs),
(967,628,o),
(882,605,o),
(819,550,q),
(765,608,o),
(702,608,qs),
(671,608,o),
(649,602,qs),
(595,586,o),
(595,545,q),
(699,531,o),
(699,273,qs),
(699,138,o),
(652,110,qs),
(601,79,o),
(521,113,qs),
(504,120,o),
(481,158,qs),
(456,200,o),
(456,334,qs),
(456,395,ls),
(456,583,o),
(494,664,qs),
(510,698,o),
(543,738,o),
(565,757,o),
(565,782,o),
(536,804,qs),
(524,813,o),
(496,865,o),
(471,939,o),
(455,1081,o),
(455,1256,o),
(468,1300,qs),
(476,1331,o),
(505,1368,o),
(559,1392,o),
(629,1392,o),
(650,1380,qs),
(698,1352,o),
(698,1226,qs),
(698,1118,o),
(643,1025,qs),
(623,990,o),
(588,935,o),
(588,931,qs),
(588,891,o),
(681,891,qs),
(715,891,o)
);
}
);
};
layerId = m01;
shapes = (
{
ref = C;
},
{
pos = (347,270);
ref = dotaccentcomb;
}
);
width = 1106;
}
);
note = Cdotaccent;
unicode = 266;
},
{
glyphname = D;
kernLeft = H;
kernRight = O;
lastChange = "2023-11-17 14:42:02 +0000";
layers = (
{
anchors = (
{
name = bottom;
pos = (606,0);
},
{
name = center;
pos = (606,781);
},
{
name = top;
pos = (606,1562);
}
);
background = {
shapes = (
{
closed = 1;
nodes = (
(725,872,qs),
(714,833,o),
(692,790,o),
(676,769,o),
(676,748,o),
(700,711,o),
(714,684,qs),
(752,609,o),
(752,371,qs),
(752,358,ls),
(752,280,o),
(747,236,qs),
(743,205,o),
(727,176,o),
(688,134,o),
(621,134,qs),
(553,134,o),
(520,174,qs),
(490,211,o),
(490,362,qs),
(490,605,o),
(528,682,qs),
(542,711,o),
(566,747,o),
(566,769,o),
(551,791,qs),
(544,801,o),
(528,831,o),
(512,893,o),
(498,980,o),
(490,1127,o),
(490,1270,o),
(500,1301,qs),
(522,1372,o),
(630,1372,qs),
(752,1372,o),
(752,1218,qs),
(752,967,o)
);
},
{
closed = 1;
nodes = (
(67,-20,o),
(119,-50,o),
(195,-50,o),
(225,-38,qs),
(299,-7,o),
(342,65,q),
(440,-50,o),
(686,-50,qs),
(871,-50,o),
(1082,164,o),
(1082,574,o),
(1113,655,qs),
(1126,689,o),
(1151,729,o),
(1169,748,o),
(1169,766,o),
(1160,776,qs),
(1082,858,o),
(1082,1126,qs),
(1082,1361,o),
(961,1474,qs),
(866,1562,o),
(678,1562,qs),
(430,1562,o),
(342,1462,q),
(322,1487,ls),
(302,1512,o),
(213,1562,o),
(136,1562,o),
(114,1556,qs),
(59,1539,o),
(59,1503,q),
(127,1439,o),
(180,1295,o),
(180,948,o),
(142,864,qs),
(126,828,o),
(93,788,o),
(71,767,o),
(71,748,o),
(117,708,o),
(142,655,qs),
(180,574,o),
(180,365,qs),
(180,122,o),
(59,10,q),
(63,-5,ls)
);
}
);
};
layerId = m01;
shapes = (
{
closed = 1;
nodes = (
(182,-50,o),
(205,-46,o),
(225,-38,cs),
(274,-17,o),
(313,17,o),
(342,65,c),
(407,-12,o),
(522,-50,o),
(686,-50,cs),
(933,-50,o),
(1082,96,o),
(1082,369,cs),
(1082,506,o),
(1092,601,o),
(1113,655,cs),
(1130,700,o),
(1148,726,o),
(1160,739,cs),
(1172,751,o),
(1172,763,o),
(1160,776,cs),
(1108,831,o),
(1082,947,o),
(1082,1126,cs),
(1082,1283,o),
(1042,1399,o),
(961,1474,cs),
(898,1533,o),
(803,1562,o),
(678,1562,cs),
(513,1562,o),
(401,1529,o),
(342,1462,c),
(322,1487,ls),
(295,1520,o),
(226,1562,o),
(175,1562,cs),
(149,1562,o),
(129,1560,o),
(114,1556,cs),
(77,1545,o),
(59,1527,o),
(59,1503,c),
(150,1418,o),
(180,1353,o),
(180,1122,cs),
(180,1006,o),
(167,920,o),
(142,864,cs),
(121,816,o),
(97,792,o),
(82,778,cs),
(75,771,o),
(71,764,o),
(71,758,cs),
(71,751,o),
(79,741,o),
(94,728,cs),
(109,715,o),
(125,690,o),
(142,655,cs),
(167,601,o),
(180,504,o),
(180,365,cs),
(180,203,o),
(140,85,o),
(59,10,c),
(63,-5,ls),
(68,-25,o),
(106,-50,o),
(157,-50,cs)
);
},
{
closed = 1;
nodes = (
(576,134,o),
(542,147,o),
(520,174,cs),
(500,199,o),
(490,261,o),
(490,362,cs),
(490,524,o),
(503,631,o),
(528,682,cs),
(545,716,o),
(566,743,o),
(566,758,cs),
(566,765,o),
(561,776,o),
(551,791,cs),
(533,816,o),
(520,846,o),
(505,937,cs),
(493,1009,o),
(480,1239,o),
(500,1301,cs),
(515,1348,o),
(558,1372,o),
(630,1372,cs),
(711,1372,o),
(752,1321,o),
(752,1218,cs),
(752,1051,o),
(743,935,o),
(725,872,cs),
(710,820,o),
(695,794,o),
(684,780,cs),
(679,773,o),
(676,766,o),
(676,759,cs),
(676,752,o),
(680,742,o),
(688,730,cs),
(696,717,o),
(705,702,o),
(714,684,cs),
(739,634,o),
(752,530,o),
(752,371,cs),
(752,358,ls),
(752,306,o),
(750,265,o),
(747,236,cs),
(742,195,o),
(734,183,o),
(708,155,cs),
(695,141,o),
(666,134,o),
(621,134,cs)
);
}
);
width = 1211;
}
);
note = D;
unicode = 68;
},
{
glyphname = DZ;
kernLeft = H;
kernRight = Z;
lastChange = "2023-11-17 14:42:02 +0000";
layers = (
{
background = {
shapes = (
{
closed = 1;
nodes = (
(1924,326,qs),
(1991,326,o),
(2063,230,o),
(2063,110,o),
(1989,31,o),
(1850,31,o),
(1740,123,o),
(1740,208,qs),
(1740,345,o),
(1809,456,qs),
(1839,503,o),
(1908,586,o),
(2007,670,o),
(2007,675,q),
(1984,721,o),
(1984,756,qs),
(1984,852,o),
(2064,1086,o),
(2121,1183,qs),
(2247,1395,o),
(2336,1462,q),
(2341,1474,o),
(2341,1521,o),
(2297,1562,o),
(2239,1562,o),
(2197,1541,qs),
(2089,1488,o),
(1986,1370,q),
(1951,1465,o),
(1765,1562,o),
(1545,1562,o),
(1360,1492,o),
(1236,1353,o),
(1236,1169,o),
(1293,1086,qs),
(1317,1052,o),
(1365,987,o),
(1399,907,o),
(1399,843,o),
(1393,819,q),
(1451,819,o),
(1516,922,o),
(1516,1029,o),
(1503,1059,q),
(1528,1058,ls),
(1607,1058,o),
(1691,1116,o),
(1691,1163,o),
(1683,1179,q),
(1661,1172,o),
(1579,1172,o),
(1517,1251,o),
(1517,1361,o),
(1584,1443,o),
(1712,1443,o),
(1818,1345,o),
(1818,1182,o),
(1763,1042,o),
(1685,948,o),
(1608,876,o),
(1553,835,o),
(1553,828,o),
(1578,782,o),
(1578,749,qs),
(1578,651,o),
(1497,406,o),
(1439,304,qs),
(1312,80,o),
(1222,7,q),
(1217,-5,o),
(1217,-52,o),
(1261,-93,o),
(1319,-93,o),
(1361,-70,qs),
(1472,-10,o),
(1572,118,q),
(1617,14,o),
(1801,-93,o),
(1913,-93,qs),
(2078,-93,o),
(2206,4,qs),
(2267,51,o),
(2342,196,o),
(2342,370,o),
(2285,448,qs),
(2261,480,o),
(2213,540,o),
(2179,614,o),
(2179,675,o),
(2185,699,q),
(2127,699,o),
(2062,596,o),
(2062,489,o),
(2075,459,q),
(2050,460,ls),
(1962,460,o),
(1867,390,o),
(1867,335,o),
(1875,319,q),
(1903,326,o)
);
},
{
closed = 1;
nodes = (
(725,872,qs),
(714,833,o),
(692,790,o),
(676,769,o),
(676,748,o),
(700,711,o),
(714,684,qs),
(752,609,o),
(752,371,qs),
(752,358,ls),
(752,280,o),
(747,236,qs),
(743,205,o),
(727,176,o),
(688,134,o),
(621,134,qs),
(553,134,o),
(520,174,qs),
(490,211,o),
(490,362,qs),
(490,605,o),
(528,682,qs),
(542,711,o),
(566,747,o),
(566,769,o),
(551,791,qs),
(544,801,o),
(528,831,o),
(512,893,o),
(498,980,o),
(490,1127,o),
(490,1270,o),
(500,1301,qs),
(522,1372,o),
(630,1372,qs),
(752,1372,o),
(752,1218,qs),
(752,967,o)
);
},
{
closed = 1;
nodes = (
(67,-20,o),
(119,-50,o),
(195,-50,o),
(225,-38,qs),
(299,-7,o),
(342,65,q),
(440,-50,o),
(686,-50,qs),
(871,-50,o),
(1082,164,o),
(1082,574,o),
(1113,655,qs),
(1126,689,o),
(1151,729,o),
(1169,748,o),
(1169,766,o),
(1160,776,qs),
(1082,858,o),
(1082,1126,qs),
(1082,1361,o),
(961,1474,qs),
(866,1562,o),
(678,1562,qs),
(430,1562,o),
(342,1462,q),
(322,1487,ls),
(302,1512,o),
(213,1562,o),
(136,1562,o),
(114,1556,qs),
(59,1539,o),
(59,1503,q),
(127,1439,o),
(180,1295,o),
(180,948,o),
(142,864,qs),
(126,828,o),
(93,788,o),
(71,767,o),
(71,748,o),
(117,708,o),
(142,655,qs),
(180,574,o),
(180,365,qs),
(180,122,o),
(59,10,q),
(63,-5,ls)
);
}
);
};
layerId = m01;
shapes = (
{
ref = D;
},
{
pos = (1211,0);
ref = Z;
}
);
width = 2343;
}
);
note = DZ;
unicode = (497,499);
},
{
glyphname = DZcaron;
kernLeft = H;
kernRight = Z;
lastChange = "2023-11-17 14:42:02 +0000";
layers = (
{
background = {
shapes = (
{
closed = 1;
nodes = (
(1978,2024,l),
(1784,1836,l),
(1583,2024,l),
(1455,2024,l),
(1668,1688,l),
(1896,1688,l),
(2103,2024,l)
);
},
{
closed = 1;
nodes = (
(1924,326,qs),
(1991,326,o),
(2063,230,o),
(2063,110,o),
(1989,31,o),
(1850,31,o),
(1740,123,o),
(1740,208,qs),
(1740,345,o),
(1809,456,qs),
(1839,503,o),
(1908,586,o),
(2007,670,o),
(2007,675,q),
(1984,721,o),
(1984,756,qs),
(1984,852,o),
(2064,1086,o),
(2121,1183,qs),
(2247,1395,o),
(2336,1462,q),
(2341,1474,o),
(2341,1521,o),
(2297,1562,o),
(2239,1562,o),
(2197,1541,qs),
(2089,1488,o),
(1986,1370,q),
(1951,1465,o),
(1765,1562,o),
(1545,1562,o),
(1360,1492,o),
(1236,1353,o),
(1236,1169,o),
(1293,1086,qs),
(1317,1052,o),
(1365,987,o),
(1399,907,o),
(1399,843,o),
(1393,819,q),
(1451,819,o),
(1516,922,o),
(1516,1029,o),
(1503,1059,q),
(1528,1058,ls),
(1607,1058,o),
(1691,1116,o),
(1691,1163,o),
(1683,1179,q),
(1661,1172,o),
(1579,1172,o),
(1517,1251,o),
(1517,1361,o),
(1584,1443,o),
(1712,1443,o),
(1818,1345,o),
(1818,1182,o),
(1763,1042,o),
(1685,948,o),
(1608,876,o),
(1553,835,o),
(1553,828,o),
(1578,782,o),
(1578,749,qs),
(1578,651,o),
(1497,406,o),
(1439,304,qs),
(1312,80,o),
(1222,7,q),
(1217,-5,o),
(1217,-52,o),
(1261,-93,o),
(1319,-93,o),
(1361,-70,qs),
(1472,-10,o),
(1572,118,q),
(1617,14,o),
(1801,-93,o),
(1913,-93,qs),
(2078,-93,o),
(2206,4,qs),
(2267,51,o),
(2342,196,o),
(2342,370,o),
(2285,448,qs),
(2261,480,o),
(2213,540,o),
(2179,614,o),
(2179,675,o),
(2185,699,q),
(2127,699,o),
(2062,596,o),
(2062,489,o),
(2075,459,q),
(2050,460,ls),
(1962,460,o),
(1867,390,o),
(1867,335,o),
(1875,319,q),
(1903,326,o)
);
},
{
closed = 1;
nodes = (
(725,872,qs),
(714,833,o),
(692,790,o),
(676,769,o),
(676,748,o),
(700,711,o),
(714,684,qs),
(752,609,o),
(752,371,qs),
(752,358,ls),
(752,280,o),
(747,236,qs),
(743,205,o),
(727,176,o),
(688,134,o),
(621,134,qs),
(553,134,o),
(520,174,qs),
(490,211,o),
(490,362,qs),
(490,605,o),
(528,682,qs),
(542,711,o),
(566,747,o),
(566,769,o),
(551,791,qs),
(544,801,o),
(528,831,o),
(512,893,o),
(498,980,o),
(490,1127,o),
(490,1270,o),
(500,1301,qs),
(522,1372,o),
(630,1372,qs),
(752,1372,o),
(752,1218,qs),
(752,967,o)
);
},
{
closed = 1;
nodes = (
(67,-20,o),
(119,-50,o),
(195,-50,o),
(225,-38,qs),
(299,-7,o),
(342,65,q),
(440,-50,o),
(686,-50,qs),
(871,-50,o),
(1082,164,o),
(1082,574,o),
(1113,655,qs),
(1126,689,o),
(1151,729,o),
(1169,748,o),
(1169,766,o),
(1160,776,qs),
(1082,858,o),
(1082,1126,qs),
(1082,1361,o),
(961,1474,qs),
(866,1562,o),
(678,1562,qs),
(430,1562,o),
(342,1462,q),
(322,1487,ls),
(302,1512,o),
(213,1562,o),
(136,1562,o),
(114,1556,qs),
(59,1539,o),
(59,1503,q),
(127,1439,o),
(180,1295,o),
(180,948,o),
(142,864,qs),
(126,828,o),
(93,788,o),
(71,767,o),
(71,748,o),
(117,708,o),
(142,655,qs),
(180,574,o),
(180,365,qs),
(180,122,o),
(59,10,q),
(63,-5,ls)
);
}
);
};
layerId = m01;
shapes = (
{
ref = DZ;
},
{
pos = (1387,276);
ref = caroncomb;
}
);
width = 2343;
}
);
note = uni01C4;
unicode = 452;
},
{
glyphname = Dcaron;
kernLeft = H;
kernRight = O;
lastChange = "2023-11-17 14:42:02 +0000";
layers = (
{
background = {
shapes = (
{
closed = 1;
nodes = (
(813,2024,l),
(619,1836,l),
(418,2024,l),
(290,2024,l),
(503,1688,l),
(731,1688,l),
(938,2024,l)
);
},
{
closed = 1;
nodes = (
(725,872,qs),
(714,833,o),
(692,790,o),
(676,769,o),
(676,748,o),
(700,711,o),
(714,684,qs),
(752,609,o),
(752,371,qs),
(752,358,ls),
(752,280,o),
(747,236,qs),
(743,205,o),
(727,176,o),
(688,134,o),
(621,134,qs),
(553,134,o),
(520,174,qs),
(490,211,o),
(490,362,qs),
(490,605,o),
(528,682,qs),
(542,711,o),
(566,747,o),
(566,769,o),
(551,791,qs),
(544,801,o),
(528,831,o),
(512,893,o),
(498,980,o),
(490,1127,o),
(490,1270,o),
(500,1301,qs),
(522,1372,o),
(630,1372,qs),
(752,1372,o),
(752,1218,qs),
(752,967,o)
);
},
{
closed = 1;
nodes = (
(67,-20,o),
(119,-50,o),
(195,-50,o),
(225,-38,qs),
(299,-7,o),
(342,65,q),
(440,-50,o),
(686,-50,qs),
(871,-50,o),
(1082,164,o),
(1082,574,o),
(1113,655,qs),
(1126,689,o),
(1151,729,o),
(1169,748,o),
(1169,766,o),
(1160,776,qs),
(1082,858,o),
(1082,1126,qs),
(1082,1361,o),
(961,1474,qs),
(866,1562,o),
(678,1562,qs),
(430,1562,o),
(342,1462,q),
(322,1487,ls),
(302,1512,o),
(213,1562,o),
(136,1562,o),
(114,1556,qs),
(59,1539,o),
(59,1503,q),
(127,1439,o),
(180,1295,o),
(180,948,o),
(142,864,qs),
(126,828,o),
(93,788,o),
(71,767,o),
(71,748,o),
(117,708,o),
(142,655,qs),
(180,574,o),
(180,365,qs),
(180,122,o),
(59,10,q),
(63,-5,ls)
);
}
);
};
layerId = m01;
shapes = (
{
ref = D;
},
{
pos = (216,276);
ref = caroncomb;
}
);
width = 1211;
}
);
note = Dcaron;
unicode = 270;
},
{
glyphname = Dcroat;
kernLeft = H;
kernRight = O;
lastChange = "2023-11-17 14:42:02 +0000";
layers = (
{
background = {
shapes = (
{
closed = 1;
nodes = (
(566,747,o),
(566,768,o),
(550,789,o),
(528,833,o),
(506,913,o),
(490,1092,o),
(490,1271,o),
(500,1301,qs),
(522,1372,o),
(630,1372,qs),
(752,1372,o),
(752,1062,o),
(728,863,o),
(700,806,o),
(676,769,o),
(676,747,o),
(700,709,o),
(714,680,qs),
(752,601,o),
(752,351,qs),
(752,347,ls),
(752,344,o),
(752,342,qs),
(752,338,ls),
(752,184,o),
(712,143,qs),
(688,117,o),
(621,117,qs),
(555,117,o),
(530,146,qs),
(516,163,o),
(499,195,o),
(492,256,o),
(490,301,o),
(490,473,o),
(514,649,o),
(542,708,o)
);
},
{
closed = 1;
nodes = (
(686,-74,qs),
(865,-74,o),
(1082,118,o),
(1082,283,qs),
(1082,386,ls),
(1082,574,o),
(1113,655,qs),
(1126,689,o),
(1151,729,o),
(1169,748,o),
(1169,766,o),
(1160,776,qs),
(1082,858,o),
(1082,1126,qs),
(1082,1230,ls),
(1082,1420,o),
(960,1506,qs),
(848,1586,o),
(678,1586,qs),
(445,1586,o),
(362,1502,q),
(340,1517,ls),
(318,1532,o),
(219,1562,o),
(136,1562,o),
(114,1556,qs),
(59,1539,o),
(59,1503,q),
(127,1439,o),
(180,1295,o),
(180,948,o),
(142,864,qs),
(126,828,o),
(93,788,o),
(71,767,o),
(71,748,o),
(93,729,o),
(126,689,o),
(158,621,o),
(180,481,o),
(180,240,o),
(125,50,o),
(59,-14,q),
(63,-29,ls),
(67,-44,o),
(119,-74,o),
(164,-74,qs),
(277,-74,o),
(362,11,q),
(453,-74,o)
);
},
{
closed = 1;
nodes = (
(294,1523,l),
(925,1523,l),
(925,1396,l),
(294,1396,l)
);
}
);
};
layerId = m01;
shapes = (
{
ref = Eth;
}
);
width = 1212;
}
);
note = Dcroat;
unicode = 272;
},
{
glyphname = Dz;
kernLeft = H;
kernRight = z;
lastChange = "2023-11-17 14:42:02 +0000";
layers = (
{
background = {
shapes = (
{
closed = 1;
nodes = (
(1665,-24,qs),
(1723,-51,o),
(1861,-51,qs),
(2051,-51,o),
(2141,52,qs),
(2190,110,o),
(2190,273,o),
(2133,336,qs),
(2112,360,o),
(2076,431,o),
(2076,490,o),
(2080,510,q),
(2073,510,ls),
(2038,510,o),
(1986,450,o),
(1967,384,o),
(1967,295,o),
(1977,293,q),
(1956,294,ls),
(1881,294,o),
(1806,224,o),
(1806,172,o),
(1813,166,q),
(1857,180,o),
(1916,180,o),
(1964,144,o),
(1964,105,qs),
(1964,38,o),
(1862,38,qs),
(1798,38,o),
(1722,118,o),
(1722,256,o),
(1774,371,o),
(1846,456,o),
(1910,515,o),
(1933,525,o),
(1933,533,o),
(1916,580,o),
(1916,602,qs),
(1916,674,o),
(2028,966,o),
(2166,1209,o),
(2201,1222,q),
(2206,1233,o),
(2206,1275,o),
(2165,1313,o),
(2143,1313,qs),
(2051,1313,o),
(1894,1182,q),
(1833,1239,o),
(1773,1272,qs),
(1701,1312,o),
(1566,1312,qs),
(1447,1312,o),
(1361,1253,qs),
(1318,1223,o),
(1267,1118,o),
(1267,971,o),
(1324,908,qs),
(1345,884,o),
(1381,813,o),
(1381,754,o),
(1377,734,q),
(1384,734,ls),
(1419,734,o),
(1471,794,o),
(1490,860,o),
(1490,931,o),
(1480,951,q),
(1485,950,o),
(1544,950,o),
(1621,1003,o),
(1621,1051,qs),
(1621,1072,o),
(1614,1078,q),
(1576,1064,o),
(1519,1064,o),
(1487,1103,o),
(1487,1168,o),
(1542,1223,o),
(1636,1223,o),
(1715,1135,o),
(1715,922,o),
(1644,822,qs),
(1614,779,o),
(1555,715,o),
(1511,676,o),
(1509,673,q),
(1519,649,ls),
(1530,625,o),
(1530,599,qs),
(1530,516,o),
(1416,251,o),
(1266,41,o),
(1216,22,q),
(1211,11,o),
(1211,-31,o),
(1252,-69,o),
(1274,-69,qs),
(1366,-69,o),
(1523,62,q),
(1585,12,o)
);
},
{
closed = 1;
nodes = (
(725,872,qs),
(714,833,o),
(692,790,o),
(676,769,o),
(676,748,o),
(700,711,o),
(714,684,qs),
(752,609,o),
(752,371,qs),
(752,358,ls),
(752,280,o),
(747,236,qs),
(743,205,o),
(727,176,o),
(688,134,o),
(621,134,qs),
(553,134,o),
(520,174,qs),
(490,211,o),
(490,362,qs),
(490,605,o),
(528,682,qs),
(542,711,o),
(566,747,o),
(566,769,o),
(551,791,qs),
(544,801,o),
(528,831,o),
(512,893,o),
(498,980,o),
(490,1127,o),
(490,1270,o),
(500,1301,qs),
(522,1372,o),
(630,1372,qs),
(752,1372,o),
(752,1218,qs),
(752,967,o)
);
},
{
closed = 1;
nodes = (
(67,-20,o),
(119,-50,o),
(195,-50,o),
(225,-38,qs),
(299,-7,o),
(342,65,q),
(440,-50,o),
(686,-50,qs),
(871,-50,o),
(1082,164,o),
(1082,574,o),
(1113,655,qs),
(1126,689,o),
(1151,729,o),
(1169,748,o),
(1169,766,o),
(1160,776,qs),
(1082,858,o),
(1082,1126,qs),
(1082,1361,o),
(961,1474,qs),
(866,1562,o),
(678,1562,qs),
(430,1562,o),
(342,1462,q),
(322,1487,ls),
(302,1512,o),
(213,1562,o),
(136,1562,o),
(114,1556,qs),
(59,1539,o),
(59,1503,q),
(127,1439,o),
(180,1295,o),
(180,948,o),
(142,864,qs),
(126,828,o),
(93,788,o),
(71,767,o),
(71,748,o),
(117,708,o),
(142,655,qs),
(180,574,o),
(180,365,qs),
(180,122,o),
(59,10,q),
(63,-5,ls)
);
}
);
};
layerId = m01;
shapes = (
{
ref = D;
},
{
pos = (1211,0);
ref = z;
}
);
width = 2201;
}
);
note = Dz;
unicode = 498;
},
{
glyphname = Dzcaron;
kernLeft = H;
kernRight = z;
lastChange = "2023-11-17 14:42:02 +0000";
layers = (
{
background = {
shapes = (
{
closed = 1;
nodes = (
(1908,1751,l),
(1714,1563,l),
(1513,1751,l),
(1385,1751,l),
(1598,1415,l),
(1826,1415,l),
(2033,1751,l)
);
},
{
closed = 1;
nodes = (
(1665,-24,qs),
(1723,-51,o),
(1861,-51,qs),
(2051,-51,o),
(2141,52,qs),
(2190,110,o),
(2190,273,o),
(2133,336,qs),
(2112,360,o),
(2076,431,o),
(2076,490,o),
(2080,510,q),
(2073,510,ls),
(2038,510,o),
(1986,450,o),
(1967,384,o),
(1967,295,o),
(1977,293,q),
(1956,294,ls),
(1881,294,o),
(1806,224,o),
(1806,172,o),
(1813,166,q),
(1857,180,o),
(1916,180,o),
(1964,144,o),
(1964,105,qs),
(1964,38,o),
(1862,38,qs),
(1798,38,o),
(1722,118,o),
(1722,256,o),
(1774,371,o),
(1846,456,o),
(1910,515,o),
(1933,525,o),
(1933,533,o),
(1916,580,o),
(1916,602,qs),
(1916,674,o),
(2028,966,o),
(2166,1209,o),
(2201,1222,q),
(2206,1233,o),
(2206,1275,o),
(2165,1313,o),
(2143,1313,qs),
(2051,1313,o),
(1894,1182,q),
(1833,1239,o),
(1773,1272,qs),
(1701,1312,o),
(1566,1312,qs),
(1447,1312,o),
(1361,1253,qs),
(1318,1223,o),
(1267,1118,o),
(1267,971,o),
(1324,908,qs),
(1345,884,o),
(1381,813,o),
(1381,754,o),
(1377,734,q),
(1384,734,ls),
(1419,734,o),
(1471,794,o),
(1490,860,o),
(1490,931,o),
(1480,951,q),
(1485,950,o),
(1544,950,o),
(1621,1003,o),
(1621,1051,qs),
(1621,1072,o),
(1614,1078,q),
(1576,1064,o),
(1519,1064,o),
(1487,1103,o),
(1487,1168,o),
(1542,1223,o),
(1636,1223,o),
(1715,1135,o),
(1715,922,o),
(1644,822,qs),
(1614,779,o),
(1555,715,o),
(1511,676,o),
(1509,673,q),
(1519,649,ls),
(1530,625,o),
(1530,599,qs),
(1530,516,o),
(1416,251,o),
(1266,41,o),
(1216,22,q),
(1211,11,o),
(1211,-31,o),
(1252,-69,o),
(1274,-69,qs),
(1366,-69,o),
(1523,62,q),
(1585,12,o)
);
},
{
closed = 1;
nodes = (
(725,872,qs),
(714,833,o),
(692,790,o),
(676,769,o),
(676,748,o),
(700,711,o),
(714,684,qs),
(752,609,o),
(752,371,qs),
(752,358,ls),
(752,280,o),
(747,236,qs),
(743,205,o),
(727,176,o),
(688,134,o),
(621,134,qs),
(553,134,o),
(520,174,qs),
(490,211,o),
(490,362,qs),
(490,605,o),
(528,682,qs),
(542,711,o),
(566,747,o),
(566,769,o),
(551,791,qs),
(544,801,o),
(528,831,o),
(512,893,o),
(498,980,o),
(490,1127,o),
(490,1270,o),
(500,1301,qs),
(522,1372,o),
(630,1372,qs),
(752,1372,o),
(752,1218,qs),
(752,967,o)
);
},
{
closed = 1;
nodes = (
(67,-20,o),
(119,-50,o),
(195,-50,o),
(225,-38,qs),
(299,-7,o),
(342,65,q),
(440,-50,o),
(686,-50,qs),
(871,-50,o),
(1082,164,o),
(1082,574,o),
(1113,655,qs),
(1126,689,o),
(1151,729,o),
(1169,748,o),
(1169,766,o),
(1160,776,qs),
(1082,858,o),
(1082,1126,qs),
(1082,1361,o),
(961,1474,qs),
(866,1562,o),
(678,1562,qs),
(430,1562,o),
(342,1462,q),
(322,1487,ls),
(302,1512,o),
(213,1562,o),
(136,1562,o),
(114,1556,qs),
(59,1539,o),
(59,1503,q),
(127,1439,o),
(180,1295,o),
(180,948,o),
(142,864,qs),
(126,828,o),
(93,788,o),
(71,767,o),
(71,748,o),
(117,708,o),
(142,655,qs),
(180,574,o),
(180,365,qs),
(180,122,o),
(59,10,q),
(63,-5,ls)
);
}
);
};
layerId = m01;
shapes = (
{
ref = D;
},
{
pos = (1211,0);
ref = zcaron;
}
);
width = 2201;
}
);
note = uni01C5;
unicode = 453;
},
{
glyphname = Eth;
kernLeft = H;
kernRight = O;
lastChange = "2023-11-17 14:42:02 +0000";
layers = (
{
background = {
shapes = (
{
closed = 1;
nodes = (
(180,240,o),
(125,50,o),
(59,-14,q),
(63,-29,ls),
(67,-44,o),
(119,-74,o),
(195,-74,o),
(225,-62,qs),
(299,-31,o),
(342,41,q),
(440,-74,o),
(686,-74,qs),
(865,-74,o),
(1082,118,o),
(1082,283,qs),
(1082,386,ls),
(1082,574,o),
(1113,655,qs),
(1126,689,o),
(1151,729,o),
(1169,748,o),
(1169,766,o),
(1160,776,qs),
(1082,858,o),
(1082,1126,qs),
(1082,1230,ls),
(1082,1420,o),
(960,1506,qs),
(848,1586,o),
(678,1586,qs),
(430,1586,o),
(342,1462,q),
(322,1487,ls),
(302,1512,o),
(213,1562,o),
(136,1562,o),
(114,1556,qs),
(59,1539,o),
(59,1503,q),
(127,1439,o),
(180,1295,o),
(180,1163,qs),
(180,912,o),
(119,820,q),
(60,823,o),
(26,829,q),
(20,827,ls),
(1,821,o),
(1,783,qs),
(1,709,ls),
(1,674,o),
(19,665,qs),
(23,663,o),
(62,670,o),
(133,673,q),
(180,580,o)
);
},
{
closed = 1;
nodes = (
(490,1220,qs),
(490,1271,o),
(500,1301,qs),
(522,1372,o),
(630,1372,qs),
(752,1372,o),
(752,1062,o),
(728,863,o),
(700,806,o),
(676,769,o),
(676,747,o),
(700,709,o),
(714,680,qs),
(752,601,o),
(752,351,qs),
(752,347,ls),
(752,344,o),
(752,342,qs),
(752,338,ls),
(752,184,o),
(712,143,qs),
(688,117,o),
(621,117,qs),
(555,117,o),
(530,146,qs),
(516,163,o),
(490,212,o),
(490,342,qs),
(490,565,o),
(525,668,q),
(565,666,o),
(586,663,q),
(592,664,ls),
(611,669,o),
(611,709,qs),
(611,783,ls),
(611,818,o),
(593,827,qs),
(589,829,o),
(566,826,o),
(533,824,q),
(490,925,o)
);
}
);
};
layerId = m01;
shapes = (
{
closed = 1;
nodes = (
(182,-74,o),
(205,-70,o),
(225,-62,cs),
(274,-41,o),
(313,-7,o),
(342,41,c),
(407,-36,o),
(522,-74,o),
(686,-74,cs),
(925,-74,o),
(1082,63,o),
(1082,283,cs),
(1082,386,ls),
(1082,511,o),
(1092,601,o),
(1113,655,cs),
(1130,700,o),
(1148,726,o),
(1160,739,cs),
(1172,751,o),
(1172,763,o),
(1160,776,cs),
(1108,831,o),
(1082,947,o),
(1082,1126,cs),
(1082,1230,ls),
(1082,1357,o),
(1041,1449,o),
(960,1506,cs),
(885,1559,o),
(791,1586,o),
(678,1586,cs),
(513,1586,o),
(401,1545,o),
(342,1462,c),
(322,1487,ls),
(295,1520,o),
(226,1562,o),
(175,1562,cs),
(149,1562,o),
(129,1560,o),
(114,1556,cs),
(77,1545,o),
(59,1527,o),
(59,1503,c),
(150,1418,o),
(180,1339,o),
(180,1163,cs),
(180,996,o),
(160,881,o),
(119,820,c),
(80,822,o),
(49,825,o),
(26,829,c),
(20,827,ls),
(7,823,o),
(1,808,o),
(1,783,cs),
(1,709,ls),
(1,686,o),
(7,671,o),
(19,665,cs),
(22,664,o),
(30,664,o),
(43,667,cs),
(56,669,o),
(86,671,o),
(133,673,c),
(197,546,o),
(190,274,o),
(153,145,cs),
(134,82,o),
(103,29,o),
(59,-14,c),
(63,-29,ls),
(68,-49,o),
(106,-74,o),
(157,-74,cs)
);
},
{
closed = 1;
nodes = (
(577,117,o),
(547,127,o),
(530,146,cs),
(521,157,o),
(512,171,o),
(503,188,cs),
(494,204,o),
(490,255,o),
(490,342,cs),
(490,491,o),
(502,599,o),
(525,668,c),
(552,667,o),
(572,665,o),
(586,663,c),
(592,664,ls),
(605,667,o),
(611,682,o),
(611,709,cs),
(611,783,ls),
(611,806,o),
(605,821,o),
(593,827,cs),
(590,828,o),
(585,829,o),
(578,828,cs),
(533,824,l),
(504,891,o),
(490,1023,o),
(490,1220,cs),
(490,1254,o),
(493,1281,o),
(500,1301,cs),
(515,1348,o),
(558,1372,o),
(630,1372,cs),
(711,1372,o),
(752,1320,o),
(752,1217,cs),
(752,1114,o),
(748,1029,o),
(740,963,cs),
(727,853,o),
(714,828,o),
(688,788,cs),
(672,763,o),
(672,753,o),
(688,728,cs),
(696,715,o),
(705,699,o),
(714,680,cs),
(739,627,o),
(752,518,o),
(752,351,cs),
(752,347,l),
(752,342,l),
(752,338,ls),
(752,235,o),
(739,170,o),
(712,143,cs),
(696,126,o),
(666,117,o),
(621,117,cs)
);
}
);
width = 1212;
}
);
note = Eth;
unicode = 208;
},
{
glyphname = E;
kernLeft = H;
kernRight = E;
lastChange = "2023-11-17 14:42:02 +0000";
layers = (
{
anchors = (
{
name = bottom;
pos = (541,0);
},
{
name = ogonek;
pos = (974,10);
},
{
name = top;
pos = (541,1562);
},
{
name = topleft;
pos = (20,1562);
}
);
background = {
shapes = (
{
closed = 1;
nodes = (
(827,905,o),
(817,905,q),
(769,872,o),
(642,847,o),
(532,847,q),
(489,1294,ls),
(489,1299,o),
(489,1303,qs),
(489,1372,o),
(705,1372,o),
(705,1277,qs),
(705,1191,o),
(634,1127,q),
(640,1108,o),
(676,1088,o),
(705,1088,qs),
(779,1088,o),
(836,1145,q),
(851,1130,ls),
(866,1116,o),
(932,1088,o),
(997,1088,o),
(1034,1111,o),
(1038,1127,q),
(957,1188,o),
(957,1312,qs),
(957,1382,o),
(998,1478,o),
(1048,1516,q),
(1042,1539,o),
(1002,1562,o),
(969,1562,qs),
(871,1562,o),
(799,1466,q),
(760,1513,o),
(625,1562,o),
(562,1562,qs),
(444,1562,o),
(350,1447,q),
(329,1476,ls),
(308,1504,o),
(215,1562,o),
(135,1562,o),
(114,1556,qs),
(58,1539,o),
(58,1503,q),
(126,1438,o),
(179,1285,o),
(179,940,o),
(141,859,qs),
(125,825,o),
(92,787,o),
(70,767,o),
(70,749,o),
(81,740,qs),
(179,655,o),
(179,399,qs),
(179,315,ls),
(179,289,o),
(176,206,o),
(170,171,o),
(158,115,o),
(141,88,o),
(107,39,o),
(59,10,q),
(63,-5,ls),
(67,-20,o),
(119,-50,o),
(197,-50,o),
(228,-38,qs),
(311,-5,o),
(352,64,q),
(367,44,o),
(393,20,qs),
(406,8,o),
(442,-17,o),
(483,-37,o),
(536,-50,o),
(627,-50,o),
(761,-2,o),
(800,45,q),
(871,-50,o),
(970,-50,qs),
(991,-50,o),
(1007,-45,qs),
(1049,-32,o),
(1049,-6,q),
(958,70,o),
(958,355,o),
(1039,419,q),
(1033,439,o),
(998,459,o),
(969,459,qs),
(895,459,o),
(837,401,q),
(822,416,ls),
(779,459,o),
(694,459,qs),
(645,459,o),
(635,419,q),
(706,350,o),
(706,261,qs),
(706,207,o),
(653,134,o),
(560,134,o),
(528,147,qs),
(488,164,o),
(488,230,q),
(532,669,l),
(727,669,o),
(817,610,q),
(824,612,ls),
(844,618,o),
(844,667,qs),
(844,694,o),
(811,732,qs),
(793,753,o),
(774,759,q),
(844,801,o),
(844,855,qs),
(844,876,o)
);
}
);
};
layerId = m01;
shapes = (
{
closed = 1;
nodes = (
(184,-50,o),
(207,-46,o),
(228,-38,cs),
(283,-16,o),
(325,18,o),
(352,64,c),
(362,51,o),
(376,36,o),
(393,20,cs),
(416,-1,o),
(456,-30,o),
(510,-43,cs),
(548,-53,o),
(611,-56,o),
(694,-26,cs),
(739,-10,o),
(774,14,o),
(800,45,c),
(847,-18,o),
(904,-50,o),
(970,-50,cs),
(984,-50,o),
(996,-48,o),
(1007,-45,cs),
(1035,-36,o),
(1049,-23,o),
(1049,-6,c),
(988,45,o),
(958,118,o),
(958,213,cs),
(958,308,o),
(985,376,o),
(1039,419,c),
(1031,446,o),
(1008,459,o),
(969,459,cs),
(920,459,o),
(876,440,o),
(837,401,c),
(822,416,ls),
(793,445,o),
(751,459,o),
(694,459,cs),
(661,459,o),
(642,446,o),
(635,419,c),
(682,373,o),
(706,320,o),
(706,261,cs),
(706,189,o),
(669,134,o),
(607,134,cs),
(576,134,o),
(549,138,o),
(528,147,cs),
(501,158,o),
(488,186,o),
(488,230,c),
(532,669,l),
(662,669,o),
(757,649,o),
(817,610,c),
(824,612,ls),
(837,616,o),
(844,634,o),
(844,667,cs),
(844,685,o),
(833,707,o),
(811,732,cs),
(799,746,o),
(787,755,o),
(774,759,c),
(821,787,o),
(844,819,o),
(844,855,cs),
(844,883,o),
(830,905,o),
(817,905,c),
(753,861,o),
(679,847,o),
(532,847,c),
(489,1294,l),
(489,1303,ls),
(489,1349,o),
(525,1372,o),
(597,1372,cs),
(669,1372,o),
(705,1340,o),
(705,1277,cs),
(705,1220,o),
(681,1170,o),
(634,1127,c),
(642,1102,o),
(666,1088,o),
(705,1088,cs),
(754,1088,o),
(798,1107,o),
(836,1145,c),
(851,1130,ls),
(905,1079,o),
(1024,1071,o),
(1038,1127,c),
(984,1168,o),
(957,1229,o),
(957,1312,cs),
(957,1405,o),
(981,1465,o),
(1048,1516,c),
(1040,1547,o),
(1013,1562,o),
(969,1562,cs),
(904,1562,o),
(847,1530,o),
(799,1466,c),
(747,1529,o),
(646,1562,o),
(562,1562,cs),
(483,1562,o),
(413,1524,o),
(350,1447,c),
(329,1476,ls),
(301,1513,o),
(228,1562,o),
(175,1562,cs),
(148,1562,o),
(128,1560,o),
(114,1556,cs),
(77,1545,o),
(58,1527,o),
(58,1503,c),
(149,1416,o),
(179,1343,o),
(179,1113,cs),
(179,998,o),
(166,913,o),
(141,859,cs),
(120,814,o),
(96,790,o),
(81,777,cs),
(67,764,o),
(66,752,o),
(81,740,cs),
(146,683,o),
(179,570,o),
(179,399,cs),
(179,315,ls),
(179,280,o),
(177,212,o),
(173,189,cs),
(164,143,ls),
(156,106,o),
(147,96,o),
(124,64,cs),
(113,47,o),
(91,29,o),
(59,10,c),
(63,-5,ls),
(68,-25,o),
(106,-50,o),
(158,-50,cs)
);
}
);
width = 1082;
}
);
note = E;
unicode = 69;
},
{
glyphname = Eacute;
kernLeft = H;
kernRight = E;
lastChange = "2023-11-17 14:42:02 +0000";
layers = (
{
background = {
shapes = (
{
closed = 1;
nodes = (
(926,1937,o),
(944,1994,q),
(918,2036,o),
(842,2036,qs),
(804,2036,o),
(752,2011,qs),
(736,2003,o),
(670,1965,o),
(661,1960,q),
(491,1688,l),
(616,1688,l),
(861,1886,ls)
);
},
{
closed = 1;
nodes = (
(827,905,o),
(817,905,q),
(769,872,o),
(642,847,o),
(532,847,q),
(489,1294,ls),
(489,1299,o),
(489,1303,qs),
(489,1372,o),
(705,1372,o),
(705,1277,qs),
(705,1191,o),
(634,1127,q),
(640,1108,o),
(676,1088,o),
(705,1088,qs),
(779,1088,o),
(836,1145,q),
(851,1130,ls),
(866,1116,o),
(932,1088,o),
(997,1088,o),
(1034,1111,o),
(1038,1127,q),
(957,1188,o),
(957,1312,qs),
(957,1382,o),
(998,1478,o),
(1048,1516,q),
(1042,1539,o),
(1002,1562,o),
(969,1562,qs),
(871,1562,o),
(799,1466,q),
(760,1513,o),
(625,1562,o),
(562,1562,qs),
(444,1562,o),
(350,1447,q),
(329,1476,ls),
(308,1504,o),
(215,1562,o),
(135,1562,o),
(114,1556,qs),
(58,1539,o),
(58,1503,q),
(126,1438,o),
(179,1285,o),
(179,940,o),
(141,859,qs),
(125,825,o),
(92,787,o),
(70,767,o),
(70,749,o),
(81,740,qs),
(179,655,o),
(179,399,qs),
(179,315,ls),
(179,289,o),
(176,206,o),
(170,171,o),
(158,115,o),
(141,88,o),
(107,39,o),
(59,10,q),
(63,-5,ls),
(67,-20,o),
(119,-50,o),
(197,-50,o),
(228,-38,qs),
(311,-5,o),
(352,64,q),
(367,44,o),
(393,20,qs),
(406,8,o),
(442,-17,o),
(483,-37,o),
(536,-50,o),
(627,-50,o),
(761,-2,o),
(800,45,q),
(871,-50,o),
(970,-50,qs),
(991,-50,o),
(1007,-45,qs),
(1049,-32,o),
(1049,-6,q),
(958,70,o),
(958,355,o),
(1039,419,q),
(1033,439,o),
(998,459,o),
(969,459,qs),
(895,459,o),
(837,401,q),
(822,416,ls),
(779,459,o),
(694,459,qs),
(645,459,o),
(635,419,q),
(706,350,o),
(706,261,qs),
(706,207,o),
(653,134,o),
(560,134,o),
(528,147,qs),
(488,164,o),
(488,230,q),
(532,669,l),
(727,669,o),
(817,610,q),
(824,612,ls),
(844,618,o),
(844,667,qs),
(844,694,o),
(811,732,qs),
(793,753,o),
(774,759,q),
(844,801,o),
(844,855,qs),
(844,876,o)
);
}
);
};
layerId = m01;
shapes = (
{
ref = E;
},
{
pos = (411,273);
ref = acutecomb;
}
);
width = 1082;
}
);
note = Eacute;
unicode = 201;
},
{
glyphname = Ecaron;
kernLeft = H;
kernRight = E;
lastChange = "2023-11-17 14:42:02 +0000";
layers = (
{
background = {
shapes = (
{
closed = 1;
nodes = (
(753,2024,l),
(559,1836,l),
(358,2024,l),
(230,2024,l),
(443,1688,l),
(671,1688,l),
(878,2024,l)
);
},
{
closed = 1;
nodes = (
(827,905,o),
(817,905,q),
(769,872,o),
(642,847,o),
(532,847,q),
(489,1294,ls),
(489,1299,o),
(489,1303,qs),
(489,1372,o),
(705,1372,o),
(705,1277,qs),
(705,1191,o),
(634,1127,q),
(640,1108,o),
(676,1088,o),
(705,1088,qs),
(779,1088,o),
(836,1145,q),
(851,1130,ls),
(866,1116,o),
(932,1088,o),
(997,1088,o),
(1034,1111,o),
(1038,1127,q),
(957,1188,o),
(957,1312,qs),
(957,1382,o),
(998,1478,o),
(1048,1516,q),
(1042,1539,o),
(1002,1562,o),
(969,1562,qs),
(871,1562,o),
(799,1466,q),
(760,1513,o),
(625,1562,o),
(562,1562,qs),
(444,1562,o),
(350,1447,q),
(329,1476,ls),
(308,1504,o),
(215,1562,o),
(135,1562,o),
(114,1556,qs),
(58,1539,o),
(58,1503,q),
(126,1438,o),
(179,1285,o),
(179,940,o),
(141,859,qs),
(125,825,o),
(92,787,o),
(70,767,o),
(70,749,o),
(81,740,qs),
(179,655,o),
(179,399,qs),
(179,315,ls),
(179,289,o),
(176,206,o),
(170,171,o),
(158,115,o),
(141,88,o),
(107,39,o),
(59,10,q),
(63,-5,ls),
(67,-20,o),
(119,-50,o),
(197,-50,o),
(228,-38,qs),
(311,-5,o),
(352,64,q),
(367,44,o),
(393,20,qs),
(406,8,o),
(442,-17,o),
(483,-37,o),
(536,-50,o),
(627,-50,o),
(761,-2,o),
(800,45,q),
(871,-50,o),
(970,-50,qs),
(991,-50,o),
(1007,-45,qs),
(1049,-32,o),
(1049,-6,q),
(958,70,o),
(958,355,o),
(1039,419,q),
(1033,439,o),
(998,459,o),
(969,459,qs),
(895,459,o),
(837,401,q),
(822,416,ls),
(779,459,o),
(694,459,qs),
(645,459,o),
(635,419,q),
(706,350,o),
(706,261,qs),
(706,207,o),
(653,134,o),
(560,134,o),
(528,147,qs),
(488,164,o),
(488,230,q),
(532,669,l),
(727,669,o),
(817,610,q),
(824,612,ls),
(844,618,o),
(844,667,qs),
(844,694,o),
(811,732,qs),
(793,753,o),
(774,759,q),
(844,801,o),
(844,855,qs),
(844,876,o)
);
}
);
};
layerId = m01;
shapes = (
{
ref = E;
},
{
pos = (151,276);
ref = caroncomb;
}
);
width = 1082;
}
);
note = Ecaron;
unicode = 282;
},
{
glyphname = Ecircumflex;
kernLeft = H;
kernRight = E;
lastChange = "2023-11-17 14:42:02 +0000";
layers = (
{
background = {
shapes = (
{
closed = 1;
nodes = (
(354,1688,l),
(552,1876,l),
(749,1688,l),
(877,1688,l),
(665,2024,l),
(437,2024,l),
(229,1688,l)
);
},
{
closed = 1;
nodes = (
(827,905,o),
(817,905,q),
(769,872,o),
(642,847,o),
(532,847,q),
(489,1294,ls),
(489,1299,o),
(489,1303,qs),
(489,1372,o),
(705,1372,o),
(705,1277,qs),
(705,1191,o),
(634,1127,q),
(640,1108,o),
(676,1088,o),
(705,1088,qs),
(779,1088,o),
(836,1145,q),
(851,1130,ls),
(866,1116,o),
(932,1088,o),
(997,1088,o),
(1034,1111,o),
(1038,1127,q),
(957,1188,o),
(957,1312,qs),
(957,1382,o),
(998,1478,o),
(1048,1516,q),
(1042,1539,o),
(1002,1562,o),
(969,1562,qs),
(871,1562,o),
(799,1466,q),
(760,1513,o),
(625,1562,o),
(562,1562,qs),
(444,1562,o),
(350,1447,q),
(329,1476,ls),
(308,1504,o),
(215,1562,o),
(135,1562,o),
(114,1556,qs),
(58,1539,o),
(58,1503,q),
(126,1438,o),
(179,1285,o),
(179,940,o),
(141,859,qs),
(125,825,o),
(92,787,o),
(70,767,o),
(70,749,o),
(81,740,qs),
(179,655,o),
(179,399,qs),
(179,315,ls),
(179,289,o),
(176,206,o),
(170,171,o),
(158,115,o),
(141,88,o),
(107,39,o),
(59,10,q),
(63,-5,ls),
(67,-20,o),
(119,-50,o),
(197,-50,o),
(228,-38,qs),
(311,-5,o),
(352,64,q),
(367,44,o),
(393,20,qs),
(406,8,o),
(442,-17,o),
(483,-37,o),
(536,-50,o),
(627,-50,o),
(761,-2,o),
(800,45,q),
(871,-50,o),
(970,-50,qs),
(991,-50,o),
(1007,-45,qs),
(1049,-32,o),
(1049,-6,q),
(958,70,o),
(958,355,o),
(1039,419,q),
(1033,439,o),
(998,459,o),
(969,459,qs),
(895,459,o),
(837,401,q),
(822,416,ls),
(779,459,o),
(694,459,qs),
(645,459,o),
(635,419,q),
(706,350,o),
(706,261,qs),
(706,207,o),
(653,134,o),
(560,134,o),
(528,147,qs),
(488,164,o),
(488,230,q),
(532,669,l),
(727,669,o),
(817,610,q),
(824,612,ls),
(844,618,o),
(844,667,qs),
(844,694,o),
(811,732,qs),
(793,753,o),
(774,759,q),
(844,801,o),
(844,855,qs),
(844,876,o)
);
}
);
};
layerId = m01;
shapes = (
{
ref = E;
},
{
pos = (147,273);
ref = circumflexcomb;
}
);
width = 1082;
}
);
note = Ecircumflex;
unicode = 202;
},
{
glyphname = Edblgrave;
kernLeft = H;
kernRight = E;
lastChange = "2023-11-17 14:42:02 +0000";
layers = (
{
background = {
shapes = (
{
closed = 1;
nodes = (
(301,1949,o),
(262,1981,o),
(249,1990,o),
(187,2031,o),
(135,2031,qs),
(72,2031,o),
(38,1995,q),
(62,1946,o),
(149,1857,qs),
(312,1688,l),
(430,1688,l),
(305,1946,l)
);
},
{
closed = 1;
nodes = (
(665,1951,o),
(627,1979,o),
(619,1985,qs),
(558,2031,o),
(492,2031,qs),
(432,2031,o),
(405,1995,q),
(432,1942,o),
(515,1857,qs),
(678,1688,l),
(796,1688,l),
(671,1946,l)
);
},
{
closed = 1;
nodes = (
(827,905,o),
(817,905,q),
(769,872,o),
(642,847,o),
(532,847,q),
(489,1294,ls),
(489,1299,o),
(489,1303,qs),
(489,1372,o),
(705,1372,o),
(705,1277,qs),
(705,1191,o),
(634,1127,q),
(640,1108,o),
(676,1088,o),
(705,1088,qs),
(779,1088,o),
(836,1145,q),
(851,1130,ls),
(866,1116,o),
(932,1088,o),
(997,1088,o),
(1034,1111,o),
(1038,1127,q),
(957,1188,o),
(957,1312,qs),
(957,1382,o),
(998,1478,o),
(1048,1516,q),
(1042,1539,o),
(1002,1562,o),
(969,1562,qs),
(871,1562,o),
(799,1466,q),
(760,1513,o),
(625,1562,o),
(562,1562,qs),
(444,1562,o),
(350,1447,q),
(329,1476,ls),
(308,1504,o),
(215,1562,o),
(135,1562,o),
(114,1556,qs),
(58,1539,o),
(58,1503,q),
(126,1438,o),
(179,1285,o),
(179,940,o),
(141,859,qs),
(125,825,o),
(92,787,o),
(70,767,o),
(70,749,o),
(81,740,qs),
(179,655,o),
(179,399,qs),
(179,315,ls),
(179,289,o),
(176,206,o),
(170,171,o),
(158,115,o),
(141,88,o),
(107,39,o),
(59,10,q),
(63,-5,ls),
(67,-20,o),
(119,-50,o),
(197,-50,o),
(228,-38,qs),
(311,-5,o),
(352,64,q),
(367,44,o),
(393,20,qs),
(406,8,o),
(442,-17,o),
(483,-37,o),
(536,-50,o),
(627,-50,o),
(761,-2,o),
(800,45,q),
(871,-50,o),
(970,-50,qs),
(991,-50,o),
(1007,-45,qs),
(1049,-32,o),
(1049,-6,q),
(958,70,o),
(958,355,o),
(1039,419,q),
(1033,439,o),
(998,459,o),
(969,459,qs),
(895,459,o),
(837,401,q),
(822,416,ls),
(779,459,o),
(694,459,qs),
(645,459,o),
(635,419,q),
(706,350,o),
(706,261,qs),
(706,207,o),
(653,134,o),
(560,134,o),
(528,147,qs),
(488,164,o),
(488,230,q),
(532,669,l),
(727,669,o),
(817,610,q),
(824,612,ls),
(844,618,o),
(844,667,qs),
(844,694,o),
(811,732,qs),
(793,753,o),
(774,759,q),
(844,801,o),
(844,855,qs),
(844,876,o)
);
}
);
};
layerId = m01;
shapes = (
{
ref = E;
},
{
pos = (-45,273);
ref = dblgravecomb;
}
);
width = 1082;
}
);
note = uni0204;
unicode = 516;
},
{
glyphname = Edieresis;
kernLeft = H;
kernRight = E;
lastChange = "2023-11-17 14:42:02 +0000";
layers = (
{
background = {
shapes = (
{
closed = 1;
nodes = (
(805,1688,o),
(876,1761,o),
(876,1863,o),
(805,1936,o),
(701,1936,o),
(629,1863,o),
(629,1761,o),
(701,1688,o)
);
},
{
closed = 1;
nodes = (
(409,1688,o),
(480,1761,o),
(480,1863,o),
(409,1936,o),
(303,1936,o),
(232,1863,o),
(232,1761,o),
(303,1688,o)
);
},
{
closed = 1;
nodes = (
(827,905,o),
(817,905,q),
(769,872,o),
(642,847,o),
(532,847,q),
(489,1294,ls),
(489,1299,o),
(489,1303,qs),
(489,1372,o),
(705,1372,o),
(705,1277,qs),
(705,1191,o),
(634,1127,q),
(640,1108,o),
(676,1088,o),
(705,1088,qs),
(779,1088,o),
(836,1145,q),
(851,1130,ls),
(866,1116,o),
(932,1088,o),
(997,1088,o),
(1034,1111,o),
(1038,1127,q),
(957,1188,o),
(957,1312,qs),
(957,1382,o),
(998,1478,o),
(1048,1516,q),
(1042,1539,o),
(1002,1562,o),
(969,1562,qs),
(871,1562,o),
(799,1466,q),
(760,1513,o),
(625,1562,o),
(562,1562,qs),
(444,1562,o),
(350,1447,q),
(329,1476,ls),
(308,1504,o),
(215,1562,o),
(135,1562,o),
(114,1556,qs),
(58,1539,o),
(58,1503,q),
(126,1438,o),
(179,1285,o),
(179,940,o),
(141,859,qs),
(125,825,o),
(92,787,o),
(70,767,o),
(70,749,o),
(81,740,qs),
(179,655,o),
(179,399,qs),
(179,315,ls),
(179,289,o),
(176,206,o),
(170,171,o),
(158,115,o),
(141,88,o),
(107,39,o),
(59,10,q),
(63,-5,ls),
(67,-20,o),
(119,-50,o),
(197,-50,o),
(228,-38,qs),
(311,-5,o),
(352,64,q),
(367,44,o),
(393,20,qs),
(406,8,o),
(442,-17,o),
(483,-37,o),
(536,-50,o),
(627,-50,o),
(761,-2,o),
(800,45,q),
(871,-50,o),
(970,-50,qs),
(991,-50,o),
(1007,-45,qs),
(1049,-32,o),
(1049,-6,q),
(958,70,o),
(958,355,o),
(1039,419,q),
(1033,439,o),
(998,459,o),
(969,459,qs),
(895,459,o),
(837,401,q),
(822,416,ls),
(779,459,o),
(694,459,qs),
(645,459,o),
(635,419,q),
(706,350,o),
(706,261,qs),
(706,207,o),
(653,134,o),
(560,134,o),
(528,147,qs),
(488,164,o),
(488,230,q),
(532,669,l),
(727,669,o),
(817,610,q),
(824,612,ls),
(844,618,o),
(844,667,qs),
(844,694,o),
(811,732,qs),
(793,753,o),
(774,759,q),
(844,801,o),
(844,855,qs),
(844,876,o)
);
}
);
};
layerId = m01;
shapes = (
{
ref = E;
},
{
pos = (137,273);
ref = dieresiscomb;
}
);
width = 1082;
}
);
note = Edieresis;
unicode = 203;
},
{
glyphname = Edotaccent;
kernLeft = H;
kernRight = E;
lastChange = "2023-11-17 14:42:02 +0000";
layers = (
{
background = {
shapes = (
{
closed = 1;
nodes = (
(607,1688,o),
(678,1761,o),
(678,1863,o),
(607,1936,o),
(501,1936,o),
(430,1863,o),
(430,1761,o),
(501,1688,o)
);
},
{
closed = 1;
nodes = (
(827,905,o),
(817,905,q),
(769,872,o),
(642,847,o),
(532,847,q),
(489,1294,ls),
(489,1299,o),
(489,1303,qs),
(489,1372,o),
(705,1372,o),
(705,1277,qs),
(705,1191,o),
(634,1127,q),
(640,1108,o),
(676,1088,o),
(705,1088,qs),
(779,1088,o),
(836,1145,q),
(851,1130,ls),
(866,1116,o),
(932,1088,o),
(997,1088,o),
(1034,1111,o),
(1038,1127,q),
(957,1188,o),
(957,1312,qs),
(957,1382,o),
(998,1478,o),
(1048,1516,q),
(1042,1539,o),
(1002,1562,o),
(969,1562,qs),
(871,1562,o),
(799,1466,q),
(760,1513,o),
(625,1562,o),
(562,1562,qs),
(444,1562,o),
(350,1447,q),
(329,1476,ls),
(308,1504,o),
(215,1562,o),
(135,1562,o),
(114,1556,qs),
(58,1539,o),
(58,1503,q),
(126,1438,o),
(179,1285,o),
(179,940,o),
(141,859,qs),
(125,825,o),
(92,787,o),
(70,767,o),
(70,749,o),
(81,740,qs),
(179,655,o),
(179,399,qs),
(179,315,ls),
(179,289,o),
(176,206,o),
(170,171,o),
(158,115,o),
(141,88,o),
(107,39,o),
(59,10,q),
(63,-5,ls),
(67,-20,o),
(119,-50,o),
(197,-50,o),
(228,-38,qs),
(311,-5,o),
(352,64,q),
(367,44,o),
(393,20,qs),
(406,8,o),
(442,-17,o),
(483,-37,o),
(536,-50,o),
(627,-50,o),
(761,-2,o),
(800,45,q),
(871,-50,o),
(970,-50,qs),
(991,-50,o),
(1007,-45,qs),
(1049,-32,o),
(1049,-6,q),
(958,70,o),
(958,355,o),
(1039,419,q),
(1033,439,o),
(998,459,o),
(969,459,qs),
(895,459,o),
(837,401,q),
(822,416,ls),
(779,459,o),
(694,459,qs),
(645,459,o),
(635,419,q),
(706,350,o),
(706,261,qs),
(706,207,o),
(653,134,o),
(560,134,o),
(528,147,qs),
(488,164,o),
(488,230,q),
(532,669,l),
(727,669,o),
(817,610,q),
(824,612,ls),
(844,618,o),
(844,667,qs),
(844,694,o),
(811,732,qs),
(793,753,o),
(774,759,q),
(844,801,o),
(844,855,qs),
(844,876,o)
);
}
);
};
layerId = m01;
shapes = (
{
ref = E;
},
{
pos = (335,270);
ref = dotaccentcomb;
}
);
width = 1082;
}
);
note = Edotaccent;
unicode = 278;
},
{
glyphname = Egrave;
kernLeft = H;
kernRight = E;
lastChange = "2023-11-17 14:42:02 +0000";
layers = (
{
background = {
shapes = (
{
closed = 1;
nodes = (
(233,1900,qs),
(491,1688,l),
(616,1688,l),
(466,1914,l),
(446,1960,l),
(439,1964,o),
(373,2004,o),
(311,2036,o),
(262,2036,qs),
(197,2036,o),
(162,1994,q),
(175,1945,o)
);
},
{
closed = 1;
nodes = (
(827,905,o),
(817,905,q),
(769,872,o),
(642,847,o),
(532,847,q),
(489,1294,ls),
(489,1299,o),
(489,1303,qs),
(489,1372,o),
(705,1372,o),
(705,1277,qs),
(705,1191,o),
(634,1127,q),
(640,1108,o),
(676,1088,o),
(705,1088,qs),
(779,1088,o),
(836,1145,q),
(851,1130,ls),
(866,1116,o),
(932,1088,o),
(997,1088,o),
(1034,1111,o),
(1038,1127,q),
(957,1188,o),
(957,1312,qs),
(957,1382,o),
(998,1478,o),
(1048,1516,q),
(1042,1539,o),
(1002,1562,o),
(969,1562,qs),
(871,1562,o),
(799,1466,q),
(760,1513,o),
(625,1562,o),
(562,1562,qs),
(444,1562,o),
(350,1447,q),
(329,1476,ls),
(308,1504,o),
(215,1562,o),
(135,1562,o),
(114,1556,qs),
(58,1539,o),
(58,1503,q),
(126,1438,o),
(179,1285,o),
(179,940,o),
(141,859,qs),
(125,825,o),
(92,787,o),
(70,767,o),
(70,749,o),
(81,740,qs),
(179,655,o),
(179,399,qs),
(179,315,ls),
(179,289,o),
(176,206,o),
(170,171,o),
(158,115,o),
(141,88,o),
(107,39,o),
(59,10,q),
(63,-5,ls),
(67,-20,o),
(119,-50,o),
(197,-50,o),
(228,-38,qs),
(311,-5,o),
(352,64,q),
(367,44,o),
(393,20,qs),
(406,8,o),
(442,-17,o),
(483,-37,o),
(536,-50,o),
(627,-50,o),
(761,-2,o),
(800,45,q),
(871,-50,o),
(970,-50,qs),
(991,-50,o),
(1007,-45,qs),
(1049,-32,o),
(1049,-6,q),
(958,70,o),
(958,355,o),
(1039,419,q),
(1033,439,o),
(998,459,o),
(969,459,qs),
(895,459,o),
(837,401,q),
(822,416,ls),
(779,459,o),
(694,459,qs),
(645,459,o),
(635,419,q),
(706,350,o),
(706,261,qs),
(706,207,o),
(653,134,o),
(560,134,o),
(528,147,qs),
(488,164,o),
(488,230,q),
(532,669,l),
(727,669,o),
(817,610,q),
(824,612,ls),
(844,618,o),
(844,667,qs),
(844,694,o),
(811,732,qs),
(793,753,o),
(774,759,q),
(844,801,o),
(844,855,qs),
(844,876,o)
);
}
);
};
layerId = m01;
shapes = (
{
ref = E;
},
{
pos = (74,273);
ref = gravecomb;
}
);
width = 1082;
}
);
note = Egrave;
unicode = 200;
},
{
glyphname = Einvertedbreve;
kernLeft = H;
kernRight = E;
lastChange = "2023-11-17 14:42:02 +0000";
layers = (
{
background = {
shapes = (
{
closed = 1;
nodes = (
(470,1850,o),
(548,1850,qs),
(718,1850,o),
(745,1688,q),
(862,1688,l),
(852,1831,o),
(687,1997,o),
(412,1997,o),
(250,1825,o),
(244,1688,q),
(360,1688,l),
(371,1765,o)
);
},
{
closed = 1;
nodes = (
(827,905,o),
(817,905,q),
(769,872,o),
(642,847,o),
(532,847,q),
(489,1294,ls),
(489,1299,o),
(489,1303,qs),
(489,1372,o),
(705,1372,o),
(705,1277,qs),
(705,1191,o),
(634,1127,q),
(640,1108,o),
(676,1088,o),
(705,1088,qs),
(779,1088,o),
(836,1145,q),
(851,1130,ls),
(866,1116,o),
(932,1088,o),
(997,1088,o),
(1034,1111,o),
(1038,1127,q),
(957,1188,o),
(957,1312,qs),
(957,1382,o),
(998,1478,o),
(1048,1516,q),
(1042,1539,o),
(1002,1562,o),
(969,1562,qs),
(871,1562,o),
(799,1466,q),
(760,1513,o),
(625,1562,o),
(562,1562,qs),
(444,1562,o),
(350,1447,q),
(329,1476,ls),
(308,1504,o),
(215,1562,o),
(135,1562,o),
(114,1556,qs),
(58,1539,o),
(58,1503,q),
(126,1438,o),
(179,1285,o),
(179,940,o),
(141,859,qs),
(125,825,o),
(92,787,o),
(70,767,o),
(70,749,o),
(81,740,qs),
(179,655,o),
(179,399,qs),
(179,315,ls),
(179,289,o),
(176,206,o),
(170,171,o),
(158,115,o),
(141,88,o),
(107,39,o),
(59,10,q),
(63,-5,ls),
(67,-20,o),
(119,-50,o),
(197,-50,o),
(228,-38,qs),
(311,-5,o),
(352,64,q),
(367,44,o),
(393,20,qs),
(406,8,o),
(442,-17,o),
(483,-37,o),
(536,-50,o),
(627,-50,o),
(761,-2,o),
(800,45,q),
(871,-50,o),
(970,-50,qs),
(991,-50,o),
(1007,-45,qs),
(1049,-32,o),
(1049,-6,q),
(958,70,o),
(958,355,o),
(1039,419,q),
(1033,439,o),
(998,459,o),
(969,459,qs),
(895,459,o),
(837,401,q),
(822,416,ls),
(779,459,o),
(694,459,qs),
(645,459,o),
(635,419,q),
(706,350,o),
(706,261,qs),
(706,207,o),
(653,134,o),
(560,134,o),
(528,147,qs),
(488,164,o),
(488,230,q),
(532,669,l),
(727,669,o),
(817,610,q),
(824,612,ls),
(844,618,o),
(844,667,qs),
(844,694,o),
(811,732,qs),
(793,753,o),
(774,759,q),
(844,801,o),
(844,855,qs),
(844,876,o)
);
}
);
};
layerId = m01;
shapes = (
{
ref = E;
},
{
pos = (154,273);
ref = breveinvertedcomb;
}
);
width = 1082;
}
);
note = uni0206;
unicode = 518;
},
{
glyphname = Emacron;
kernLeft = H;
kernRight = E;
lastChange = "2023-11-17 14:42:02 +0000";
layers = (
{
background = {
shapes = (
{
closed = 1;
nodes = (
(238,1815,l),
(238,1688,l),
(869,1688,l),
(869,1815,l)
);
},
{
closed = 1;
nodes = (
(827,905,o),
(817,905,q),
(769,872,o),
(642,847,o),
(532,847,q),
(489,1294,ls),
(489,1299,o),
(489,1303,qs),
(489,1372,o),
(705,1372,o),
(705,1277,qs),
(705,1191,o),
(634,1127,q),
(640,1108,o),
(676,1088,o),
(705,1088,qs),
(779,1088,o),
(836,1145,q),
(851,1130,ls),
(866,1116,o),
(932,1088,o),
(997,1088,o),
(1034,1111,o),
(1038,1127,q),
(957,1188,o),
(957,1312,qs),
(957,1382,o),
(998,1478,o),
(1048,1516,q),
(1042,1539,o),
(1002,1562,o),
(969,1562,qs),
(871,1562,o),
(799,1466,q),
(760,1513,o),
(625,1562,o),
(562,1562,qs),
(444,1562,o),
(350,1447,q),
(329,1476,ls),
(308,1504,o),
(215,1562,o),
(135,1562,o),
(114,1556,qs),
(58,1539,o),
(58,1503,q),
(126,1438,o),
(179,1285,o),
(179,940,o),
(141,859,qs),
(125,825,o),
(92,787,o),
(70,767,o),
(70,749,o),
(81,740,qs),
(179,655,o),
(179,399,qs),
(179,315,ls),
(179,289,o),
(176,206,o),
(170,171,o),
(158,115,o),
(141,88,o),
(107,39,o),
(59,10,q),
(63,-5,ls),
(67,-20,o),
(119,-50,o),
(197,-50,o),
(228,-38,qs),
(311,-5,o),
(352,64,q),
(367,44,o),
(393,20,qs),
(406,8,o),
(442,-17,o),
(483,-37,o),
(536,-50,o),
(627,-50,o),
(761,-2,o),
(800,45,q),
(871,-50,o),
(970,-50,qs),
(991,-50,o),
(1007,-45,qs),
(1049,-32,o),
(1049,-6,q),
(958,70,o),
(958,355,o),
(1039,419,q),
(1033,439,o),
(998,459,o),
(969,459,qs),
(895,459,o),
(837,401,q),
(822,416,ls),
(779,459,o),
(694,459,qs),
(645,459,o),
(635,419,q),
(706,350,o),
(706,261,qs),
(706,207,o),
(653,134,o),
(560,134,o),
(528,147,qs),
(488,164,o),
(488,230,q),
(532,669,l),
(727,669,o),
(817,610,q),
(824,612,ls),
(844,618,o),
(844,667,qs),
(844,694,o),
(811,732,qs),
(793,753,o),
(774,759,q),
(844,801,o),
(844,855,qs),
(844,876,o)
);
}
);
};
layerId = m01;
shapes = (
{
ref = E;
},
{
pos = (137,273);
ref = macroncomb;
}
);
width = 1082;
}
);
note = Emacron;
unicode = 274;
},
{
glyphname = Eogonek;
kernLeft = H;
kernRight = E;
lastChange = "2023-11-17 14:42:02 +0000";
layers = (
{
background = {
shapes = (
{
closed = 1;
nodes = (
(466,-136,o),
(424,-176,o),
(351,-259,o),
(351,-316,qs),
(351,-402,o),
(484,-494,o),
(682,-494,o),
(767,-453,q),
(751,-346,l),
(700,-372,o),
(640,-372,qs),
(542,-372,o),
(542,-282,qs),
(542,-227,o),
(616,-122,o),
(687,-60,q),
(554,-60,l),
(538,-75,o)
);
},
{
closed = 1;
nodes = (
(827,905,o),
(817,905,q),
(769,872,o),
(642,847,o),
(532,847,q),
(489,1294,ls),
(489,1299,o),
(489,1303,qs),
(489,1372,o),
(705,1372,o),
(705,1277,qs),
(705,1191,o),
(634,1127,q),
(640,1108,o),
(676,1088,o),
(705,1088,qs),
(779,1088,o),
(836,1145,q),
(851,1130,ls),
(866,1116,o),
(932,1088,o),
(997,1088,o),
(1034,1111,o),
(1038,1127,q),
(957,1188,o),
(957,1312,qs),
(957,1382,o),
(998,1478,o),
(1048,1516,q),
(1042,1539,o),
(1002,1562,o),
(969,1562,qs),
(871,1562,o),
(799,1466,q),
(760,1513,o),
(625,1562,o),
(562,1562,qs),
(444,1562,o),
(350,1447,q),
(329,1476,ls),
(308,1504,o),
(215,1562,o),
(135,1562,o),
(114,1556,qs),
(58,1539,o),
(58,1503,q),
(126,1438,o),
(179,1285,o),
(179,940,o),
(141,859,qs),
(125,825,o),
(92,787,o),
(70,767,o),
(70,749,o),
(81,740,qs),
(179,655,o),
(179,399,qs),
(179,315,ls),
(179,289,o),
(176,206,o),
(170,171,o),
(158,115,o),
(141,88,o),
(107,39,o),
(59,10,q),
(63,-5,ls),
(67,-20,o),
(119,-50,o),
(197,-50,o),
(228,-38,qs),
(311,-5,o),
(352,64,q),
(367,44,o),
(393,20,qs),
(406,8,o),
(442,-17,o),
(483,-37,o),
(536,-50,o),
(627,-50,o),
(761,-2,o),
(800,45,q),
(871,-50,o),
(970,-50,qs),
(991,-50,o),
(1007,-45,qs),
(1049,-32,o),
(1049,-6,q),
(958,70,o),
(958,355,o),
(1039,419,q),
(1033,439,o),
(998,459,o),
(969,459,qs),
(895,459,o),
(837,401,q),
(822,416,ls),
(779,459,o),
(694,459,qs),
(645,459,o),
(635,419,q),
(706,350,o),
(706,261,qs),
(706,207,o),
(653,134,o),
(560,134,o),
(528,147,qs),
(488,164,o),
(488,230,q),
(532,669,l),
(727,669,o),
(817,610,q),
(824,612,ls),
(844,618,o),
(844,667,qs),
(844,694,o),
(811,732,qs),
(793,753,o),
(774,759,q),
(844,801,o),
(844,855,qs),
(844,876,o)
);
}
);
};
layerId = m01;
shapes = (
{
ref = E;
},
{
pos = (595,10);
ref = ogonekcomb;
}
);
width = 1082;
}
);
note = Eogonek;
unicode = 280;
},
{
glyphname = F;
kernLeft = H;
kernRight = F;
lastChange = "2023-11-17 14:42:02 +0000";
layers = (
{
anchors = (
{
name = bottom;
pos = (488,0);
},
{
name = top;
pos = (488,1562);
}
);
background = {
shapes = (
{
closed = 1;
nodes = (
(786,764,o),
(822,816,o),
(822,865,o),
(805,894,o),
(795,894,q),
(706,833,o),
(521,833,q),
(488,1287,ls),
(488,1292,o),
(488,1296,qs),
(488,1371,o),
(575,1371,qs),
(620,1371,o),
(660,1308,o),
(660,1266,qs),
(660,1191,o),
(590,1127,q),
(596,1108,o),
(631,1088,o),
(693,1088,o),
(761,1123,o),
(780,1145,q),
(835,1088,o),
(901,1088,qs),
(930,1088,o),
(968,1111,o),
(972,1127,q),
(890,1189,o),
(890,1312,qs),
(890,1382,o),
(931,1480,o),
(982,1518,q),
(978,1534,o),
(963,1546,qs),
(955,1553,o),
(923,1562,o),
(851,1562,o),
(804,1528,qs),
(787,1516,o),
(749,1475,o),
(744,1466,q),
(709,1513,o),
(594,1562,o),
(539,1562,qs),
(440,1562,o),
(361,1457,q),
(333,1493,o),
(286,1525,qs),
(263,1540,o),
(196,1562,o),
(134,1562,o),
(112,1556,qs),
(57,1539,o),
(57,1503,q),
(125,1438,o),
(178,1285,o),
(178,940,o),
(140,859,qs),
(124,825,o),
(91,787,o),
(69,767,o),
(69,748,o),
(80,738,qs),
(178,654,o),
(178,385,qs),
(178,302,ls),
(178,276,o),
(175,194,o),
(169,159,o),
(157,104,o),
(140,78,o),
(107,31,o),
(58,1,q),
(68,-15,o),
(94,-32,qs),
(105,-39,o),
(141,-50,o),
(192,-50,o),
(222,-38,qs),
(297,-5,o),
(339,64,q),
(358,36,ls),
(378,7,o),
(460,-50,o),
(525,-50,o),
(594,-30,o),
(609,1,q),
(586,15,o),
(544,49,o),
(518,92,qs),
(488,138,o),
(488,302,qs),
(488,385,l),
(521,651,l),
(701,651,o),
(795,588,q),
(802,590,ls),
(822,596,o),
(822,639,qs),
(822,694,o),
(751,741,q),
(768,752,ls)
);
}
);
};
layerId = m01;
shapes = (
{
closed = 1;
nodes = (
(536,-50,o),
(589,-40,o),
(609,1,c),
(578,20,o),
(553,35,o),
(518,92,cs),
(498,123,o),
(488,193,o),
(488,302,cs),
(488,385,l),
(521,651,l),
(641,651,o),
(732,630,o),
(795,588,c),
(802,590,ls),
(815,594,o),
(822,610,o),
(822,639,cs),
(822,676,o),
(798,710,o),
(751,741,c),
(768,752,ls),
(829,793,o),
(836,894,o),
(795,894,c),
(736,853,o),
(644,833,o),
(521,833,c),
(488,1287,l),
(488,1296,ls),
(488,1346,o),
(517,1371,o),
(575,1371,cs),
(635,1371,o),
(660,1322,o),
(660,1266,cs),
(660,1216,o),
(637,1170,o),
(590,1127,c),
(609,1067,o),
(722,1078,o),
(780,1145,c),
(817,1107,o),
(857,1088,o),
(901,1088,cs),
(940,1088,o),
(967,1106,o),
(972,1127,c),
(917,1168,o),
(890,1230,o),
(890,1312,cs),
(890,1405,o),
(914,1467,o),
(982,1518,c),
(979,1529,o),
(973,1538,o),
(963,1546,cs),
(949,1558,o),
(881,1584,o),
(804,1528,cs),
(781,1512,o),
(751,1478,o),
(744,1466,c),
(697,1529,o),
(612,1562,o),
(539,1562,cs),
(473,1562,o),
(414,1527,o),
(361,1457,c),
(342,1481,o),
(317,1504,o),
(286,1525,cs),
(236,1558,o),
(165,1570,o),
(112,1556,cs),
(75,1545,o),
(57,1527,o),
(57,1503,c),
(148,1416,o),
(178,1343,o),
(178,1113,cs),
(178,998,o),
(165,913,o),
(140,859,cs),
(119,814,o),
(95,790,o),
(80,777,cs),
(65,764,o),
(65,751,o),
(80,738,cs),
(145,682,o),
(178,564,o),
(178,385,cs),
(178,302,ls),
(178,267,o),
(176,200,o),
(172,177,cs),
(163,132,ls),
(155,95,o),
(146,86,o),
(124,55,cs),
(113,39,o),
(91,21,o),
(58,1,c),
(65,-10,o),
(77,-21,o),
(94,-32,cs),
(116,-46,o),
(165,-61,o),
(222,-38,cs),
(272,-16,o),
(311,18,o),
(339,64,c),
(358,36,ls),
(385,-3,o),
(449,-50,o),
(493,-50,cs)
);
}
);
width = 975;
}
);
note = F;
unicode = 70;
},
{
glyphname = G;
kernLeft = O;
kernRight = G;
lastChange = "2023-11-17 14:42:02 +0000";
layers = (
{
anchors = (
{
name = bottom;
pos = (560,0);
},
{
name = top;
pos = (560,1562);
}
);
background = {
shapes = (
{
closed = 1;
nodes = (
(109,853,qs),
(93,821,o),
(61,785,o),
(39,766,o),
(39,748,o),
(50,738,qs),
(147,655,o),
(147,386,qs),
(147,138,o),
(349,-94,o),
(724,-94,o),
(832,56,q),
(860,6,o),
(948,-50,o),
(1039,-50,o),
(1115,-8,o),
(1115,26,q),
(1043,87,o),
(988,218,o),
(988,438,o),
(1020,532,o),
(1069,573,q),
(1063,595,o),
(1024,617,o),
(946,617,o),
(854,579,o),
(825,553,q),
(808,569,ls),
(790,585,o),
(715,617,o),
(653,617,o),
(637,612,qs),
(595,599,o),
(595,573,q),
(650,528,o),
(686,428,o),
(686,258,o),
(678,211,qs),
(671,175,o),
(649,130,o),
(604,96,o),
(536,96,o),
(518,110,qs),
(507,117,o),
(491,132,o),
(479,162,o),
(460,211,o),
(460,340,qs),
(460,395,ls),
(460,583,o),
(498,664,qs),
(514,698,o),
(547,738,o),
(569,757,o),
(569,774,o),
(545,799,o),
(512,842,o),
(478,914,o),
(454,1057,o),
(454,1260,o),
(477,1319,qs),
(491,1355,o),
(552,1392,o),
(633,1392,o),
(656,1380,qs),
(708,1351,o),
(708,1228,qs),
(708,1151,o),
(627,1008,qs),
(600,961,o),
(600,946,o),
(603,938,qs),
(605,931,o),
(613,920,o),
(630,907,o),
(652,897,o),
(688,891,o),
(744,891,o),
(810,935,o),
(831,961,o),
(837,971,o),
(842,965,o),
(851,954,o),
(865,940,o),
(884,924,o),
(906,908,o),
(933,893,o),
(962,882,o),
(998,875,o),
(1038,875,o),
(1071,895,o),
(1074,907,q),
(996,1003,o),
(996,1235,qs),
(996,1399,o),
(902,1485,qs),
(791,1586,o),
(604,1586,qs),
(147,1586,o),
(147,1126,qs),
(147,929,o)
);
}
);
};
layerId = m01;
shapes = (
{
closed = 1;
nodes = (
(662,-94,o),
(760,-44,o),
(832,56,c),
(921,-102,o),
(1115,-56,o),
(1115,26,c),
(1019,107,o),
(988,181,o),
(988,328,cs),
(988,475,o),
(1004,518,o),
(1069,573,c),
(1061,602,o),
(1037,617,o),
(985,617,cs),
(933,617,o),
(864,588,o),
(825,553,c),
(808,569,ls),
(767,605,o),
(688,628,o),
(637,612,cs),
(609,603,o),
(595,590,o),
(595,573,c),
(668,513,o),
(686,456,o),
(686,343,cs),
(686,286,o),
(683,242,o),
(678,211,cs),
(669,163,o),
(657,136,o),
(627,113,cs),
(595,90,o),
(541,92,o),
(518,110,c),
(503,119,o),
(493,127,o),
(485,147,cs),
(470,187,ls),
(463,203,o),
(460,254,o),
(460,340,cs),
(460,395,ls),
(460,520,o),
(473,610,o),
(498,664,cs),
(519,709,o),
(543,735,o),
(558,748,cs),
(565,754,o),
(569,760,o),
(569,766,cs),
(569,781,o),
(528,809,o),
(495,878,cs),
(472,926,o),
(454,1023,o),
(454,1159,cs),
(454,1226,o),
(462,1280,o),
(477,1319,cs),
(510,1404,o),
(615,1402,o),
(656,1380,cs),
(691,1361,o),
(708,1310,o),
(708,1228,cs),
(708,1177,o),
(681,1103,o),
(627,1008,cs),
(609,977,o),
(600,959,o),
(600,954,cs),
(600,949,o),
(601,943,o),
(603,938,cs),
(607,925,o),
(617,913,o),
(641,902,cs),
(656,895,o),
(679,891,o),
(716,891,cs),
(753,891,o),
(807,931,o),
(821,948,cs),
(834,966,ls),
(836,969,o),
(838,970,o),
(840,968,cs),
(847,960,ls),
(855,949,o),
(871,933,o),
(895,916,cs),
(910,905,o),
(928,895,o),
(948,888,cs),
(967,880,o),
(991,875,o),
(1018,875,cs),
(1045,875,o),
(1070,891,o),
(1074,907,c),
(1022,971,o),
(996,1080,o),
(996,1235,cs),
(996,1344,o),
(965,1428,o),
(902,1485,cs),
(828,1552,o),
(729,1586,o),
(604,1586,cs),
(299,1586,o),
(147,1433,o),
(147,1126,cs),
(147,995,o),
(134,904,o),
(109,853,cs),
(88,810,o),
(65,788,o),
(50,776,cs),
(35,763,o),
(36,751,o),
(50,738,cs),
(115,683,o),
(147,565,o),
(147,386,cs),
(147,55,o),
(287,-94,o),
(537,-94,cs)
);
}
);
width = 1119;
}
);
note = G;
unicode = 71;
},
{
glyphname = Gbreve;
kernLeft = O;
kernRight = G;
lastChange = "2023-11-17 14:42:02 +0000";
layers = (
{
background = {
shapes = (
{
closed = 1;
nodes = (
(436,1688,o),
(711,1688,o),
(876,1854,o),
(886,1997,q),
(769,1997,l),
(742,1835,o),
(572,1835,qs),
(494,1835,o),
(395,1920,o),
(384,1997,q),
(268,1997,l),
(274,1860,o)
);
},
{
closed = 1;
nodes = (
(109,853,qs),
(93,821,o),
(61,785,o),
(39,766,o),
(39,748,o),
(50,738,qs),
(147,655,o),
(147,386,qs),
(147,138,o),
(349,-94,o),
(724,-94,o),
(832,56,q),
(860,6,o),
(948,-50,o),
(1039,-50,o),
(1115,-8,o),
(1115,26,q),
(1043,87,o),
(988,218,o),
(988,438,o),
(1020,532,o),
(1069,573,q),
(1063,595,o),
(1024,617,o),
(946,617,o),
(854,579,o),
(825,553,q),
(808,569,ls),
(790,585,o),
(715,617,o),
(653,617,o),
(637,612,qs),
(595,599,o),
(595,573,q),
(650,528,o),
(686,428,o),
(686,258,o),
(678,211,qs),
(671,175,o),
(649,130,o),
(604,96,o),
(536,96,o),
(518,110,qs),
(507,117,o),
(491,132,o),
(479,162,o),
(460,211,o),
(460,340,qs),
(460,395,ls),
(460,583,o),
(498,664,qs),
(514,698,o),
(547,738,o),
(569,757,o),
(569,774,o),
(545,799,o),
(512,842,o),
(478,914,o),
(454,1057,o),
(454,1260,o),
(477,1319,qs),
(491,1355,o),
(552,1392,o),
(633,1392,o),
(656,1380,qs),
(708,1351,o),
(708,1228,qs),
(708,1151,o),
(627,1008,qs),
(600,961,o),
(600,946,o),
(603,938,qs),
(605,931,o),
(613,920,o),
(630,907,o),
(652,897,o),
(688,891,o),
(744,891,o),
(810,935,o),
(831,961,o),
(837,971,o),
(842,965,o),
(851,954,o),
(865,940,o),
(884,924,o),
(906,908,o),
(933,893,o),
(962,882,o),
(998,875,o),
(1038,875,o),
(1071,895,o),
(1074,907,q),
(996,1003,o),
(996,1235,qs),
(996,1399,o),
(902,1485,qs),
(791,1586,o),
(604,1586,qs),
(147,1586,o),
(147,1126,qs),
(147,929,o)
);
}
);
};
layerId = m01;
shapes = (
{
ref = G;
},
{
pos = (176,272);
ref = brevecomb;
}
);
width = 1119;
}
);
note = Gbreve;
unicode = 286;
},
{
glyphname = Gcommaaccent;
kernLeft = O;
kernRight = G;
lastChange = "2023-11-17 14:42:02 +0000";
layers = (
{
background = {
shapes = (
{
closed = 1;
nodes = (
(727,-567,o),
(727,-331,o),
(700,-231,q),
(635,-196,o),
(519,-196,o),
(444,-239,o),
(428,-272,q),
(428,-376,o),
(490,-458,q),
(562,-458,o),
(598,-442,q),
(600,-442,l),
(600,-530,o),
(519,-624,o),
(438,-644,q),
(438,-738,l),
(572,-726,o)
);
},
{
closed = 1;
nodes = (
(109,853,qs),
(93,821,o),
(61,785,o),
(39,766,o),
(39,748,o),
(50,738,qs),
(147,655,o),
(147,386,qs),
(147,138,o),
(349,-94,o),
(724,-94,o),
(832,56,q),
(860,6,o),
(948,-50,o),
(1039,-50,o),
(1115,-8,o),
(1115,26,q),
(1043,87,o),
(988,218,o),
(988,438,o),
(1020,532,o),
(1069,573,q),
(1063,595,o),
(1024,617,o),
(946,617,o),
(854,579,o),
(825,553,q),
(808,569,ls),
(790,585,o),
(715,617,o),
(653,617,o),
(637,612,qs),
(595,599,o),
(595,573,q),
(650,528,o),
(686,428,o),
(686,258,o),
(678,211,qs),
(671,175,o),
(649,130,o),
(604,96,o),
(536,96,o),
(518,110,qs),
(507,117,o),
(491,132,o),
(479,162,o),
(460,211,o),
(460,340,qs),
(460,395,ls),
(460,583,o),
(498,664,qs),
(514,698,o),
(547,738,o),
(569,757,o),
(569,774,o),
(545,799,o),
(512,842,o),
(478,914,o),
(454,1057,o),
(454,1260,o),
(477,1319,qs),
(491,1355,o),
(552,1392,o),
(633,1392,o),
(656,1380,qs),
(708,1351,o),
(708,1228,qs),
(708,1151,o),
(627,1008,qs),
(600,961,o),
(600,946,o),
(603,938,qs),
(605,931,o),
(613,920,o),
(630,907,o),
(652,897,o),
(688,891,o),
(744,891,o),
(810,935,o),
(831,961,o),
(837,971,o),
(842,965,o),
(851,954,o),
(865,940,o),
(884,924,o),
(906,908,o),
(933,893,o),
(962,882,o),
(998,875,o),
(1038,875,o),
(1071,895,o),
(1074,907,q),
(996,1003,o),
(996,1235,qs),
(996,1399,o),
(902,1485,qs),
(791,1586,o),
(604,1586,qs),
(147,1586,o),
(147,1126,qs),
(147,929,o)
);
}
);
};
layerId = m01;
shapes = (
{
ref = G;
},
{
pos = (340,0);
ref = commaaccentcomb;
}
);
width = 1119;
}
);
note = Gcommaaccent;
unicode = (290,291);
},
{
glyphname = Gdotaccent;
kernLeft = O;
kernRight = G;
lastChange = "2023-11-17 14:42:02 +0000";
layers = (
{
background = {
shapes = (
{
closed = 1;
nodes = (
(630,1688,o),
(701,1761,o),
(701,1863,o),
(630,1936,o),
(524,1936,o),
(453,1863,o),
(453,1761,o),
(524,1688,o)
);
},
{
closed = 1;
nodes = (
(109,853,qs),
(93,821,o),
(61,785,o),
(39,766,o),
(39,748,o),
(50,738,qs),
(147,655,o),
(147,386,qs),
(147,138,o),
(349,-94,o),
(724,-94,o),
(832,56,q),
(860,6,o),
(948,-50,o),
(1039,-50,o),
(1115,-8,o),
(1115,26,q),
(1043,87,o),
(988,218,o),
(988,438,o),
(1020,532,o),
(1069,573,q),
(1063,595,o),
(1024,617,o),
(946,617,o),
(854,579,o),
(825,553,q),
(808,569,ls),
(790,585,o),
(715,617,o),
(653,617,o),
(637,612,qs),
(595,599,o),
(595,573,q),
(650,528,o),
(686,428,o),
(686,258,o),
(678,211,qs),
(671,175,o),
(649,130,o),
(604,96,o),
(536,96,o),
(518,110,qs),
(507,117,o),
(491,132,o),
(479,162,o),
(460,211,o),
(460,340,qs),
(460,395,ls),
(460,583,o),
(498,664,qs),
(514,698,o),
(547,738,o),
(569,757,o),
(569,774,o),
(545,799,o),
(512,842,o),
(478,914,o),
(454,1057,o),
(454,1260,o),
(477,1319,qs),
(491,1355,o),
(552,1392,o),
(633,1392,o),
(656,1380,qs),
(708,1351,o),
(708,1228,qs),
(708,1151,o),
(627,1008,qs),
(600,961,o),
(600,946,o),
(603,938,qs),
(605,931,o),
(613,920,o),
(630,907,o),
(652,897,o),
(688,891,o),
(744,891,o),
(810,935,o),
(831,961,o),
(837,971,o),
(842,965,o),
(851,954,o),
(865,940,o),
(884,924,o),
(906,908,o),
(933,893,o),
(962,882,o),
(998,875,o),
(1038,875,o),
(1071,895,o),
(1074,907,q),
(996,1003,o),
(996,1235,qs),
(996,1399,o),
(902,1485,qs),
(791,1586,o),
(604,1586,qs),
(147,1586,o),
(147,1126,qs),
(147,929,o)
);
}
);
};
layerId = m01;
shapes = (
{
ref = G;
},
{
pos = (354,270);
ref = dotaccentcomb;
}
);
width = 1119;
}
);
note = Gdotaccent;
unicode = 288;
},
{
glyphname = H;
kernLeft = H;
kernRight = H;
lastChange = "2023-11-17 14:52:37 +0000";
layers = (
{
anchors = (
{
name = bottom;
pos = (661,0);
},
{
name = center;
pos = (661,781);
},
{
name = top;
pos = (661,1562);
},
{
name = topleft;
pos = (20,1562);
}
);
background = {
shapes = (
{
closed = 1;
nodes = (
(757,1556,qs),
(700,1538,o),
(700,1503,q),
(768,1438,o),
(821,1285,o),
(821,1148,qs),
(821,1124,ls),
(821,1034,o),
(817,983,qs),
(814,948,o),
(800,914,o),
(777,875,o),
(741,858,o),
(689,847,o),
(603,847,o),
(577,857,qs),
(562,863,o),
(534,878,o),
(515,911,qs),
(493,948,o),
(493,1117,qs),
(493,1148,ls),
(493,1285,o),
(546,1438,o),
(614,1503,q),
(610,1518,ls),
(606,1532,o),
(554,1562,o),
(509,1562,qs),
(413,1562,o),
(334,1457,q),
(267,1562,o),
(165,1562,qs),
(136,1562,o),
(115,1556,qs),
(59,1538,o),
(59,1503,q),
(127,1438,o),
(180,1285,o),
(180,940,o),
(142,859,qs),
(126,825,o),
(93,787,o),
(71,767,o),
(71,748,o),
(93,726,o),
(126,683,o),
(158,612,o),
(180,470,o),
(180,234,o),
(127,75,o),
(59,10,q),
(64,-5,ls),
(68,-20,o),
(121,-50,o),
(222,-50,o),
(272,-10,qs),
(290,5,o),
(330,55,o),
(334,65,q),
(354,36,ls),
(373,8,o),
(460,-50,o),
(537,-50,o),
(558,-44,qs),
(614,-26,o),
(614,10,q),
(546,75,o),
(493,233,o),
(493,455,o),
(496,508,qs),
(498,544,o),
(507,580,o),
(522,627,o),
(546,649,o),
(579,671,o),
(625,679,o),
(703,679,o),
(742,665,qs),
(758,659,o),
(783,633,o),
(800,610,o),
(811,564,o),
(817,530,o),
(820,464,o),
(821,417,o),
(821,234,o),
(768,75,o),
(700,10,q),
(704,-5,ls),
(709,-20,o),
(762,-50,o),
(837,-50,o),
(866,-38,qs),
(938,-7,o),
(981,65,q),
(1000,36,ls),
(1018,8,o),
(1103,-50,o),
(1180,-50,o),
(1202,-44,qs),
(1257,-27,o),
(1257,10,q),
(1189,75,o),
(1136,234,o),
(1136,563,o),
(1174,648,qs),
(1190,683,o),
(1223,726,o),
(1245,748,o),
(1245,767,o),
(1223,787,o),
(1190,825,o),
(1158,893,o),
(1136,1042,o),
(1136,1285,o),
(1189,1438,o),
(1257,1503,q),
(1253,1518,ls),
(1249,1532,o),
(1197,1562,o),
(1095,1562,o),
(1044,1526,qs),
(1026,1512,o),
(986,1467,o),
(981,1457,q),
(909,1562,o),
(806,1562,qs),
(778,1562,o)
);
}
);
};
layerId = m01;
shapes = (
{
closed = 1;
nodes = (
(205,-50,o),
(239,-37,o),
(272,-10,cs),
(296,10,o),
(329,52,o),
(334,65,c),
(354,36,ls),
(379,-1,o),
(447,-50,o),
(499,-50,cs),
(524,-50,o),
(544,-48,o),
(558,-44,cs),
(595,-32,o),
(614,-14,o),
(614,10,c),
(523,97,o),
(493,196,o),
(493,344,cs),
(493,418,o),
(494,473,o),
(496,508,cs),
(501,591,o),
(516,629,o),
(563,660,cs),
(595,682,o),
(676,689,o),
(742,665,cs),
(762,658,o),
(795,632,o),
(806,587,cs),
(813,556,o),
(817,541,o),
(819,497,cs),
(821,441,l),
(821,326,ls),
(821,204,o),
(791,97,o),
(700,10,c),
(704,-5,ls),
(711,-25,o),
(750,-50,o),
(800,-50,cs),
(825,-50,o),
(847,-46,o),
(866,-38,cs),
(914,-17,o),
(952,17,o),
(981,65,c),
(1000,36,ls),
(1024,-1,o),
(1090,-50,o),
(1142,-50,cs),
(1167,-50,o),
(1187,-48,o),
(1202,-44,cs),
(1239,-33,o),
(1257,-15,o),
(1257,10,c),
(1166,97,o),
(1136,179,o),
(1136,399,cs),
(1136,508,o),
(1149,591,o),
(1174,648,cs),
(1195,695,o),
(1219,722,o),
(1234,737,cs),
(1241,744,o),
(1245,751,o),
(1245,758,cs),
(1245,799,o),
(1170,813,o),
(1147,968,cs),
(1132,1071,o),
(1126,1257,o),
(1163,1362,cs),
(1180,1413,o),
(1212,1460,o),
(1257,1503,c),
(1253,1518,ls),
(1247,1538,o),
(1210,1562,o),
(1146,1562,cs),
(1112,1562,o),
(1078,1550,o),
(1044,1526,cs),
(1020,1507,o),
(988,1470,o),
(981,1457,c),
(933,1527,o),
(875,1562,o),
(806,1562,cs),
(787,1562,o),
(771,1560,o),
(757,1556,cs),
(719,1544,o),
(700,1526,o),
(700,1503,c),
(791,1416,o),
(821,1331,o),
(821,1148,cs),
(821,1124,ls),
(821,1064,o),
(820,1017,o),
(817,983,cs),
(813,936,o),
(804,921,o),
(789,895,cs),
(781,882,o),
(771,872,o),
(759,867,cs),
(701,839,o),
(610,844,o),
(577,857,cs),
(557,865,o),
(540,867,o),
(515,911,cs),
(500,936,o),
(493,1004,o),
(493,1117,cs),
(493,1148,ls),
(493,1331,o),
(523,1416,o),
(614,1503,c),
(610,1518,ls),
(607,1527,o),
(597,1537,o),
(580,1547,cs),
(563,1557,o),
(539,1562,o),
(509,1562,cs),
(445,1562,o),
(387,1527,o),
(334,1457,c),
(289,1527,o),
(233,1562,o),
(165,1562,cs),
(146,1562,o),
(129,1560,o),
(115,1556,cs),
(78,1544,o),
(59,1526,o),
(59,1503,c),
(150,1416,o),
(180,1343,o),
(180,1113,cs),
(180,998,o),
(167,913,o),
(142,859,cs),
(121,814,o),
(97,790,o),
(82,777,cs),
(75,770,o),
(71,764,o),
(71,758,cs),
(71,722,o),
(148,679,o),
(169,541,cs),
(184,442,o),
(189,262,o),
(154,155,cs),
(136,102,o),
(104,53,o),
(59,10,c),
(64,-5,ls),
(70,-28,o),
(111,-50,o),
(172,-50,cs)
);
}
);
width = 1322;
}
);
note = H;
unicode = 72;
},
{
glyphname = Hbar;
kernLeft = H;
kernRight = H;
lastChange = "2023-11-17 14:42:02 +0000";
layers = (
{
layerId = m01;
shapes = (
{
pos = (4,0);
ref = H;
},
{
closed = 1;
nodes = (
(114,1067,o),
(233,1071,o),
(649,1071,cs),
(1064,1071,o),
(1191,1067,o),
(1274,1058,c),
(1294,1061,o),
(1304,1077,o),
(1304,1104,cs),
(1304,1200,ls),
(1304,1223,o),
(1297,1238,o),
(1282,1244,cs),
(1278,1245,o),
(1257,1244,o),
(1217,1240,cs),
(1127,1230,o),
(191,1229,o),
(48,1246,c),
(40,1244,ls),
(25,1240,o),
(18,1225,o),
(18,1200,cs),
(18,1104,ls),
(18,1079,o),
(34,1058,o),
(48,1058,c)
);
}
);
width = 1322;
}
);
unicode = 294;
},
{
glyphname = I;
kernLeft = H;
kernRight = H;
lastChange = "2023-11-17 14:49:56 +0000";
layers = (
{
anchors = (
{
name = bottom;
pos = (333,0);
},
{
name = ogonek;
pos = (539,10);
},
{
name = top;
pos = (333,1562);
},
{
name = topleft;
pos = (20,1562);
}
);
background = {
shapes = (
{
closed = 1;
nodes = (
(114,1556,qs),
(59,1539,o),
(59,1503,q),
(128,1436,o),
(180,1288,o),
(180,940,o),
(142,859,qs),
(126,825,o),
(93,787,o),
(71,767,o),
(71,749,o),
(93,729,o),
(126,689,o),
(158,622,o),
(180,484,o),
(180,241,o),
(128,80,o),
(59,10,q),
(62,-9,o),
(84,-29,qs),
(94,-38,o),
(136,-50,o),
(219,-50,o),
(267,-10,qs),
(285,5,o),
(325,55,o),
(329,65,q),
(348,36,ls),
(366,8,o),
(448,-50,o),
(523,-50,o),
(544,-44,qs),
(600,-26,o),
(600,10,q),
(531,80,o),
(479,241,o),
(479,577,o),
(518,656,qs),
(534,689,o),
(566,729,o),
(588,749,o),
(588,771,o),
(560,794,qs),
(548,803,o),
(519,852,o),
(495,924,o),
(479,1059,o),
(479,1288,o),
(531,1436,o),
(600,1503,q),
(596,1518,ls),
(592,1532,o),
(539,1562,o),
(439,1562,o),
(392,1526,qs),
(374,1512,o),
(341,1475,o),
(332,1461,o),
(329,1457,q),
(262,1562,o),
(164,1562,qs),
(136,1562,o)
);
}
);
};
layerId = m01;
shapes = (
{
closed = 1;
nodes = (
(205,-50,o),
(235,-37,o),
(267,-10,cs),
(291,10,o),
(324,52,o),
(329,65,c),
(348,36,ls),
(372,-1,o),
(436,-50,o),
(486,-50,cs),
(511,-50,o),
(530,-48,o),
(544,-44,cs),
(581,-32,o),
(600,-14,o),
(600,10,c),
(508,103,o),
(479,185,o),
(479,409,cs),
(479,521,o),
(492,603,o),
(518,656,cs),
(539,700,o),
(562,726,o),
(577,739,cs),
(595,756,o),
(592,768,o),
(560,794,cs),
(533,814,o),
(500,879,o),
(487,992,cs),
(476,1085,o),
(469,1260,o),
(505,1362,cs),
(522,1411,o),
(554,1458,o),
(600,1503,c),
(596,1518,ls),
(590,1539,o),
(549,1562,o),
(489,1562,cs),
(456,1562,o),
(423,1550,o),
(392,1526,cs),
(361,1502,o),
(345,1478,o),
(329,1457,c),
(284,1527,o),
(229,1562,o),
(164,1562,cs),
(145,1562,o),
(129,1560,o),
(114,1556,cs),
(77,1545,o),
(59,1527,o),
(59,1503,c),
(151,1414,o),
(180,1346,o),
(180,1114,cs),
(180,998,o),
(167,913,o),
(142,859,cs),
(121,814,o),
(97,790,o),
(82,777,cs),
(75,770,o),
(71,764,o),
(71,758,cs),
(71,726,o),
(146,699,o),
(169,553,cs),
(193,402,o),
(178,235,o),
(154,161,cs),
(137,107,o),
(105,57,o),
(59,10,c),
(61,-3,o),
(69,-16,o),
(84,-29,cs),
(99,-43,o),
(129,-50,o),
(178,-50,cs)
);
}
);
width = 665;
}
);
note = I;
unicode = 73;
},
{
glyphname = IJ;
kernLeft = H;
kernRight = J;
lastChange = "2023-11-17 14:42:02 +0000";
layers = (
{
background = {
shapes = (
{
closed = 1;
nodes = (
(114,1556,qs),
(59,1539,o),
(59,1503,q),
(128,1436,o),
(180,1288,o),
(180,940,o),
(142,859,qs),
(126,825,o),
(93,787,o),
(71,767,o),
(71,748,o),
(93,728,o),
(126,687,o),
(158,617,o),
(180,473,o),
(180,223,o),
(128,58,o),
(59,-14,q),
(62,-35,o),
(84,-53,qs),
(94,-62,o),
(136,-74,o),
(219,-74,o),
(267,-34,qs),
(285,-19,o),
(325,31,o),
(329,41,q),
(348,12,ls),
(366,-16,o),
(448,-74,o),
(523,-74,o),
(544,-68,qs),
(600,-50,o),
(600,-14,q),
(531,58,o),
(479,223,o),
(479,570,o),
(518,652,qs),
(534,687,o),
(566,728,o),
(588,748,o),
(588,771,o),
(560,794,qs),
(548,803,o),
(519,852,o),
(495,924,o),
(479,1059,o),
(479,1288,o),
(531,1436,o),
(600,1503,q),
(596,1518,ls),
(592,1532,o),
(539,1562,o),
(439,1562,o),
(392,1526,qs),
(374,1512,o),
(341,1475,o),
(332,1461,o),
(329,1457,q),
(262,1562,o),
(164,1562,qs),
(136,1562,o)
);
},
{
closed = 1;
nodes = (
(968,1556,qs),
(912,1538,o),
(912,1503,q),
(979,1442,o),
(1033,1280,o),
(1033,939,o),
(995,860,qs),
(979,826,o),
(947,789,o),
(925,770,o),
(925,752,o),
(936,742,qs),
(1033,659,o),
(1033,387,qs),
(1033,333,ls),
(1033,314,o),
(1031,256,o),
(1028,225,o),
(1023,181,o),
(1015,158,o),
(1003,128,o),
(963,93,o),
(922,93,qs),
(823,93,o),
(767,162,q),
(752,158,o),
(741,145,qs),
(735,138,o),
(727,109,o),
(727,58,o),
(762,-9,o),
(784,-27,q),
(727,-78,o),
(727,-197,o),
(767,-207,q),
(865,-147,o),
(953,-147,qs),
(1155,-147,o),
(1332,102,o),
(1332,386,qs),
(1332,574,o),
(1370,655,qs),
(1386,689,o),
(1417,729,o),
(1439,748,o),
(1439,767,o),
(1417,787,o),
(1386,825,o),
(1354,893,o),
(1332,1042,o),
(1332,1281,o),
(1385,1443,o),
(1453,1503,q),
(1450,1521,o),
(1428,1541,qs),
(1418,1550,o),
(1375,1562,o),
(1291,1562,o),
(1242,1526,qs),
(1224,1512,o),
(1185,1467,o),
(1180,1457,q),
(1113,1562,o),
(1017,1562,qs),
(989,1562,o)
);
}
);
};
layerId = m01;
shapes = (
{
ref = I;
},
{
pos = (665,0);
ref = J;
}
);
width = 1459;
}
);
note = IJ;
unicode = 306;
},
{
glyphname = Iacute;
kernLeft = H;
kernRight = H;
lastChange = "2023-11-17 14:42:02 +0000";
layers = (
{
background = {
shapes = (
{
closed = 1;
nodes = (
(669,1937,o),
(687,1994,q),
(661,2036,o),
(585,2036,qs),
(547,2036,o),
(495,2011,qs),
(479,2003,o),
(413,1965,o),
(404,1960,q),
(234,1688,l),
(359,1688,l),
(604,1886,ls)
);
},
{
closed = 1;
nodes = (
(114,1556,qs),
(59,1539,o),
(59,1503,q),
(128,1436,o),
(180,1288,o),
(180,940,o),
(142,859,qs),
(126,825,o),
(93,787,o),
(71,767,o),
(71,749,o),
(93,729,o),
(126,689,o),
(158,622,o),
(180,484,o),
(180,241,o),
(128,80,o),
(59,10,q),
(62,-9,o),
(84,-29,qs),
(94,-38,o),
(136,-50,o),
(219,-50,o),
(267,-10,qs),
(285,5,o),
(325,55,o),
(329,65,q),
(348,36,ls),
(366,8,o),
(448,-50,o),
(523,-50,o),
(544,-44,qs),
(600,-26,o),
(600,10,q),
(531,80,o),
(479,241,o),
(479,577,o),
(518,656,qs),
(534,689,o),
(566,729,o),
(588,749,o),
(588,771,o),
(560,794,qs),
(548,803,o),
(519,852,o),
(495,924,o),
(479,1059,o),
(479,1288,o),
(531,1436,o),
(600,1503,q),
(596,1518,ls),
(592,1532,o),
(539,1562,o),
(439,1562,o),
(392,1526,qs),
(374,1512,o),
(341,1475,o),
(332,1461,o),
(329,1457,q),
(262,1562,o),
(164,1562,qs),
(136,1562,o)
);
}
);
};
layerId = m01;
shapes = (
{
ref = I;
},
{
pos = (203,273);
ref = acutecomb;
}
);
width = 665;
}
);
note = Iacute;
unicode = 205;
},
{
glyphname = Ibreve;
kernLeft = H;
kernRight = H;
lastChange = "2023-11-17 14:42:02 +0000";
layers = (
{
background = {
shapes = (
{
closed = 1;
nodes = (
(188,1688,o),
(463,1688,o),
(628,1854,o),
(638,1997,q),
(521,1997,l),
(494,1835,o),
(324,1835,qs),
(246,1835,o),
(147,1920,o),
(136,1997,q),
(20,1997,l),
(26,1860,o)
);
},
{
closed = 1;
nodes = (
(114,1556,qs),
(59,1539,o),
(59,1503,q),
(128,1436,o),
(180,1288,o),
(180,940,o),
(142,859,qs),
(126,825,o),
(93,787,o),
(71,767,o),
(71,749,o),
(93,729,o),
(126,689,o),
(158,622,o),
(180,484,o),
(180,241,o),
(128,80,o),
(59,10,q),
(62,-9,o),
(84,-29,qs),
(94,-38,o),
(136,-50,o),
(219,-50,o),
(267,-10,qs),
(285,5,o),
(325,55,o),
(329,65,q),
(348,36,ls),
(366,8,o),
(448,-50,o),
(523,-50,o),
(544,-44,qs),
(600,-26,o),
(600,10,q),
(531,80,o),
(479,241,o),
(479,577,o),
(518,656,qs),
(534,689,o),
(566,729,o),
(588,749,o),
(588,771,o),
(560,794,qs),
(548,803,o),
(519,852,o),
(495,924,o),
(479,1059,o),
(479,1288,o),
(531,1436,o),
(600,1503,q),
(596,1518,ls),
(592,1532,o),
(539,1562,o),
(439,1562,o),
(392,1526,qs),
(374,1512,o),
(341,1475,o),
(332,1461,o),
(329,1457,q),
(262,1562,o),
(164,1562,qs),
(136,1562,o)
);
}
);
};
layerId = m01;
shapes = (
{
ref = I;
},
{
pos = (-51,272);
ref = brevecomb;
}
);
width = 665;
}
);
note = Ibreve;
unicode = 300;
},
{
glyphname = Icircumflex;
kernLeft = H;
kernRight = H;
lastChange = "2023-11-17 14:42:02 +0000";
layers = (
{
background = {
shapes = (
{
closed = 1;
nodes = (
(96,1688,l),
(294,1876,l),
(491,1688,l),
(619,1688,l),
(407,2024,l),
(179,2024,l),
(-29,1688,l)
);
},
{
closed = 1;
nodes = (
(114,1556,qs),
(59,1539,o),
(59,1503,q),
(128,1436,o),
(180,1288,o),
(180,940,o),
(142,859,qs),
(126,825,o),
(93,787,o),
(71,767,o),
(71,749,o),
(93,729,o),
(126,689,o),
(158,622,o),
(180,484,o),
(180,241,o),
(128,80,o),
(59,10,q),
(62,-9,o),
(84,-29,qs),
(94,-38,o),
(136,-50,o),
(219,-50,o),
(267,-10,qs),
(285,5,o),
(325,55,o),
(329,65,q),
(348,36,ls),
(366,8,o),
(448,-50,o),
(523,-50,o),
(544,-44,qs),
(600,-26,o),
(600,10,q),
(531,80,o),
(479,241,o),
(479,577,o),
(518,656,qs),
(534,689,o),
(566,729,o),
(588,749,o),
(588,771,o),
(560,794,qs),
(548,803,o),
(519,852,o),
(495,924,o),
(479,1059,o),
(479,1288,o),
(531,1436,o),
(600,1503,q),
(596,1518,ls),
(592,1532,o),
(539,1562,o),
(439,1562,o),
(392,1526,qs),
(374,1512,o),
(341,1475,o),
(332,1461,o),
(329,1457,q),
(262,1562,o),
(164,1562,qs),
(136,1562,o)
);
}
);
};
layerId = m01;
shapes = (
{
ref = I;
},
{
pos = (-61,273);
ref = circumflexcomb;
}
);
width = 665;
}
);
note = Icircumflex;
unicode = 206;
},
{
glyphname = Idblgrave;
kernLeft = H;
kernRight = H;
lastChange = "2023-11-17 14:42:02 +0000";
layers = (
{
background = {
shapes = (
{
closed = 1;
nodes = (
(77,1949,o),
(38,1981,o),
(25,1990,o),
(-37,2031,o),
(-89,2031,qs),
(-152,2031,o),
(-186,1995,q),
(-162,1946,o),
(-75,1857,qs),
(88,1688,l),
(206,1688,l),
(81,1946,l)
);
},
{
closed = 1;
nodes = (
(441,1951,o),
(403,1979,o),
(395,1985,qs),
(334,2031,o),
(268,2031,qs),
(208,2031,o),
(181,1995,q),
(208,1942,o),
(291,1857,qs),
(454,1688,l),
(572,1688,l),
(447,1946,l)
);
},
{
closed = 1;
nodes = (
(114,1556,qs),
(59,1539,o),
(59,1503,q),
(128,1436,o),
(180,1288,o),
(180,940,o),
(142,859,qs),
(126,825,o),
(93,787,o),
(71,767,o),
(71,749,o),
(93,729,o),
(126,689,o),
(158,622,o),
(180,484,o),
(180,241,o),
(128,80,o),
(59,10,q),
(62,-9,o),
(84,-29,qs),
(94,-38,o),
(136,-50,o),
(219,-50,o),
(267,-10,qs),
(285,5,o),
(325,55,o),
(329,65,q),
(348,36,ls),
(366,8,o),
(448,-50,o),
(523,-50,o),
(544,-44,qs),
(600,-26,o),
(600,10,q),
(531,80,o),
(479,241,o),
(479,577,o),
(518,656,qs),
(534,689,o),
(566,729,o),
(588,749,o),
(588,771,o),
(560,794,qs),
(548,803,o),
(519,852,o),
(495,924,o),
(479,1059,o),
(479,1288,o),
(531,1436,o),
(600,1503,q),
(596,1518,ls),
(592,1532,o),
(539,1562,o),
(439,1562,o),
(392,1526,qs),
(374,1512,o),
(341,1475,o),
(332,1461,o),
(329,1457,q),
(262,1562,o),
(164,1562,qs),
(136,1562,o)
);
}
);
};
layerId = m01;
shapes = (
{
ref = I;
},
{
pos = (-253,273);
ref = dblgravecomb;
}
);
width = 665;
}
);
note = uni0208;
unicode = 520;
},
{
glyphname = Idieresis;
kernLeft = H;
kernRight = H;
lastChange = "2023-11-17 14:42:02 +0000";
layers = (
{
background = {
shapes = (
{
closed = 1;
nodes = (
(541,1688,o),
(612,1761,o),
(612,1863,o),
(541,1936,o),
(437,1936,o),
(365,1863,o),
(365,1761,o),
(437,1688,o)
);
},
{
closed = 1;
nodes = (
(145,1688,o),
(216,1761,o),
(216,1863,o),
(145,1936,o),
(39,1936,o),
(-32,1863,o),
(-32,1761,o),
(39,1688,o)
);
},
{
closed = 1;
nodes = (
(114,1556,qs),
(59,1539,o),
(59,1503,q),
(128,1436,o),
(180,1288,o),
(180,940,o),
(142,859,qs),
(126,825,o),
(93,787,o),
(71,767,o),
(71,749,o),
(93,729,o),
(126,689,o),
(158,622,o),
(180,484,o),
(180,241,o),
(128,80,o),
(59,10,q),
(62,-9,o),
(84,-29,qs),
(94,-38,o),
(136,-50,o),
(219,-50,o),
(267,-10,qs),
(285,5,o),
(325,55,o),
(329,65,q),
(348,36,ls),
(366,8,o),
(448,-50,o),
(523,-50,o),
(544,-44,qs),
(600,-26,o),
(600,10,q),
(531,80,o),
(479,241,o),
(479,577,o),
(518,656,qs),
(534,689,o),
(566,729,o),
(588,749,o),
(588,771,o),
(560,794,qs),
(548,803,o),
(519,852,o),
(495,924,o),
(479,1059,o),
(479,1288,o),
(531,1436,o),
(600,1503,q),
(596,1518,ls),
(592,1532,o),
(539,1562,o),
(439,1562,o),
(392,1526,qs),
(374,1512,o),
(341,1475,o),
(332,1461,o),
(329,1457,q),
(262,1562,o),
(164,1562,qs),
(136,1562,o)
);
}
);
};
layerId = m01;
shapes = (
{
ref = I;
},
{
pos = (-71,273);
ref = dieresiscomb;
}
);
width = 665;
}
);
note = Idieresis;
unicode = 207;
},
{
glyphname = Idotaccent;
kernLeft = H;
kernRight = H;
lastChange = "2023-11-17 14:42:02 +0000";
layers = (
{
background = {
shapes = (
{
closed = 1;
nodes = (
(383,1688,o),
(454,1761,o),
(454,1863,o),
(383,1936,o),
(277,1936,o),
(206,1863,o),
(206,1761,o),
(277,1688,o)
);
},
{
closed = 1;
nodes = (
(114,1556,qs),
(59,1539,o),
(59,1503,q),
(128,1436,o),
(180,1288,o),
(180,940,o),
(142,859,qs),
(126,825,o),
(93,787,o),
(71,767,o),
(71,749,o),
(93,729,o),
(126,689,o),
(158,622,o),
(180,484,o),
(180,241,o),
(128,80,o),
(59,10,q),
(62,-9,o),
(84,-29,qs),
(94,-38,o),
(136,-50,o),
(219,-50,o),
(267,-10,qs),
(285,5,o),
(325,55,o),
(329,65,q),
(348,36,ls),
(366,8,o),
(448,-50,o),
(523,-50,o),
(544,-44,qs),
(600,-26,o),
(600,10,q),
(531,80,o),
(479,241,o),
(479,577,o),
(518,656,qs),
(534,689,o),
(566,729,o),
(588,749,o),
(588,771,o),
(560,794,qs),
(548,803,o),
(519,852,o),
(495,924,o),
(479,1059,o),
(479,1288,o),
(531,1436,o),
(600,1503,q),
(596,1518,ls),
(592,1532,o),
(539,1562,o),
(439,1562,o),
(392,1526,qs),
(374,1512,o),
(341,1475,o),
(332,1461,o),
(329,1457,q),
(262,1562,o),
(164,1562,qs),
(136,1562,o)
);
}
);
};
layerId = m01;
shapes = (
{
ref = I;
},
{
pos = (127,270);
ref = dotaccentcomb;
}
);
width = 665;
}
);
note = Idotaccent;
unicode = 304;
},
{
glyphname = Igrave;
kernLeft = H;
kernRight = H;
lastChange = "2023-11-17 14:42:02 +0000";
layers = (
{
background = {
shapes = (
{
closed = 1;
nodes = (
(9,1900,qs),
(267,1688,l),
(392,1688,l),
(242,1914,l),
(222,1960,l),
(215,1964,o),
(149,2004,o),
(87,2036,o),
(38,2036,qs),
(-27,2036,o),
(-62,1994,q),
(-49,1945,o)
);
},
{
closed = 1;
nodes = (
(114,1556,qs),
(59,1539,o),
(59,1503,q),
(128,1436,o),
(180,1288,o),
(180,940,o),
(142,859,qs),
(126,825,o),
(93,787,o),
(71,767,o),
(71,749,o),
(93,729,o),
(126,689,o),
(158,622,o),
(180,484,o),
(180,241,o),
(128,80,o),
(59,10,q),
(62,-9,o),
(84,-29,qs),
(94,-38,o),
(136,-50,o),
(219,-50,o),
(267,-10,qs),
(285,5,o),
(325,55,o),
(329,65,q),
(348,36,ls),
(366,8,o),
(448,-50,o),
(523,-50,o),
(544,-44,qs),
(600,-26,o),
(600,10,q),
(531,80,o),
(479,241,o),
(479,577,o),
(518,656,qs),
(534,689,o),
(566,729,o),
(588,749,o),
(588,771,o),
(560,794,qs),
(548,803,o),
(519,852,o),
(495,924,o),
(479,1059,o),
(479,1288,o),
(531,1436,o),
(600,1503,q),
(596,1518,ls),
(592,1532,o),
(539,1562,o),
(439,1562,o),
(392,1526,qs),
(374,1512,o),
(341,1475,o),
(332,1461,o),
(329,1457,q),
(262,1562,o),
(164,1562,qs),
(136,1562,o)
);
}
);
};
layerId = m01;
shapes = (
{
ref = I;
},
{
pos = (-134,273);
ref = gravecomb;
}
);
width = 665;
}
);
note = Igrave;
unicode = 204;
},
{
glyphname = Iinvertedbreve;
kernLeft = H;
kernRight = H;
lastChange = "2023-11-17 14:42:02 +0000";
layers = (
{
background = {
shapes = (
{
closed = 1;
nodes = (
(246,1850,o),
(324,1850,qs),
(494,1850,o),
(521,1688,q),
(638,1688,l),
(628,1831,o),
(463,1997,o),
(188,1997,o),
(26,1825,o),
(20,1688,q),
(136,1688,l),
(147,1765,o)
);
},
{
closed = 1;
nodes = (
(114,1556,qs),
(59,1539,o),
(59,1503,q),
(128,1436,o),
(180,1288,o),
(180,940,o),
(142,859,qs),
(126,825,o),
(93,787,o),
(71,767,o),
(71,749,o),
(93,729,o),
(126,689,o),
(158,622,o),
(180,484,o),
(180,241,o),
(128,80,o),
(59,10,q),
(62,-9,o),
(84,-29,qs),
(94,-38,o),
(136,-50,o),
(219,-50,o),
(267,-10,qs),
(285,5,o),
(325,55,o),
(329,65,q),
(348,36,ls),
(366,8,o),
(448,-50,o),
(523,-50,o),
(544,-44,qs),
(600,-26,o),
(600,10,q),
(531,80,o),
(479,241,o),
(479,577,o),
(518,656,qs),
(534,689,o),
(566,729,o),
(588,749,o),
(588,771,o),
(560,794,qs),
(548,803,o),
(519,852,o),
(495,924,o),
(479,1059,o),
(479,1288,o),
(531,1436,o),
(600,1503,q),
(596,1518,ls),
(592,1532,o),
(539,1562,o),
(439,1562,o),
(392,1526,qs),
(374,1512,o),
(341,1475,o),
(332,1461,o),
(329,1457,q),
(262,1562,o),
(164,1562,qs),
(136,1562,o)
);
}
);
};
layerId = m01;
shapes = (
{
ref = I;
},
{
pos = (-54,273);
ref = breveinvertedcomb;
}
);
width = 665;
}
);
note = uni020A;
unicode = 522;
},
{
glyphname = Imacron;
kernLeft = H;
kernRight = H;
lastChange = "2023-11-17 14:42:02 +0000";
layers = (
{
background = {
shapes = (
{
closed = 1;
nodes = (
(14,1815,l),
(14,1688,l),
(645,1688,l),
(645,1815,l)
);
},
{
closed = 1;
nodes = (
(114,1556,qs),
(59,1539,o),
(59,1503,q),
(128,1436,o),
(180,1288,o),
(180,940,o),
(142,859,qs),
(126,825,o),
(93,787,o),
(71,767,o),
(71,749,o),
(93,729,o),
(126,689,o),
(158,622,o),
(180,484,o),
(180,241,o),
(128,80,o),
(59,10,q),
(62,-9,o),
(84,-29,qs),
(94,-38,o),
(136,-50,o),
(219,-50,o),
(267,-10,qs),
(285,5,o),
(325,55,o),
(329,65,q),
(348,36,ls),
(366,8,o),
(448,-50,o),
(523,-50,o),
(544,-44,qs),
(600,-26,o),
(600,10,q),
(531,80,o),
(479,241,o),
(479,577,o),
(518,656,qs),
(534,689,o),
(566,729,o),
(588,749,o),
(588,771,o),
(560,794,qs),
(548,803,o),
(519,852,o),
(495,924,o),
(479,1059,o),
(479,1288,o),
(531,1436,o),
(600,1503,q),
(596,1518,ls),
(592,1532,o),
(539,1562,o),
(439,1562,o),
(392,1526,qs),
(374,1512,o),
(341,1475,o),
(332,1461,o),
(329,1457,q),
(262,1562,o),
(164,1562,qs),
(136,1562,o)
);
}
);
};
layerId = m01;
shapes = (
{
ref = I;
},
{
pos = (-71,273);
ref = macroncomb;
}
);
width = 665;
}
);
note = Imacron;
unicode = 298;
},
{
glyphname = Iogonek;
kernLeft = H;
kernRight = H;
lastChange = "2023-11-17 14:42:02 +0000";
layers = (
{
background = {
shapes = (
{
closed = 1;
nodes = (
(175,-136,o),
(133,-176,o),
(60,-259,o),
(60,-316,qs),
(60,-402,o),
(193,-494,o),
(391,-494,o),
(476,-453,q),
(460,-346,l),
(409,-372,o),
(349,-372,qs),
(251,-372,o),
(251,-282,qs),
(251,-227,o),
(325,-122,o),
(396,-60,q),
(263,-60,l),
(247,-75,o)
);
},
{
closed = 1;
nodes = (
(114,1556,qs),
(59,1539,o),
(59,1503,q),
(128,1436,o),
(180,1288,o),
(180,940,o),
(142,859,qs),
(126,825,o),
(93,787,o),
(71,767,o),
(71,749,o),
(93,729,o),
(126,689,o),
(158,622,o),
(180,484,o),
(180,241,o),
(128,80,o),
(59,10,q),
(62,-9,o),
(84,-29,qs),
(94,-38,o),
(136,-50,o),
(219,-50,o),
(267,-10,qs),
(285,5,o),
(325,55,o),
(329,65,q),
(348,36,ls),
(366,8,o),
(448,-50,o),
(523,-50,o),
(544,-44,qs),
(600,-26,o),
(600,10,q),
(531,80,o),
(479,241,o),
(479,577,o),
(518,656,qs),
(534,689,o),
(566,729,o),
(588,749,o),
(588,771,o),
(560,794,qs),
(548,803,o),
(519,852,o),
(495,924,o),
(479,1059,o),
(479,1288,o),
(531,1436,o),
(600,1503,q),
(596,1518,ls),
(592,1532,o),
(539,1562,o),
(439,1562,o),
(392,1526,qs),
(374,1512,o),
(341,1475,o),
(332,1461,o),
(329,1457,q),
(262,1562,o),
(164,1562,qs),
(136,1562,o)
);
}
);
};
layerId = m01;
shapes = (
{
ref = I;
},
{
pos = (160,10);
ref = ogonekcomb;
}
);
width = 665;
}
);
note = Iogonek;
unicode = 302;
},
{
glyphname = Itilde;
kernLeft = H;
kernRight = H;
lastChange = "2023-11-17 14:42:02 +0000";
layers = (
{
background = {
shapes = (
{
closed = 1;
nodes = (
(294,1744,o),
(417,1688,o),
(471,1688,qs),
(564,1688,o),
(672,1839,o),
(682,1956,q),
(583,1956,l),
(563,1847,o),
(498,1847,qs),
(466,1847,o),
(413,1875,qs),
(254,1959,o),
(190,1959,qs),
(99,1959,o),
(-17,1817,o),
(-23,1696,q),
(76,1696,l),
(85,1800,o),
(149,1800,qs),
(185,1800,o)
);
},
{
closed = 1;
nodes = (
(114,1556,qs),
(59,1539,o),
(59,1503,q),
(128,1436,o),
(180,1288,o),
(180,940,o),
(142,859,qs),
(126,825,o),
(93,787,o),
(71,767,o),
(71,749,o),
(93,729,o),
(126,689,o),
(158,622,o),
(180,484,o),
(180,241,o),
(128,80,o),
(59,10,q),
(62,-9,o),
(84,-29,qs),
(94,-38,o),
(136,-50,o),
(219,-50,o),
(267,-10,qs),
(285,5,o),
(325,55,o),
(329,65,q),
(348,36,ls),
(366,8,o),
(448,-50,o),
(523,-50,o),
(544,-44,qs),
(600,-26,o),
(600,10,q),
(531,80,o),
(479,241,o),
(479,577,o),
(518,656,qs),
(534,689,o),
(566,729,o),
(588,749,o),
(588,771,o),
(560,794,qs),
(548,803,o),
(519,852,o),
(495,924,o),
(479,1059,o),
(479,1288,o),
(531,1436,o),
(600,1503,q),
(596,1518,ls),
(592,1532,o),
(539,1562,o),
(439,1562,o),
(392,1526,qs),
(374,1512,o),
(341,1475,o),
(332,1461,o),
(329,1457,q),
(262,1562,o),
(164,1562,qs),
(136,1562,o)
);
}
);
};
layerId = m01;
shapes = (
{
ref = I;
},
{
pos = (-100,273);
ref = tildecomb;
}
);
width = 665;
}
);
note = Itilde;
unicode = 296;
},
{
glyphname = J;
kernLeft = J;
kernRight = J;
lastChange = "2023-11-17 14:42:02 +0000";
layers = (
{
anchors = (
{
name = bottom;
pos = (397,0);
},
{
name = top;
pos = (484,1562);
}
);
background = {
shapes = (
{
closed = 1;
nodes = (
(262,1556,qs),
(206,1538,o),
(206,1503,q),
(273,1442,o),
(327,1280,o),
(327,939,o),
(289,860,qs),
(273,826,o),
(241,789,o),
(219,770,o),
(219,752,o),
(230,742,qs),
(327,659,o),
(327,387,qs),
(327,333,ls),
(327,314,o),
(325,256,o),
(322,225,o),
(317,181,o),
(309,158,o),
(297,128,o),
(257,93,o),
(216,93,qs),
(117,93,o),
(61,162,q),
(46,158,o),
(35,145,qs),
(29,138,o),
(21,109,o),
(21,58,o),
(56,-9,o),
(78,-27,q),
(21,-76,o),
(21,-197,o),
(61,-207,q),
(159,-147,o),
(247,-147,qs),
(449,-147,o),
(626,102,o),
(626,386,qs),
(626,574,o),
(664,655,qs),
(680,689,o),
(711,729,o),
(733,748,o),
(733,767,o),
(711,787,o),
(680,825,o),
(648,893,o),
(626,1042,o),
(626,1281,o),
(679,1443,o),
(747,1503,q),
(744,1521,o),
(722,1541,qs),
(712,1550,o),
(669,1562,o),
(585,1562,o),
(536,1526,qs),
(518,1512,o),
(479,1467,o),
(474,1457,q),
(407,1562,o),
(311,1562,qs),
(283,1562,o)
);
}
);
};
layerId = m01;
shapes = (
{
closed = 1;
nodes = (
(126,-167,o),
(188,-147,o),
(247,-147,cs),
(516,-147,o),
(626,7,o),
(626,386,cs),
(626,511,o),
(639,601,o),
(664,655,cs),
(685,700,o),
(707,726,o),
(722,739,cs),
(729,745,o),
(733,751,o),
(733,758,cs),
(733,799,o),
(660,814,o),
(637,968,cs),
(622,1070,o),
(616,1252,o),
(653,1362,cs),
(670,1416,o),
(702,1463,o),
(747,1503,c),
(745,1515,o),
(737,1528,o),
(722,1541,cs),
(707,1555,o),
(676,1562,o),
(627,1562,cs),
(599,1562,o),
(569,1550,o),
(536,1526,cs),
(512,1507,o),
(481,1470,o),
(474,1457,c),
(429,1527,o),
(375,1562,o),
(311,1562,cs),
(292,1562,o),
(276,1560,o),
(262,1556,cs),
(225,1544,o),
(206,1526,o),
(206,1503,c),
(295,1422,o),
(327,1337,o),
(327,1110,cs),
(327,996,o),
(314,913,o),
(289,860,cs),
(268,815,o),
(245,792,o),
(230,780,cs),
(215,767,o),
(216,755,o),
(230,742,cs),
(295,687,o),
(327,568,o),
(327,387,cs),
(327,333,ls),
(327,308,o),
(326,261,o),
(324,241,cs),
(322,220,o),
(318,185,o),
(313,170,cs),
(308,154,o),
(304,134,o),
(277,111,cs),
(264,99,o),
(243,93,o),
(216,93,cs),
(150,93,o),
(98,116,o),
(61,162,c),
(51,159,o),
(42,154,o),
(35,145,cs),
(27,136,o),
(21,118,o),
(21,84,cs),
(21,50,o),
(49,-3,o),
(78,-27,c),
(40,-60,o),
(21,-96,o),
(21,-136,cs),
(21,-177,o),
(34,-200,o),
(61,-207,c)
);
}
);
width = 794;
}
);
note = J;
unicode = 74;
},
{
glyphname = Jcircumflex;
kernLeft = J;
kernRight = J;
lastChange = "2023-11-17 14:42:02 +0000";
layers = (
{
background = {
shapes = (
{
closed = 1;
nodes = (
(185,1688,l),
(383,1876,l),
(580,1688,l),
(708,1688,l),
(496,2024,l),
(268,2024,l),
(60,1688,l)
);
},
{
closed = 1;
nodes = (
(262,1556,qs),
(206,1538,o),
(206,1503,q),
(273,1442,o),
(327,1280,o),
(327,939,o),
(289,860,qs),
(273,826,o),
(241,789,o),
(219,770,o),
(219,752,o),
(230,742,qs),
(327,659,o),
(327,387,qs),
(327,333,ls),
(327,314,o),
(325,256,o),
(322,225,o),
(317,181,o),
(309,158,o),
(297,128,o),
(257,93,o),
(216,93,qs),
(117,93,o),
(61,162,q),
(46,158,o),
(35,145,qs),
(29,138,o),
(21,109,o),
(21,58,o),
(56,-9,o),
(78,-27,q),
(21,-76,o),
(21,-197,o),
(61,-207,q),
(159,-147,o),
(247,-147,qs),
(449,-147,o),
(626,102,o),
(626,386,qs),
(626,574,o),
(664,655,qs),
(680,689,o),
(711,729,o),
(733,748,o),
(733,767,o),
(711,787,o),
(680,825,o),
(648,893,o),
(626,1042,o),
(626,1281,o),
(679,1443,o),
(747,1503,q),
(744,1521,o),
(722,1541,qs),
(712,1550,o),
(669,1562,o),
(585,1562,o),
(536,1526,qs),
(518,1512,o),
(479,1467,o),
(474,1457,q),
(407,1562,o),
(311,1562,qs),
(283,1562,o)
);
}
);
};
layerId = m01;
shapes = (
{
ref = J;
},
{
pos = (90,273);
ref = circumflexcomb;
}
);
width = 794;
}
);
note = Jcircumflex;
unicode = 308;
},
{
glyphname = K;
kernLeft = H;
kernRight = K;
lastChange = "2023-11-17 14:42:02 +0000";
layers = (
{
anchors = (
{
name = bottom;
pos = (680,0);
},
{
name = top;
pos = (680,1562);
}
);
background = {
shapes = (
{
closed = 1;
nodes = (
(1043,1509,o),
(997,1562,o),
(953,1562,o),
(938,1554,qs),
(903,1536,o),
(888,1491,q),
(815,1353,o),
(790,1178,qs),
(780,1113,o),
(754,907,o),
(746,856,q),
(720,853,ls),
(635,843,o),
(575,843,qs),
(539,843,o),
(513,849,q),
(504,962,o),
(504,1263,o),
(569,1427,o),
(654,1500,q),
(650,1517,o),
(632,1536,qs),
(620,1547,o),
(570,1561,o),
(506,1561,o),
(476,1548,qs),
(398,1514,o),
(355,1442,q),
(274,1561,o),
(174,1561,qs),
(147,1561,o),
(125,1554,qs),
(68,1538,o),
(55,1499,q),
(134,1424,o),
(194,1258,o),
(194,964,o),
(162,902,qs),
(148,874,o),
(116,833,o),
(88,816,o),
(70,798,o),
(70,781,o),
(96,759,o),
(132,715,o),
(168,643,o),
(194,501,o),
(194,237,o),
(133,51,o),
(56,-33,q),
(61,-49,o),
(80,-67,qs),
(91,-78,o),
(141,-92,o),
(232,-92,o),
(299,-30,qs),
(334,2,o),
(355,45,q),
(438,-92,o),
(624,-92,o),
(654,-33,q),
(569,51,o),
(504,236,o),
(504,406,q),
(515,665,l),
(541,661,o),
(577,661,qs),
(645,661,l),
(687,662,ls),
(732,662,o),
(747,649,q),
(747,635,ls),
(747,523,o),
(805,188,o),
(913,-92,o),
(969,-92,qs),
(988,-92,o),
(1006,-78,qs),
(1055,-36,o),
(1071,43,q),
(1096,10,ls),
(1121,-24,o),
(1209,-92,o),
(1246,-92,qs),
(1371,-92,o),
(1378,-35,q),
(1257,27,o),
(1130,239,o),
(1130,364,qs),
(1130,546,o),
(1072,625,qs),
(1047,659,o),
(988,705,o),
(938,720,o),
(905,737,o),
(905,757,o),
(930,769,o),
(970,784,o),
(1018,806,o),
(1065,858,o),
(1105,932,o),
(1130,1062,o),
(1130,1262,o),
(1257,1450,o),
(1378,1505,q),
(1378,1521,o),
(1348,1546,qs),
(1329,1562,o),
(1246,1562,qs),
(1167,1562,o),
(1061,1456,q),
(1052,1482,ls)
);
}
);
};
layerId = m01;
shapes = (
{
closed = 1;
nodes = (
(217,-92,o),
(254,-71,o),
(299,-30,cs),
(322,-9,o),
(341,16,o),
(355,45,c),
(410,-46,o),
(469,-92,o),
(531,-92,cs),
(593,-92,o),
(634,-72,o),
(654,-33,c),
(541,79,o),
(504,179,o),
(504,406,c),
(515,665,l),
(532,662,o),
(553,661,o),
(577,661,cs),
(645,661,l),
(687,662,ls),
(717,662,o),
(737,658,o),
(747,649,c),
(747,635,ls),
(747,486,o),
(787,235,o),
(859,48,cs),
(895,-45,o),
(932,-92,o),
(969,-92,cs),
(982,-92,o),
(994,-87,o),
(1006,-78,cs),
(1039,-50,o),
(1060,-10,o),
(1071,43,c),
(1096,10,ls),
(1129,-35,o),
(1197,-92,o),
(1246,-92,cs),
(1329,-92,o),
(1373,-73,o),
(1378,-35,c),
(1217,48,o),
(1130,197,o),
(1130,364,cs),
(1130,485,o),
(1111,572,o),
(1072,625,cs),
(1039,670,o),
(996,703,o),
(963,713,cs),
(932,722,o),
(905,733,o),
(905,747,cs),
(905,766,o),
(950,775,o),
(994,795,cs),
(1026,810,o),
(1058,846,o),
(1085,895,cs),
(1112,944,o),
(1130,1029,o),
(1130,1162,cs),
(1130,1295,o),
(1217,1432,o),
(1378,1505,c),
(1378,1516,o),
(1368,1529,o),
(1348,1546,cs),
(1335,1557,o),
(1301,1562,o),
(1246,1562,cs),
(1193,1562,o),
(1132,1527,o),
(1061,1456,c),
(1052,1482,ls),
(1040,1518,o),
(1004,1562,o),
(975,1562,cs),
(960,1562,o),
(948,1559,o),
(938,1554,cs),
(915,1542,o),
(898,1521,o),
(888,1491,c),
(839,1399,o),
(807,1295,o),
(790,1178,cs),
(767,1010,l),
(746,856,l),
(720,853,ls),
(663,846,o),
(615,843,o),
(575,843,cs),
(551,843,o),
(530,845,o),
(513,849,c),
(501,999,o),
(491,1231,o),
(537,1345,cs),
(558,1400,o),
(597,1451,o),
(654,1500,c),
(651,1511,o),
(644,1523,o),
(632,1536,cs),
(607,1559,o),
(532,1572,o),
(476,1548,cs),
(424,1525,o),
(384,1490,o),
(355,1442,c),
(301,1521,o),
(241,1561,o),
(174,1561,cs),
(156,1561,o),
(140,1559,o),
(125,1554,cs),
(87,1543,o),
(64,1525,o),
(55,1499,c),
(160,1399,o),
(194,1307,o),
(194,1111,cs),
(194,1013,o),
(183,943,o),
(162,902,cs),
(143,865,o),
(121,836,o),
(102,825,cs),
(83,813,o),
(70,801,o),
(70,790,cs),
(70,778,o),
(93,762,o),
(114,737,cs),
(138,708,o),
(164,667,o),
(181,572,cs),
(210,415,o),
(191,228,o),
(164,144,cs),
(143,82,o),
(107,23,o),
(56,-33,c),
(59,-44,o),
(67,-55,o),
(80,-67,cs),
(97,-84,o),
(132,-92,o),
(187,-92,cs)
);
}
);
width = 1359;
}
);
note = K;
unicode = 75;
},
{
glyphname = Kcommaaccent;
kernLeft = H;
kernRight = K;
lastChange = "2023-11-17 14:42:02 +0000";
layers = (
{
background = {
shapes = (
{
closed = 1;
nodes = (
(866,-565,o),
(866,-329,o),
(839,-229,q),
(774,-194,o),
(658,-194,o),
(583,-237,o),
(567,-270,q),
(567,-374,o),
(629,-456,q),
(701,-456,o),
(737,-440,q),
(739,-440,l),
(739,-528,o),
(658,-622,o),
(577,-642,q),
(577,-736,l),
(711,-724,o)
);
},
{
closed = 1;
nodes = (
(1043,1509,o),
(997,1562,o),
(953,1562,o),
(938,1554,qs),
(903,1536,o),
(888,1491,q),
(815,1353,o),
(790,1178,qs),
(780,1113,o),
(754,907,o),
(746,856,q),
(720,853,ls),
(635,843,o),
(575,843,qs),
(539,843,o),
(513,849,q),
(504,962,o),
(504,1263,o),
(569,1427,o),
(654,1500,q),
(650,1517,o),
(632,1536,qs),
(620,1547,o),
(570,1561,o),
(506,1561,o),
(476,1548,qs),
(398,1514,o),
(355,1442,q),
(274,1561,o),
(174,1561,qs),
(147,1561,o),
(125,1554,qs),
(68,1538,o),
(55,1499,q),
(134,1424,o),
(194,1258,o),
(194,964,o),
(162,902,qs),
(148,874,o),
(116,833,o),
(88,816,o),
(70,798,o),
(70,781,o),
(96,759,o),
(132,715,o),
(168,643,o),
(194,501,o),
(194,237,o),
(133,51,o),
(56,-33,q),
(61,-49,o),
(80,-67,qs),
(91,-78,o),
(141,-92,o),
(232,-92,o),
(299,-30,qs),
(334,2,o),
(355,45,q),
(438,-92,o),
(624,-92,o),
(654,-33,q),
(569,51,o),
(504,236,o),
(504,406,q),
(515,665,l),
(541,661,o),
(577,661,qs),
(645,661,l),
(687,662,ls),
(732,662,o),
(747,649,q),
(747,635,ls),
(747,523,o),
(805,188,o),
(913,-92,o),
(969,-92,qs),
(988,-92,o),
(1006,-78,qs),
(1055,-36,o),
(1071,43,q),
(1096,10,ls),
(1121,-24,o),
(1209,-92,o),
(1246,-92,qs),
(1371,-92,o),
(1378,-35,q),
(1257,27,o),
(1130,239,o),
(1130,364,qs),
(1130,546,o),
(1072,625,qs),
(1047,659,o),
(988,705,o),
(938,720,o),
(905,737,o),
(905,757,o),
(930,769,o),
(970,784,o),
(1018,806,o),
(1065,858,o),
(1105,932,o),
(1130,1062,o),
(1130,1262,o),
(1257,1450,o),
(1378,1505,q),
(1378,1521,o),
(1348,1546,qs),
(1329,1562,o),
(1246,1562,qs),
(1167,1562,o),
(1061,1456,q),
(1052,1482,ls)
);
}
);
};
layerId = m01;
shapes = (
{
ref = K;
},
{
pos = (460,0);
ref = commaaccentcomb;
}
);
width = 1359;
}
);
note = Kcommaaccent;
unicode = 310;
},
{
glyphname = L;
kernLeft = H;
kernRight = L;
lastChange = "2023-11-17 14:49:58 +0000";
layers = (
{
anchors = (
{
name = bottom;
pos = (437,0);
},
{
name = center;
pos = (437,781);
},
{
name = top;
pos = (331,1562);
},
{
name = topright;
pos = (767,1646);
}
);
background = {
shapes = (
{
closed = 1;
nodes = (
(818,21,qs),
(818,72,o),
(761,120,q),
(783,132,o),
(804,168,qs),
(818,192,o),
(818,236,o),
(814,250,qs),
(802,288,o),
(778,288,q),
(739,249,o),
(675,219,o),
(610,219,q),
(510,213,ls),
(489,213,o),
(477,239,o),
(477,283,qs),
(478,395,ls),
(478,579,o),
(516,657,qs),
(532,690,o),
(565,729,o),
(587,749,o),
(587,767,o),
(565,787,o),
(532,825,o),
(500,893,o),
(478,1042,o),
(478,1285,o),
(531,1438,o),
(599,1503,q),
(596,1521,o),
(574,1541,qs),
(564,1550,o),
(521,1562,o),
(440,1562,o),
(391,1526,qs),
(373,1512,o),
(334,1467,o),
(329,1457,q),
(311,1494,o),
(273,1525,qs),
(255,1540,o),
(196,1562,o),
(135,1562,o),
(114,1556,qs),
(58,1539,o),
(58,1503,q),
(126,1438,o),
(179,1285,o),
(179,940,o),
(141,859,qs),
(125,825,o),
(92,787,o),
(70,767,o),
(70,749,o),
(92,729,o),
(108,710,qs),
(179,626,o),
(179,395,qs),
(179,320,ls),
(179,297,o),
(177,221,o),
(172,188,o),
(165,134,o),
(152,109,o),
(144,90,qs),
(127,54,o),
(59,10,q),
(63,-5,ls),
(67,-20,o),
(119,-50,o),
(216,-50,o),
(275,3,qs),
(306,30,o),
(320,64,q),
(398,-50,o),
(463,-50,qs),
(490,-50,o),
(584,10,o),
(684,10,o),
(778,-50,q),
(818,-40,o)
);
}
);
};
layerId = m01;
shapes = (
{
closed = 1;
nodes = (
(200,-50,o),
(236,-32,o),
(275,3,cs),
(296,21,o),
(311,41,o),
(320,64,c),
(372,-12,o),
(420,-50,o),
(463,-50,cs),
(515,-50,o),
(551,10,o),
(634,10,cs),
(667,10,o),
(715,-10,o),
(778,-50,c),
(805,-43,o),
(818,-20,o),
(818,21,cs),
(818,55,o),
(799,88,o),
(761,120,c),
(776,128,o),
(790,144,o),
(804,168,cs),
(813,184,o),
(818,199,o),
(818,214,cs),
(818,229,o),
(817,241,o),
(814,250,cs),
(806,275,o),
(794,288,o),
(778,288,c),
(726,236,o),
(697,219,o),
(610,219,c),
(510,213,ls),
(496,213,o),
(487,217,o),
(483,226,cs),
(479,235,o),
(477,254,o),
(477,283,cs),
(478,395,ls),
(478,518,o),
(491,605,o),
(516,657,cs),
(537,701,o),
(561,726,o),
(576,739,cs),
(583,746,o),
(587,752,o),
(587,758,cs),
(587,799,o),
(511,816,o),
(489,968,cs),
(474,1071,o),
(468,1257,o),
(505,1362,cs),
(522,1413,o),
(554,1460,o),
(599,1503,c),
(597,1515,o),
(589,1528,o),
(574,1541,cs),
(559,1555,o),
(528,1562,o),
(481,1562,cs),
(454,1562,o),
(424,1550,o),
(391,1526,cs),
(367,1507,o),
(336,1470,o),
(329,1457,c),
(317,1482,o),
(298,1504,o),
(273,1525,cs),
(230,1561,o),
(159,1569,o),
(114,1556,cs),
(77,1545,o),
(58,1527,o),
(58,1503,c),
(149,1416,o),
(179,1343,o),
(179,1113,cs),
(179,998,o),
(166,913,o),
(141,859,cs),
(120,814,o),
(96,790,o),
(81,777,cs),
(74,770,o),
(70,764,o),
(70,758,cs),
(70,752,o),
(74,746,o),
(81,739,cs),
(88,732,o),
(97,723,o),
(108,710,cs),
(155,654,o),
(179,549,o),
(179,395,cs),
(179,320,ls),
(179,289,o),
(178,227,o),
(175,205,cs),
(169,161,ls),
(166,143,o),
(163,130,o),
(159,122,cs),
(144,90,ls),
(133,66,o),
(104,39,o),
(59,10,c),
(63,-5,ls),
(69,-27,o),
(109,-50,o),
(168,-50,cs)
);
}
);
width = 873;
}
);
note = L;
unicode = 76;
},
{
glyphname = Lacute;
kernLeft = H;
kernRight = L;
lastChange = "2023-11-17 14:42:02 +0000";
layers = (
{
background = {
shapes = (
{
closed = 1;
nodes = (
(798,1937,o),
(816,1994,q),
(790,2036,o),
(714,2036,qs),
(676,2036,o),
(624,2011,qs),
(608,2003,o),
(542,1965,o),
(533,1960,q),
(363,1688,l),
(488,1688,l),
(733,1886,ls)
);
},
{
closed = 1;
nodes = (
(818,21,qs),
(818,72,o),
(761,120,q),
(783,132,o),
(804,168,qs),
(818,192,o),
(818,236,o),
(814,250,qs),
(802,288,o),
(778,288,q),
(739,249,o),
(675,219,o),
(610,219,q),
(510,213,ls),
(489,213,o),
(477,239,o),
(477,283,qs),
(478,395,ls),
(478,579,o),
(516,657,qs),
(532,690,o),
(565,729,o),
(587,749,o),
(587,767,o),
(565,787,o),
(532,825,o),
(500,893,o),
(478,1042,o),
(478,1285,o),
(531,1438,o),
(599,1503,q),
(596,1521,o),
(574,1541,qs),
(564,1550,o),
(521,1562,o),
(440,1562,o),
(391,1526,qs),
(373,1512,o),
(334,1467,o),
(329,1457,q),
(311,1494,o),
(273,1525,qs),
(255,1540,o),
(196,1562,o),
(135,1562,o),
(114,1556,qs),
(58,1539,o),
(58,1503,q),
(126,1438,o),
(179,1285,o),
(179,940,o),
(141,859,qs),
(125,825,o),
(92,787,o),
(70,767,o),
(70,749,o),
(92,729,o),
(108,710,qs),
(179,626,o),
(179,395,qs),
(179,320,ls),
(179,297,o),
(177,221,o),
(172,188,o),
(165,134,o),
(152,109,o),
(144,90,qs),
(127,54,o),
(59,10,q),
(63,-5,ls),
(67,-20,o),
(119,-50,o),
(216,-50,o),
(275,3,qs),
(306,30,o),
(320,64,q),
(398,-50,o),
(463,-50,qs),
(490,-50,o),
(584,10,o),
(684,10,o),
(778,-50,q),
(818,-40,o)
);
}
);
};
layerId = m01;
shapes = (
{
ref = L;
},
{
pos = (201,273);
ref = acutecomb;
}
);
width = 873;
}
);
note = Lacute;
unicode = 313;
},
{
glyphname = Lcaron;
kernLeft = H;
kernRight = Lcaron;
lastChange = "2023-11-17 14:52:32 +0000";
layers = (
{
background = {
shapes = (
{
closed = 1;
nodes = (
(1309,1215,o),
(1309,1451,o),
(1282,1551,q),
(1217,1586,o),
(1101,1586,o),
(1026,1543,o),
(1010,1510,q),
(1010,1406,o),
(1072,1324,q),
(1144,1324,o),
(1180,1340,q),
(1182,1340,l),
(1182,1252,o),
(1101,1158,o),
(1020,1138,q),
(1020,1044,l),
(1154,1056,o)
);
},
{
closed = 1;
nodes = (
(820,21,qs),
(820,72,o),
(763,120,q),
(785,132,o),
(806,168,qs),
(820,192,o),
(820,236,o),
(816,250,qs),
(804,288,o),
(780,288,q),
(741,249,o),
(677,219,o),
(612,219,q),
(512,213,ls),
(491,213,o),
(479,239,o),
(479,283,qs),
(480,395,ls),
(480,579,o),
(518,657,qs),
(534,690,o),
(567,729,o),
(589,749,o),
(589,767,o),
(567,787,o),
(534,825,o),
(502,893,o),
(480,1042,o),
(480,1285,o),
(533,1438,o),
(601,1503,q),
(598,1521,o),
(576,1541,qs),
(566,1550,o),
(523,1562,o),
(442,1562,o),
(393,1526,qs),
(375,1512,o),
(336,1467,o),
(331,1457,q),
(313,1494,o),
(275,1525,qs),
(257,1540,o),
(198,1562,o),
(137,1562,o),
(116,1556,qs),
(60,1539,o),
(60,1503,q),
(128,1438,o),
(181,1285,o),
(181,940,o),
(143,859,qs),
(127,825,o),
(94,787,o),
(72,767,o),
(72,749,o),
(94,729,o),
(110,710,qs),
(181,626,o),
(181,395,qs),
(181,320,ls),
(181,297,o),
(179,221,o),
(174,188,o),
(167,134,o),
(154,109,o),
(146,90,qs),
(129,54,o),
(61,10,q),
(65,-5,ls),
(69,-20,o),
(121,-50,o),
(218,-50,o),
(277,3,qs),
(308,30,o),
(322,64,q),
(400,-50,o),
(465,-50,qs),
(492,-50,o),
(586,10,o),
(686,10,o),
(780,-50,q),
(820,-40,o)
);
}
);
};
layerId = m01;
shapes = (
{
ref = L;
},
{
pos = (617,-32);
ref = caroncomb.alt;
}
);
width = 873;
}
);
note = Lcaron;
unicode = 317;
},
{
glyphname = Lcommaaccent;
kernLeft = H;
kernRight = L;
lastChange = "2023-11-17 14:42:02 +0000";
layers = (
{
background = {
shapes = (
{
closed = 1;
nodes = (
(587,-523,o),
(587,-287,o),
(560,-187,q),
(495,-152,o),
(379,-152,o),
(304,-195,o),
(288,-228,q),
(288,-332,o),
(350,-414,q),
(422,-414,o),
(458,-398,q),
(460,-398,l),
(460,-486,o),
(379,-580,o),
(298,-600,q),
(298,-694,l),
(432,-682,o)
);
},
{
closed = 1;
nodes = (
(818,21,qs),
(818,72,o),
(761,120,q),
(783,132,o),
(804,168,qs),
(818,192,o),
(818,236,o),
(814,250,qs),
(802,288,o),
(778,288,q),
(739,249,o),
(675,219,o),
(610,219,q),
(510,213,ls),
(489,213,o),
(477,239,o),
(477,283,qs),
(478,395,ls),
(478,579,o),
(516,657,qs),
(532,690,o),
(565,729,o),
(587,749,o),
(587,767,o),
(565,787,o),
(532,825,o),
(500,893,o),
(478,1042,o),
(478,1285,o),
(531,1438,o),
(599,1503,q),
(596,1521,o),
(574,1541,qs),
(564,1550,o),
(521,1562,o),
(440,1562,o),
(391,1526,qs),
(373,1512,o),
(334,1467,o),
(329,1457,q),
(311,1494,o),
(273,1525,qs),
(255,1540,o),
(196,1562,o),
(135,1562,o),
(114,1556,qs),
(58,1539,o),
(58,1503,q),
(126,1438,o),
(179,1285,o),
(179,940,o),
(141,859,qs),
(125,825,o),
(92,787,o),
(70,767,o),
(70,749,o),
(92,729,o),
(108,710,qs),
(179,626,o),
(179,395,qs),
(179,320,ls),
(179,297,o),
(177,221,o),
(172,188,o),
(165,134,o),
(152,109,o),
(144,90,qs),
(127,54,o),
(59,10,q),
(63,-5,ls),
(67,-20,o),
(119,-50,o),
(216,-50,o),
(275,3,qs),
(306,30,o),
(320,64,q),
(398,-50,o),
(463,-50,qs),
(490,-50,o),
(584,10,o),
(684,10,o),
(778,-50,q),
(818,-40,o)
);
}
);
};
layerId = m01;
shapes = (
{
ref = L;
},
{
pos = (217,0);
ref = commaaccentcomb;
}
);
width = 873;
}
);
note = Lcommaaccent;
unicode = 315;
},
{
glyphname = Ldot;
kernLeft = H;
kernRight = L;
lastChange = "2023-11-17 14:42:02 +0000";
layers = (
{
background = {
shapes = (
{
closed = 1;
nodes = (
(241,666,o),
(272,604,q),
(344,578,o),
(507,578,o),
(571,611,q),
(597,686,o),
(597,844,o),
(564,908,q),
(492,933,o),
(331,933,o),
(267,900,q),
(241,828,o)
);
},
{
closed = 1;
nodes = (
(818,21,qs),
(818,72,o),
(761,120,q),
(783,132,o),
(804,168,qs),
(818,192,o),
(818,236,o),
(814,250,qs),
(802,288,o),
(778,288,q),
(739,249,o),
(675,219,o),
(610,219,q),
(510,213,ls),
(489,213,o),
(477,239,o),
(477,283,qs),
(478,395,ls),
(478,579,o),
(516,657,qs),
(532,690,o),
(565,729,o),
(587,749,o),
(587,767,o),
(565,787,o),
(532,825,o),
(500,893,o),
(478,1042,o),
(478,1285,o),
(531,1438,o),
(599,1503,q),
(596,1521,o),
(574,1541,qs),
(564,1550,o),
(521,1562,o),
(440,1562,o),
(391,1526,qs),
(373,1512,o),
(334,1467,o),
(329,1457,q),
(311,1494,o),
(273,1525,qs),
(255,1540,o),
(196,1562,o),
(135,1562,o),
(114,1556,qs),
(58,1539,o),
(58,1503,q),
(126,1438,o),
(179,1285,o),
(179,940,o),
(141,859,qs),
(125,825,o),
(92,787,o),
(70,767,o),
(70,749,o),
(92,729,o),
(108,710,qs),
(179,626,o),
(179,395,qs),
(179,320,ls),
(179,297,o),
(177,221,o),
(172,188,o),
(165,134,o),
(152,109,o),
(144,90,qs),
(127,54,o),
(59,10,q),
(63,-5,ls),
(67,-20,o),
(119,-50,o),
(216,-50,o),
(275,3,qs),
(306,30,o),
(320,64,q),
(398,-50,o),
(463,-50,qs),
(490,-50,o),
(584,10,o),
(684,10,o),
(778,-50,q),
(818,-40,o)
);
}
);
};
layerId = m01;
shapes = (
{
ref = L;
},
{
pos = (524,-108);
ref = periodcentered;
scale = (0.9226,0.9226);
}
);
width = 873;
}
);
note = Ldot;
unicode = 319;
},
{
glyphname = Lslash;
kernLeft = H;
kernRight = L;
lastChange = "2023-11-17 14:42:02 +0000";
layers = (
{
background = {
shapes = (
{
closed = 1;
nodes = (
(711,728,o),
(733,748,o),
(733,767,o),
(711,787,o),
(678,825,o),
(646,893,o),
(624,1042,o),
(624,1285,o),
(677,1438,o),
(745,1503,q),
(742,1521,o),
(720,1541,qs),
(710,1550,o),
(667,1562,o),
(586,1562,o),
(537,1526,qs),
(519,1512,o),
(480,1467,o),
(475,1457,q),
(457,1494,o),
(419,1525,qs),
(401,1540,o),
(342,1562,o),
(281,1562,o),
(260,1556,qs),
(204,1539,o),
(204,1503,q),
(272,1438,o),
(325,1285,o),
(325,972,o),
(297,888,qs),
(285,852,o),
(256,803,o),
(232,784,o),
(216,766,o),
(216,748,o),
(260,708,o),
(286,652,qs),
(325,570,o),
(325,375,qs),
(325,291,ls),
(325,265,o),
(322,182,o),
(316,147,o),
(304,91,o),
(287,64,o),
(253,15,o),
(205,-14,q),
(209,-29,ls),
(213,-44,o),
(265,-74,o),
(362,-74,o),
(421,-21,qs),
(452,6,o),
(466,40,q),
(544,-73,o),
(609,-73,qs),
(636,-73,o),
(750,-14,o),
(785,-14,qs),
(870,-14,o),
(964,-74,q),
(1004,-64,o),
(1004,-3,qs),
(1004,48,o),
(947,96,q),
(969,108,o),
(990,144,qs),
(1004,168,o),
(1004,212,o),
(1000,226,qs),
(988,264,o),
(964,264,q),
(927,227,o),
(843,195,o),
(636,195,o),
(636,200,q),
(624,232,o),
(624,473,o),
(646,617,o),
(678,687,o)
);
},
{
closed = 1;
nodes = (
(46,828,l),
(46,659,l),
(1082,659,l),
(1082,828,l)
);
}
);
};
layerId = m01;
shapes = (
{
closed = 1;
nodes = (
(346,-74,o),
(382,-56,o),
(421,-21,cs),
(442,-3,o),
(457,17,o),
(466,40,c),
(518,-35,o),
(566,-73,o),
(609,-73,cs),
(627,-73,o),
(655,-63,o),
(693,-43,cs),
(731,-24,o),
(762,-14,o),
(785,-14,cs),
(842,-14,o),
(901,-34,o),
(964,-74,c),
(991,-67,o),
(1004,-44,o),
(1004,-3,cs),
(1004,31,o),
(985,64,o),
(947,96,c),
(962,104,o),
(976,120,o),
(990,144,cs),
(999,160,o),
(1004,175,o),
(1004,190,cs),
(1004,205,o),
(1003,217,o),
(1000,226,cs),
(992,251,o),
(980,264,o),
(964,264,c),
(915,215,o),
(878,195,o),
(740,195,cs),
(671,195,o),
(636,197,o),
(636,200,c),
(618,247,o),
(621,456,o),
(635,545,cs),
(642,593,o),
(651,629,o),
(662,652,cs),
(683,699,o),
(707,725,o),
(722,738,cs),
(747,761,o),
(726,769,o),
(695,806,cs),
(684,819,o),
(673,836,o),
(662,859,cs),
(651,882,o),
(642,918,o),
(635,968,cs),
(620,1071,o),
(614,1257,o),
(651,1362,cs),
(668,1413,o),
(700,1460,o),
(745,1503,c),
(743,1515,o),
(735,1528,o),
(720,1541,cs),
(705,1555,o),
(674,1562,o),
(627,1562,cs),
(600,1562,o),
(570,1550,o),
(537,1526,cs),
(513,1507,o),
(482,1470,o),
(475,1457,c),
(463,1482,o),
(444,1504,o),
(419,1525,cs),
(376,1561,o),
(305,1569,o),
(260,1556,cs),
(223,1545,o),
(204,1527,o),
(204,1503,c),
(295,1416,o),
(325,1337,o),
(325,1129,cs),
(325,1024,o),
(316,944,o),
(297,888,cs),
(281,840,o),
(260,806,o),
(244,794,cs),
(236,787,o),
(229,781,o),
(224,775,cs),
(209,758,o),
(216,748,o),
(238,728,cs),
(253,715,o),
(269,689,o),
(286,652,cs),
(312,597,o),
(325,505,o),
(325,375,cs),
(325,291,ls),
(325,256,o),
(323,188,o),
(319,165,cs),
(310,119,ls),
(302,82,o),
(293,72,o),
(270,40,cs),
(259,23,o),
(237,5,o),
(205,-14,c),
(209,-29,ls),
(215,-51,o),
(255,-74,o),
(314,-74,cs)
);
},
{
closed = 1;
nodes = (
(915,855,l),
(915,1074,l),
(100,594,l),
(100,375,l)
);
}
);
width = 1135;
}
);
note = Lslash;
unicode = 321;
},
{
glyphname = M;
kernLeft = M;
kernRight = M;
lastChange = "2023-11-17 14:42:02 +0000";
layers = (
{
anchors = (
{
name = bottom;
pos = (749,0);
},
{
name = top;
pos = (749,1562);
}
);
background = {
shapes = (
{
closed = 1;
nodes = (
(705,351,o),
(746,421,q),
(768,377,o),
(809,358,qs),
(825,351,o),
(852,351,o),
(867,354,o),
(878,359,o),
(885,364,o),
(887,367,qs),
(891,373,o),
(892,378,q),
(874,405,o),
(874,451,qs),
(874,529,o),
(969,701,qs),
(1030,811,l),
(1033,661,o),
(1033,232,o),
(980,77,o),
(912,10,q),
(912,-26,o),
(969,-44,qs),
(990,-50,o),
(1064,-50,o),
(1146,8,o),
(1164,36,qs),
(1183,65,l),
(1198,28,o),
(1228,2,qs),
(1286,-50,o),
(1382,-50,o),
(1434,-20,o),
(1438,-5,qs),
(1442,10,l),
(1373,77,o),
(1321,232,o),
(1321,473,o),
(1343,617,o),
(1376,687,o),
(1408,728,o),
(1430,748,o),
(1430,766,o),
(1414,784,o),
(1390,803,o),
(1361,852,o),
(1349,888,qs),
(1321,972,o),
(1321,1288,o),
(1373,1436,o),
(1442,1503,q),
(1442,1539,o),
(1386,1556,qs),
(1365,1562,o),
(1337,1562,qs),
(1245,1562,o),
(1183,1457,q),
(1180,1461,o),
(1171,1475,o),
(1138,1512,o),
(1120,1526,qs),
(1073,1562,o),
(990,1562,o),
(947,1550,o),
(937,1541,qs),
(915,1521,o),
(912,1503,q),
(1003,1406,o),
(1022,1288,q),
(751,748,l),
(473,1310,l),
(496,1417,o),
(579,1503,q),
(579,1539,o),
(524,1556,qs),
(502,1562,o),
(474,1562,qs),
(376,1562,o),
(309,1457,q),
(278,1520,o),
(208,1550,qs),
(182,1562,o),
(110,1562,o),
(57,1532,o),
(53,1518,qs),
(49,1503,l),
(118,1436,o),
(170,1288,o),
(170,1042,o),
(148,893,o),
(116,825,o),
(83,787,o),
(61,767,o),
(61,748,o),
(83,728,o),
(116,687,o),
(132,652,qs),
(170,569,o),
(170,232,o),
(117,77,o),
(49,10,q),
(49,-26,o),
(105,-44,qs),
(126,-50,o),
(182,-50,o),
(233,-26,o),
(250,-10,qs),
(288,25,o),
(309,65,q),
(313,55,o),
(353,5,o),
(371,-10,qs),
(419,-50,o),
(519,-50,o),
(571,-20,o),
(575,-5,qs),
(579,10,l),
(511,77,o),
(458,232,o),
(458,375,qs),
(458,701,o),
(462,840,q),
(543,701,ls),
(619,570,o),
(619,466,qs),
(619,411,o),
(597,378,q),
(600,351,o)
);
}
);
};
layerId = m01;
shapes = (
{
closed = 1;
nodes = (
(155,-58,o),
(210,-47,o),
(250,-10,cs),
(275,13,o),
(295,38,o),
(309,65,c),
(314,52,o),
(347,10,o),
(371,-10,cs),
(431,-60,o),
(504,-59,o),
(545,-35,cs),
(562,-25,o),
(572,-15,o),
(575,-5,cs),
(579,10,l),
(488,99,o),
(458,184,o),
(458,375,cs),
(458,592,o),
(459,747,o),
(462,840,c),
(543,701,ls),
(594,614,o),
(619,535,o),
(619,466,cs),
(619,429,o),
(612,400,o),
(597,378,c),
(599,360,o),
(618,351,o),
(653,351,cs),
(688,351,o),
(719,374,o),
(746,421,c),
(761,392,o),
(782,371,o),
(809,358,cs),
(837,346,o),
(862,352,o),
(873,357,cs),
(880,360,o),
(884,363,o),
(887,367,cs),
(890,371,o),
(891,375,o),
(892,378,c),
(880,396,o),
(874,420,o),
(874,451,cs),
(874,503,o),
(906,586,o),
(969,701,cs),
(1030,811,l),
(1034,628,o),
(1044,265,o),
(1007,155,cs),
(989,103,o),
(957,55,o),
(912,10,c),
(912,-14,o),
(931,-32,o),
(969,-44,cs),
(998,-52,o),
(1050,-60,o),
(1105,-21,cs),
(1132,-2,o),
(1152,17,o),
(1164,36,cs),
(1183,65,l),
(1193,40,o),
(1208,19,o),
(1228,2,cs),
(1313,-74,o),
(1382,-50,o),
(1408,-35,cs),
(1425,-25,o),
(1435,-15,o),
(1438,-5,cs),
(1442,10,l),
(1350,99,o),
(1321,192,o),
(1321,353,cs),
(1321,433,o),
(1325,497,o),
(1332,545,cs),
(1339,593,o),
(1349,629,o),
(1360,652,cs),
(1382,699,o),
(1404,725,o),
(1419,738,cs),
(1452,768,o),
(1408,773,o),
(1376,828,cs),
(1366,844,o),
(1357,864,o),
(1349,888,cs),
(1312,1000,o),
(1311,1260,o),
(1347,1362,cs),
(1364,1411,o),
(1396,1458,o),
(1442,1503,c),
(1442,1527,o),
(1423,1545,o),
(1386,1556,cs),
(1372,1560,o),
(1356,1562,o),
(1337,1562,cs),
(1276,1562,o),
(1224,1527,o),
(1183,1457,c),
(1167,1478,o),
(1151,1502,o),
(1120,1526,cs),
(1060,1572,o),
(1004,1566,o),
(969,1556,cs),
(954,1552,o),
(944,1547,o),
(937,1541,cs),
(922,1528,o),
(914,1515,o),
(912,1503,c),
(973,1438,o),
(1009,1367,o),
(1022,1288,c),
(751,748,l),
(473,1310,l),
(488,1381,o),
(524,1446,o),
(579,1503,c),
(579,1527,o),
(561,1545,o),
(524,1556,cs),
(509,1560,o),
(493,1562,o),
(474,1562,cs),
(409,1562,o),
(354,1527,o),
(309,1457,c),
(288,1499,o),
(255,1530,o),
(208,1550,cs),
(172,1566,o),
(119,1567,o),
(84,1547,cs),
(66,1537,o),
(56,1527,o),
(53,1518,cs),
(49,1503,l),
(141,1414,o),
(170,1329,o),
(170,1165,cs),
(170,1083,o),
(166,1017,o),
(159,968,cs),
(152,918,o),
(143,882,o),
(132,859,cs),
(111,814,o),
(87,790,o),
(72,777,cs),
(57,764,o),
(57,751,o),
(72,738,cs),
(87,725,o),
(111,699,o),
(132,652,cs),
(184,539,o),
(180,261,o),
(144,155,cs),
(126,103,o),
(94,55,o),
(49,10,c),
(49,-14,o),
(68,-32,o),
(105,-44,cs)
);
}
);
width = 1497;
}
);
note = M;
unicode = 77;
},
{
glyphname = N;
kernLeft = H;
kernRight = H;
lastChange = "2023-11-17 14:50:00 +0000";
layers = (
{
anchors = (
{
name = bottom;
pos = (661,0);
},
{
name = top;
pos = (661,1562);
}
);
background = {
shapes = (
{
closed = 1;
nodes = (
(495,-50,qs),
(523,-50,o),
(544,-44,qs),
(600,-27,o),
(600,10,q),
(531,77,o),
(479,232,o),
(479,658,o),
(485,781,q),
(835,284,l),
(828,185,o),
(775,63,o),
(716,10,q),
(720,-11,o),
(740,-29,qs),
(751,-38,o),
(793,-50,o),
(876,-50,o),
(924,-10,qs),
(942,5,o),
(982,55,o),
(986,65,q),
(1004,36,ls),
(1023,8,o),
(1105,-50,o),
(1180,-50,o),
(1201,-44,qs),
(1257,-26,o),
(1257,10,q),
(1188,77,o),
(1136,231,o),
(1136,569,o),
(1174,652,qs),
(1190,687,o),
(1223,728,o),
(1245,748,o),
(1245,767,o),
(1223,787,o),
(1190,825,o),
(1158,893,o),
(1136,1042,o),
(1136,1288,o),
(1188,1436,o),
(1257,1503,q),
(1253,1518,ls),
(1249,1532,o),
(1196,1562,o),
(1096,1562,o),
(1048,1526,qs),
(1031,1512,o),
(998,1475,o),
(989,1461,o),
(986,1457,q),
(919,1562,o),
(821,1562,qs),
(793,1562,o),
(772,1556,qs),
(716,1539,o),
(716,1503,q),
(785,1436,o),
(837,1288,o),
(837,1148,qs),
(837,838,o),
(805,741,q),
(480,1251,l),
(486,1343,o),
(539,1454,o),
(600,1503,q),
(596,1518,ls),
(592,1532,o),
(540,1562,o),
(441,1562,o),
(392,1526,qs),
(374,1512,o),
(335,1467,o),
(330,1457,q),
(263,1562,o),
(165,1562,qs),
(136,1562,o),
(115,1556,qs),
(59,1538,o),
(59,1503,q),
(128,1436,o),
(180,1288,o),
(180,940,o),
(142,859,qs),
(126,825,o),
(93,787,o),
(71,767,o),
(71,748,o),
(93,728,o),
(126,687,o),
(158,617,o),
(180,473,o),
(180,232,o),
(128,77,o),
(59,10,q),
(63,-5,ls),
(67,-20,o),
(120,-50,o),
(165,-50,qs),
(261,-50,o),
(330,65,q),
(397,-50,o)
);
}
);
};
layerId = m01;
shapes = (
{
closed = 1;
nodes = (
(229,-50,o),
(284,-12,o),
(330,65,c),
(375,-12,o),
(430,-50,o),
(495,-50,cs),
(514,-50,o),
(530,-48,o),
(544,-44,cs),
(581,-33,o),
(600,-15,o),
(600,10,c),
(508,99,o),
(479,161,o),
(479,445,cs),
(479,587,o),
(481,699,o),
(485,781,c),
(835,284,l),
(826,152,o),
(795,81,o),
(716,10,c),
(719,-4,o),
(727,-17,o),
(740,-29,cs),
(757,-43,o),
(786,-50,o),
(835,-50,cs),
(862,-50,o),
(892,-37,o),
(924,-10,cs),
(948,10,o),
(981,52,o),
(986,65,c),
(1004,36,ls),
(1029,-1,o),
(1093,-50,o),
(1143,-50,cs),
(1168,-50,o),
(1187,-48,o),
(1201,-44,cs),
(1238,-32,o),
(1257,-14,o),
(1257,10,c),
(1165,99,o),
(1136,175,o),
(1136,400,cs),
(1136,513,o),
(1149,597,o),
(1174,652,cs),
(1195,699,o),
(1219,725,o),
(1234,738,cs),
(1241,745,o),
(1245,751,o),
(1245,758,cs),
(1245,799,o),
(1170,813,o),
(1147,968,cs),
(1123,1130,o),
(1138,1293,o),
(1162,1362,cs),
(1179,1411,o),
(1211,1458,o),
(1257,1503,c),
(1253,1518,ls),
(1247,1539,o),
(1206,1562,o),
(1146,1562,cs),
(1113,1562,o),
(1080,1550,o),
(1048,1526,cs),
(1018,1501,o),
(1003,1479,o),
(986,1457,c),
(941,1527,o),
(886,1562,o),
(821,1562,cs),
(802,1562,o),
(786,1560,o),
(772,1556,cs),
(735,1545,o),
(716,1527,o),
(716,1503,c),
(808,1414,o),
(837,1335,o),
(837,1148,cs),
(837,941,o),
(826,806,o),
(805,741,c),
(480,1251,l),
(488,1374,o),
(519,1438,o),
(600,1503,c),
(596,1518,ls),
(590,1539,o),
(550,1562,o),
(491,1562,cs),
(458,1562,o),
(425,1550,o),
(392,1526,cs),
(368,1507,o),
(337,1470,o),
(330,1457,c),
(285,1527,o),
(230,1562,o),
(165,1562,cs),
(146,1562,o),
(129,1560,o),
(115,1556,cs),
(78,1544,o),
(59,1526,o),
(59,1503,c),
(151,1414,o),
(180,1346,o),
(180,1114,cs),
(180,998,o),
(167,913,o),
(142,859,cs),
(121,814,o),
(97,790,o),
(82,777,cs),
(75,770,o),
(71,764,o),
(71,758,cs),
(71,723,o),
(147,686,o),
(169,545,cs),
(184,445,o),
(189,260,o),
(154,155,cs),
(137,103,o),
(105,55,o),
(59,10,c),
(63,-5,ls),
(68,-25,o),
(105,-50,o),
(165,-50,cs)
);
}
);
width = 1322;
}
);
note = N;
unicode = 78;
},
{
glyphname = Nacute;
kernLeft = H;
kernRight = H;
lastChange = "2023-11-17 14:42:02 +0000";
layers = (
{
background = {
shapes = (
{
closed = 1;
nodes = (
(998,1937,o),
(1016,1994,q),
(990,2036,o),
(914,2036,qs),
(876,2036,o),
(824,2011,qs),
(808,2003,o),
(742,1965,o),
(733,1960,q),
(563,1688,l),
(688,1688,l),
(933,1886,ls)
);
},
{
closed = 1;
nodes = (
(495,-50,qs),
(523,-50,o),
(544,-44,qs),
(600,-27,o),
(600,10,q),
(531,77,o),
(479,232,o),
(479,658,o),
(485,781,q),
(835,284,l),
(828,185,o),
(775,63,o),
(716,10,q),
(720,-11,o),
(740,-29,qs),
(751,-38,o),
(793,-50,o),
(876,-50,o),
(924,-10,qs),
(942,5,o),
(982,55,o),
(986,65,q),
(1004,36,ls),
(1023,8,o),
(1105,-50,o),
(1180,-50,o),
(1201,-44,qs),
(1257,-26,o),
(1257,10,q),
(1188,77,o),
(1136,231,o),
(1136,569,o),
(1174,652,qs),
(1190,687,o),
(1223,728,o),
(1245,748,o),
(1245,767,o),
(1223,787,o),
(1190,825,o),
(1158,893,o),
(1136,1042,o),
(1136,1288,o),
(1188,1436,o),
(1257,1503,q),
(1253,1518,ls),
(1249,1532,o),
(1196,1562,o),
(1096,1562,o),
(1048,1526,qs),
(1031,1512,o),
(998,1475,o),
(989,1461,o),
(986,1457,q),
(919,1562,o),
(821,1562,qs),
(793,1562,o),
(772,1556,qs),
(716,1539,o),
(716,1503,q),
(785,1436,o),
(837,1288,o),
(837,1148,qs),
(837,838,o),
(805,741,q),
(480,1251,l),
(486,1343,o),
(539,1454,o),
(600,1503,q),
(596,1518,ls),
(592,1532,o),
(540,1562,o),
(441,1562,o),
(392,1526,qs),
(374,1512,o),
(335,1467,o),
(330,1457,q),
(263,1562,o),
(165,1562,qs),
(136,1562,o),
(115,1556,qs),
(59,1538,o),
(59,1503,q),
(128,1436,o),
(180,1288,o),
(180,940,o),
(142,859,qs),
(126,825,o),
(93,787,o),
(71,767,o),
(71,748,o),
(93,728,o),
(126,687,o),
(158,617,o),
(180,473,o),
(180,232,o),
(128,77,o),
(59,10,q),
(63,-5,ls),
(67,-20,o),
(120,-50,o),
(165,-50,qs),
(261,-50,o),
(330,65,q),
(397,-50,o)
);
}
);
};
layerId = m01;
shapes = (
{
ref = N;
},
{
pos = (531,273);
ref = acutecomb;
}
);
width = 1322;
}
);
note = Nacute;
unicode = 323;
},
{
glyphname = Ncaron;
kernLeft = H;
kernRight = H;
lastChange = "2023-11-17 14:42:02 +0000";
layers = (
{
background = {
shapes = (
{
closed = 1;
nodes = (
(857,2024,l),
(663,1836,l),
(462,2024,l),
(334,2024,l),
(547,1688,l),
(775,1688,l),
(982,2024,l)
);
},
{
closed = 1;
nodes = (
(495,-50,qs),
(523,-50,o),
(544,-44,qs),
(600,-27,o),
(600,10,q),
(531,77,o),
(479,232,o),
(479,658,o),
(485,781,q),
(835,284,l),
(828,185,o),
(775,63,o),
(716,10,q),
(720,-11,o),
(740,-29,qs),
(751,-38,o),
(793,-50,o),
(876,-50,o),
(924,-10,qs),
(942,5,o),
(982,55,o),
(986,65,q),
(1004,36,ls),
(1023,8,o),
(1105,-50,o),
(1180,-50,o),
(1201,-44,qs),
(1257,-26,o),
(1257,10,q),
(1188,77,o),
(1136,231,o),
(1136,569,o),
(1174,652,qs),
(1190,687,o),
(1223,728,o),
(1245,748,o),
(1245,767,o),
(1223,787,o),
(1190,825,o),
(1158,893,o),
(1136,1042,o),
(1136,1288,o),
(1188,1436,o),
(1257,1503,q),
(1253,1518,ls),
(1249,1532,o),
(1196,1562,o),
(1096,1562,o),
(1048,1526,qs),
(1031,1512,o),
(998,1475,o),
(989,1461,o),
(986,1457,q),
(919,1562,o),
(821,1562,qs),
(793,1562,o),
(772,1556,qs),
(716,1539,o),
(716,1503,q),
(785,1436,o),
(837,1288,o),
(837,1148,qs),
(837,838,o),
(805,741,q),
(480,1251,l),
(486,1343,o),
(539,1454,o),
(600,1503,q),
(596,1518,ls),
(592,1532,o),
(540,1562,o),
(441,1562,o),
(392,1526,qs),
(374,1512,o),
(335,1467,o),
(330,1457,q),
(263,1562,o),
(165,1562,qs),
(136,1562,o),
(115,1556,qs),
(59,1538,o),
(59,1503,q),
(128,1436,o),
(180,1288,o),
(180,940,o),
(142,859,qs),
(126,825,o),
(93,787,o),
(71,767,o),
(71,748,o),
(93,728,o),
(126,687,o),
(158,617,o),
(180,473,o),
(180,232,o),
(128,77,o),
(59,10,q),
(63,-5,ls),
(67,-20,o),
(120,-50,o),
(165,-50,qs),
(261,-50,o),
(330,65,q),
(397,-50,o)
);
}
);
};
layerId = m01;
shapes = (
{
ref = N;
},
{
pos = (271,276);
ref = caroncomb;
}
);
width = 1322;
}
);
note = Ncaron;
unicode = 327;
},
{
glyphname = Ncommaaccent;
kernLeft = H;
kernRight = H;
lastChange = "2023-11-17 14:42:02 +0000";
layers = (
{
background = {
shapes = (
{
closed = 1;
nodes = (
(807,-523,o),
(807,-287,o),
(780,-187,q),
(715,-152,o),
(599,-152,o),
(524,-195,o),
(508,-228,q),
(508,-332,o),
(570,-414,q),
(642,-414,o),
(678,-398,q),
(680,-398,l),
(680,-486,o),
(599,-580,o),
(518,-600,q),
(518,-694,l),
(652,-682,o)
);
},
{
closed = 1;
nodes = (
(495,-50,qs),
(523,-50,o),
(544,-44,qs),
(600,-27,o),
(600,10,q),
(531,77,o),
(479,232,o),
(479,658,o),
(485,781,q),
(835,284,l),
(828,185,o),
(775,63,o),
(716,10,q),
(720,-11,o),
(740,-29,qs),
(751,-38,o),
(793,-50,o),
(876,-50,o),
(924,-10,qs),
(942,5,o),
(982,55,o),
(986,65,q),
(1004,36,ls),
(1023,8,o),
(1105,-50,o),
(1180,-50,o),
(1201,-44,qs),
(1257,-26,o),
(1257,10,q),
(1188,77,o),
(1136,231,o),
(1136,569,o),
(1174,652,qs),
(1190,687,o),
(1223,728,o),
(1245,748,o),
(1245,767,o),
(1223,787,o),
(1190,825,o),
(1158,893,o),
(1136,1042,o),
(1136,1288,o),
(1188,1436,o),
(1257,1503,q),
(1253,1518,ls),
(1249,1532,o),
(1196,1562,o),
(1096,1562,o),
(1048,1526,qs),
(1031,1512,o),
(998,1475,o),
(989,1461,o),
(986,1457,q),
(919,1562,o),
(821,1562,qs),
(793,1562,o),
(772,1556,qs),
(716,1539,o),
(716,1503,q),
(785,1436,o),
(837,1288,o),
(837,1148,qs),
(837,838,o),
(805,741,q),
(480,1251,l),
(486,1343,o),
(539,1454,o),
(600,1503,q),
(596,1518,ls),
(592,1532,o),
(540,1562,o),
(441,1562,o),
(392,1526,qs),
(374,1512,o),
(335,1467,o),
(330,1457,q),
(263,1562,o),
(165,1562,qs),
(136,1562,o),
(115,1556,qs),
(59,1538,o),
(59,1503,q),
(128,1436,o),
(180,1288,o),
(180,940,o),
(142,859,qs),
(126,825,o),
(93,787,o),
(71,767,o),
(71,748,o),
(93,728,o),
(126,687,o),
(158,617,o),
(180,473,o),
(180,232,o),
(128,77,o),
(59,10,q),
(63,-5,ls),
(67,-20,o),
(120,-50,o),
(165,-50,qs),
(261,-50,o),
(330,65,q),
(397,-50,o)
);
}
);
};
layerId = m01;
shapes = (
{
ref = N;
},
{
pos = (441,0);
ref = commaaccentcomb;
}
);
width = 1322;
}
);
note = Ncommaaccent;
unicode = 325;
},
{
glyphname = Ntilde;
kernLeft = H;
kernRight = H;
lastChange = "2023-11-17 14:42:02 +0000";
layers = (
{
background = {
shapes = (
{
closed = 1;
nodes = (
(623,1744,o),
(746,1688,o),
(800,1688,qs),
(893,1688,o),
(1001,1839,o),
(1011,1956,q),
(912,1956,l),
(892,1847,o),
(827,1847,qs),
(795,1847,o),
(742,1875,qs),
(583,1959,o),
(519,1959,qs),
(428,1959,o),
(312,1817,o),
(306,1696,q),
(405,1696,l),
(414,1800,o),
(478,1800,qs),
(514,1800,o)
);
},
{
closed = 1;
nodes = (
(495,-50,qs),
(523,-50,o),
(544,-44,qs),
(600,-27,o),
(600,10,q),
(531,77,o),
(479,232,o),
(479,658,o),
(485,781,q),
(835,284,l),
(828,185,o),
(775,63,o),
(716,10,q),
(720,-11,o),
(740,-29,qs),
(751,-38,o),
(793,-50,o),
(876,-50,o),
(924,-10,qs),
(942,5,o),
(982,55,o),
(986,65,q),
(1004,36,ls),
(1023,8,o),
(1105,-50,o),
(1180,-50,o),
(1201,-44,qs),
(1257,-26,o),
(1257,10,q),
(1188,77,o),
(1136,231,o),
(1136,569,o),
(1174,652,qs),
(1190,687,o),
(1223,728,o),
(1245,748,o),
(1245,767,o),
(1223,787,o),
(1190,825,o),
(1158,893,o),
(1136,1042,o),
(1136,1288,o),
(1188,1436,o),
(1257,1503,q),
(1253,1518,ls),
(1249,1532,o),
(1196,1562,o),
(1096,1562,o),
(1048,1526,qs),
(1031,1512,o),
(998,1475,o),
(989,1461,o),
(986,1457,q),
(919,1562,o),
(821,1562,qs),
(793,1562,o),
(772,1556,qs),
(716,1539,o),
(716,1503,q),
(785,1436,o),
(837,1288,o),
(837,1148,qs),
(837,838,o),
(805,741,q),
(480,1251,l),
(486,1343,o),
(539,1454,o),
(600,1503,q),
(596,1518,ls),
(592,1532,o),
(540,1562,o),
(441,1562,o),
(392,1526,qs),
(374,1512,o),
(335,1467,o),
(330,1457,q),
(263,1562,o),
(165,1562,qs),
(136,1562,o),
(115,1556,qs),
(59,1538,o),
(59,1503,q),
(128,1436,o),
(180,1288,o),
(180,940,o),
(142,859,qs),
(126,825,o),
(93,787,o),
(71,767,o),
(71,748,o),
(93,728,o),
(126,687,o),
(158,617,o),
(180,473,o),
(180,232,o),
(128,77,o),
(59,10,q),
(63,-5,ls),
(67,-20,o),
(120,-50,o),
(165,-50,qs),
(261,-50,o),
(330,65,q),
(397,-50,o)
);
}
);
};
layerId = m01;
shapes = (
{
ref = N;
},
{
pos = (228,273);
ref = tildecomb;
}
);
width = 1322;
}
);
note = Ntilde;
unicode = 209;
},
{
glyphname = Eng;
kernLeft = H;
kernRight = J;
lastChange = "2023-11-17 14:50:03 +0000";
layers = (
{
anchors = (
{
name = bottom;
pos = (652,-420);
},
{
name = top;
pos = (652,1562);
}
);
layerId = m01;
shapes = (
{
closed = 1;
nodes = (
(638,-447,o),
(700,-427,o),
(759,-427,cs),
(1028,-427,o),
(1138,-273,o),
(1138,106,cs),
(1138,191,o),
(1136,313,o),
(1136,400,cs),
(1136,513,o),
(1149,597,o),
(1174,652,cs),
(1195,699,o),
(1219,725,o),
(1234,738,cs),
(1241,745,o),
(1245,751,o),
(1245,758,cs),
(1245,799,o),
(1170,813,o),
(1147,968,cs),
(1123,1130,o),
(1138,1293,o),
(1162,1362,cs),
(1179,1411,o),
(1211,1458,o),
(1257,1503,c),
(1253,1518,ls),
(1247,1539,o),
(1206,1562,o),
(1146,1562,cs),
(1113,1562,o),
(1080,1550,o),
(1048,1526,cs),
(1018,1501,o),
(1003,1479,o),
(986,1457,c),
(941,1527,o),
(886,1562,o),
(821,1562,cs),
(802,1562,o),
(786,1560,o),
(772,1556,cs),
(735,1545,o),
(716,1527,o),
(716,1503,c),
(808,1414,o),
(837,1335,o),
(837,1148,cs),
(837,941,o),
(826,806,o),
(805,741,c),
(480,1251,l),
(488,1374,o),
(519,1438,o),
(600,1503,c),
(596,1518,ls),
(590,1539,o),
(550,1562,o),
(491,1562,cs),
(458,1562,o),
(425,1550,o),
(392,1526,cs),
(368,1507,o),
(337,1470,o),
(330,1457,c),
(285,1527,o),
(230,1562,o),
(165,1562,cs),
(146,1562,o),
(129,1560,o),
(115,1556,cs),
(78,1544,o),
(59,1526,o),
(59,1503,c),
(151,1414,o),
(180,1346,o),
(180,1114,cs),
(180,998,o),
(167,913,o),
(142,859,cs),
(121,814,o),
(97,790,o),
(82,777,cs),
(75,770,o),
(71,764,o),
(71,758,cs),
(71,723,o),
(147,686,o),
(169,545,cs),
(184,445,o),
(189,260,o),
(154,155,cs),
(137,103,o),
(105,55,o),
(59,10,c),
(63,-5,ls),
(68,-25,o),
(105,-50,o),
(165,-50,cs),
(229,-50,o),
(284,-12,o),
(330,65,c),
(375,-12,o),
(430,-50,o),
(495,-50,cs),
(514,-50,o),
(530,-48,o),
(544,-44,cs),
(581,-33,o),
(600,-15,o),
(600,10,c),
(508,99,o),
(479,161,o),
(479,445,cs),
(479,587,o),
(481,699,o),
(485,781,c),
(835,284,l),
(837,242,o),
(839,215,o),
(839,107,cs),
(839,53,ls),
(839,28,o),
(838,-19,o),
(836,-39,cs),
(834,-60,o),
(830,-95,o),
(825,-110,cs),
(820,-126,o),
(816,-146,o),
(789,-169,cs),
(776,-181,o),
(755,-187,o),
(728,-187,cs),
(662,-187,o),
(610,-164,o),
(573,-118,c),
(563,-121,o),
(554,-126,o),
(547,-135,cs),
(539,-144,o),
(533,-162,o),
(533,-196,cs),
(533,-230,o),
(561,-283,o),
(590,-307,c),
(552,-340,o),
(533,-376,o),
(533,-416,cs),
(533,-457,o),
(546,-480,o),
(573,-487,c)
);
}
);
width = 1304;
}
);
metricRight = J;
unicode = 330;
},
{
glyphname = O;
kernLeft = O;
kernRight = O;
lastChange = "2023-11-17 15:31:33 +0000";
layers = (
{
anchors = (
{
name = bottom;
pos = (621,0);
},
{
name = center;
pos = (621,781);
},
{
name = ogonek;
pos = (1117,10);
},
{
name = top;
pos = (621,1562);
},
{
name = topleft;
pos = (20,1562);
},
{
name = topright;
pos = (1221,1562);
}
);
background = {
shapes = (
{
closed = 1;
nodes = (
(526,650,qs),
(538,682,o),
(563,724,o),
(580,744,o),
(580,755,o),
(563,772,o),
(538,808,o),
(513,870,o),
(496,1000,o),
(496,1210,o),
(501,1262,qs),
(505,1304,o),
(521,1341,o),
(550,1379,o),
(595,1392,o),
(680,1392,o),
(702,1374,qs),
(716,1364,o),
(735,1344,o),
(748,1298,o),
(755,1262,o),
(758,1190,o),
(759,1138,o),
(759,980,o),
(732,834,o),
(701,785,o),
(674,755,o),
(674,745,o),
(692,728,o),
(704,708,qs),
(759,619,o),
(759,432,qs),
(759,376,ls),
(759,356,o),
(755,232,o),
(730,179,qs),
(712,140,o),
(663,131,qs),
(599,119,o),
(564,140,qs),
(551,148,o),
(532,161,o),
(518,191,o),
(497,235,o),
(497,365,qs),
(497,440,o),
(497,440,q),
(497,573,o)
);
},
{
closed = 1;
nodes = (
(1175,725,o),
(1202,746,o),
(1202,753,o),
(1190,762,qs),
(1092,844,o),
(1092,1077,qs),
(1092,1290,o),
(1037,1400,qs),
(1009,1455,o),
(935,1529,o),
(825,1570,o),
(707,1586,o),
(549,1586,o),
(430,1570,o),
(320,1529,o),
(245,1455,o),
(189,1344,o),
(162,1183,o),
(162,915,o),
(118,839,qs),
(100,808,o),
(64,771,o),
(38,754,o),
(38,746,o),
(51,737,qs),
(162,660,o),
(162,421,qs),
(162,138,o),
(283,20,qs),
(344,-40,o),
(512,-93,o),
(742,-93,o),
(910,-40,o),
(1032,79,o),
(1092,279,o),
(1092,504,o),
(1112,627,o),
(1150,696,o)
);
}
);
};
layerId = m01;
shapes = (
{
closed = 1;
nodes = (
(780,-93,o),
(890,-60,o),
(971,20,cs),
(1052,99,o),
(1092,242,o),
(1092,392,cs),
(1092,525,o),
(1103,610,o),
(1131,662,cs),
(1156,708,o),
(1171,722,o),
(1189,736,cs),
(1198,743,o),
(1202,747,o),
(1202,750,cs),
(1202,752,o),
(1198,756,o),
(1190,762,cs),
(1125,817,o),
(1092,922,o),
(1092,1077,cs),
(1092,1219,o),
(1074,1327,o),
(1037,1400,cs),
(1000,1473,o),
(953,1522,o),
(880,1550,cs),
(807,1577,o),
(733,1586,o),
(628,1586,cs),
(523,1586,o),
(448,1577,o),
(375,1550,cs),
(302,1522,o),
(254,1474,o),
(217,1400,cs),
(180,1326,o),
(162,1228,o),
(162,1049,cs),
(162,960,o),
(147,890,o),
(118,839,cs),
(72,760,o),
(16,761,o),
(51,737,cs),
(125,686,o),
(162,580,o),
(162,421,cs),
(162,232,o),
(202,99,o),
(283,20,cs),
(364,-60,o),
(474,-93,o),
(627,-93,cs)
);
},
{
closed = 1;
nodes = (
(620,123,o),
(587,126,o),
(564,140,cs),
(547,151,o),
(534,156,o),
(525,176,cs),
(508,213,ls),
(501,228,o),
(497,278,o),
(497,365,cs),
(497,440,ls),
(497,529,o),
(507,599,o),
(526,650,cs),
(549,711,o),
(580,741,o),
(580,750,cs),
(580,758,o),
(549,782,o),
(526,839,cs),
(517,860,o),
(510,892,o),
(505,935,cs),
(499,978,o),
(496,1035,o),
(496,1105,cs),
(496,1175,o),
(498,1227,o),
(501,1262,cs),
(506,1318,o),
(516,1335,o),
(536,1360,cs),
(545,1373,o),
(558,1381,o),
(573,1386,cs),
(588,1390,o),
(609,1392,o),
(638,1392,cs),
(666,1392,o),
(687,1386,o),
(702,1374,cs),
(726,1357,o),
(752,1334,o),
(757,1226,cs),
(759,1178,o),
(759,1164,o),
(759,1059,cs),
(759,954,o),
(737,842,o),
(717,810,cs),
(698,780,o),
(674,760,o),
(674,750,cs),
(674,747,o),
(677,742,o),
(683,737,cs),
(689,731,o),
(696,721,o),
(704,708,cs),
(741,649,o),
(759,557,o),
(759,432,cs),
(759,376,ls),
(759,349,o),
(763,250,o),
(730,179,cs),
(718,153,o),
(696,137,o),
(663,131,cs)
);
}
);
width = 1241;
}
);
note = O;
unicode = 79;
},
{
glyphname = Oacute;
kernLeft = O;
kernRight = O;
lastChange = "2023-11-17 14:42:02 +0000";
layers = (
{
background = {
shapes = (
{
closed = 1;
nodes = (
(992,1937,o),
(1010,1994,q),
(984,2036,o),
(908,2036,qs),
(870,2036,o),
(818,2011,qs),
(802,2003,o),
(736,1965,o),
(727,1960,q),
(557,1688,l),
(682,1688,l),
(927,1886,ls)
);
},
{
closed = 1;
nodes = (
(526,650,qs),
(538,682,o),
(563,724,o),
(580,744,o),
(580,755,o),
(563,772,o),
(538,808,o),
(513,870,o),
(496,1000,o),
(496,1210,o),
(501,1262,qs),
(505,1304,o),
(521,1341,o),
(550,1379,o),
(595,1392,o),
(680,1392,o),
(702,1374,qs),
(716,1364,o),
(735,1344,o),
(748,1298,o),
(755,1262,o),
(758,1190,o),
(759,1138,o),
(759,980,o),
(732,834,o),
(701,785,o),
(674,755,o),
(674,745,o),
(692,728,o),
(704,708,qs),
(759,619,o),
(759,432,qs),
(759,376,ls),
(759,356,o),
(755,232,o),
(730,179,qs),
(712,140,o),
(663,131,qs),
(599,119,o),
(564,140,qs),
(551,148,o),
(532,161,o),
(518,191,o),
(497,235,o),
(497,365,qs),
(497,440,o),
(497,440,q),
(497,573,o)
);
},
{
closed = 1;
nodes = (
(1175,725,o),
(1202,746,o),
(1202,753,o),
(1190,762,qs),
(1092,844,o),
(1092,1077,qs),
(1092,1290,o),
(1037,1400,qs),
(1009,1455,o),
(935,1529,o),
(825,1570,o),
(707,1586,o),
(549,1586,o),
(430,1570,o),
(320,1529,o),
(245,1455,o),
(189,1344,o),
(162,1183,o),
(162,915,o),
(118,839,qs),
(100,808,o),
(64,771,o),
(38,754,o),
(38,746,o),
(51,737,qs),
(162,660,o),
(162,421,qs),
(162,138,o),
(283,20,qs),
(344,-40,o),
(512,-93,o),
(742,-93,o),
(910,-40,o),
(1032,79,o),
(1092,279,o),
(1092,504,o),
(1112,627,o),
(1150,696,o)
);
}
);
};
layerId = m01;
shapes = (
{
ref = O;
},
{
pos = (491,273);
ref = acutecomb;
}
);
width = 1241;
}
);
note = Oacute;
unicode = 211;
},
{
glyphname = Obreve;
kernLeft = O;
kernRight = O;
lastChange = "2023-11-17 14:42:02 +0000";
layers = (
{
background = {
shapes = (
{
closed = 1;
nodes = (
(479,1688,o),
(754,1688,o),
(919,1854,o),
(929,1997,q),
(812,1997,l),
(785,1835,o),
(615,1835,qs),
(537,1835,o),
(438,1920,o),
(427,1997,q),
(311,1997,l),
(317,1860,o)
);
},
{
closed = 1;
nodes = (
(526,650,qs),
(538,682,o),
(563,724,o),
(580,744,o),
(580,755,o),
(563,772,o),
(538,808,o),
(513,870,o),
(496,1000,o),
(496,1210,o),
(501,1262,qs),
(505,1304,o),
(521,1341,o),
(550,1379,o),
(595,1392,o),
(680,1392,o),
(702,1374,qs),
(716,1364,o),
(735,1344,o),
(748,1298,o),
(755,1262,o),
(758,1190,o),
(759,1138,o),
(759,980,o),
(732,834,o),
(701,785,o),
(674,755,o),
(674,745,o),
(692,728,o),
(704,708,qs),
(759,619,o),
(759,432,qs),
(759,376,ls),
(759,356,o),
(755,232,o),
(730,179,qs),
(712,140,o),
(663,131,qs),
(599,119,o),
(564,140,qs),
(551,148,o),
(532,161,o),
(518,191,o),
(497,235,o),
(497,365,qs),
(497,440,o),
(497,440,q),
(497,573,o)
);
},
{
closed = 1;
nodes = (
(1175,725,o),
(1202,746,o),
(1202,753,o),
(1190,762,qs),
(1092,844,o),
(1092,1077,qs),
(1092,1290,o),
(1037,1400,qs),
(1009,1455,o),
(935,1529,o),
(825,1570,o),
(707,1586,o),
(549,1586,o),
(430,1570,o),
(320,1529,o),
(245,1455,o),
(189,1344,o),
(162,1183,o),
(162,915,o),
(118,839,qs),
(100,808,o),
(64,771,o),
(38,754,o),
(38,746,o),
(51,737,qs),
(162,660,o),
(162,421,qs),
(162,138,o),
(283,20,qs),
(344,-40,o),
(512,-93,o),
(742,-93,o),
(910,-40,o),
(1032,79,o),
(1092,279,o),
(1092,504,o),
(1112,627,o),
(1150,696,o)
);
}
);
};
layerId = m01;
shapes = (
{
ref = O;
},
{
pos = (237,272);
ref = brevecomb;
}
);
width = 1241;
}
);
note = Obreve;
unicode = 334;
},
{
glyphname = Ocircumflex;
kernLeft = O;
kernRight = O;
lastChange = "2023-11-17 14:42:02 +0000";
layers = (
{
background = {
shapes = (
{
closed = 1;
nodes = (
(421,1688,l),
(619,1876,l),
(816,1688,l),
(944,1688,l),
(732,2024,l),
(504,2024,l),
(296,1688,l)
);
},
{
closed = 1;
nodes = (
(526,650,qs),
(538,682,o),
(563,724,o),
(580,744,o),
(580,755,o),
(563,772,o),
(538,808,o),
(513,870,o),
(496,1000,o),
(496,1210,o),
(501,1262,qs),
(505,1304,o),
(521,1341,o),
(550,1379,o),
(595,1392,o),
(680,1392,o),
(702,1374,qs),
(716,1364,o),
(735,1344,o),
(748,1298,o),
(755,1262,o),
(758,1190,o),
(759,1138,o),
(759,980,o),
(732,834,o),
(701,785,o),
(674,755,o),
(674,745,o),
(692,728,o),
(704,708,qs),
(759,619,o),
(759,432,qs),
(759,376,ls),
(759,356,o),
(755,232,o),
(730,179,qs),
(712,140,o),
(663,131,qs),
(599,119,o),
(564,140,qs),
(551,148,o),
(532,161,o),
(518,191,o),
(497,235,o),
(497,365,qs),
(497,440,o),
(497,440,q),
(497,573,o)
);
},
{
closed = 1;
nodes = (
(1175,725,o),
(1202,746,o),
(1202,753,o),
(1190,762,qs),
(1092,844,o),
(1092,1077,qs),
(1092,1290,o),
(1037,1400,qs),
(1009,1455,o),
(935,1529,o),
(825,1570,o),
(707,1586,o),
(549,1586,o),
(430,1570,o),
(320,1529,o),
(245,1455,o),
(189,1344,o),
(162,1183,o),
(162,915,o),
(118,839,qs),
(100,808,o),
(64,771,o),
(38,754,o),
(38,746,o),
(51,737,qs),
(162,660,o),
(162,421,qs),
(162,138,o),
(283,20,qs),
(344,-40,o),
(512,-93,o),
(742,-93,o),
(910,-40,o),
(1032,79,o),
(1092,279,o),
(1092,504,o),
(1112,627,o),
(1150,696,o)
);
}
);
};
layerId = m01;
shapes = (
{
ref = O;
},
{
pos = (227,273);
ref = circumflexcomb;
}
);
width = 1241;
}
);
note = Ocircumflex;
unicode = 212;
},
{
glyphname = Odblgrave;
kernLeft = O;
kernRight = O;
lastChange = "2023-11-17 14:42:02 +0000";
layers = (
{
background = {
shapes = (
{
closed = 1;
nodes = (
(367,1949,o),
(328,1981,o),
(315,1990,o),
(253,2031,o),
(201,2031,qs),
(138,2031,o),
(104,1995,q),
(128,1946,o),
(215,1857,qs),
(378,1688,l),
(496,1688,l),
(371,1946,l)
);
},
{
closed = 1;
nodes = (
(731,1951,o),
(693,1979,o),
(685,1985,qs),
(624,2031,o),
(558,2031,qs),
(498,2031,o),
(471,1995,q),
(498,1942,o),
(581,1857,qs),
(744,1688,l),
(862,1688,l),
(737,1946,l)
);
},
{
closed = 1;
nodes = (
(526,650,qs),
(538,682,o),
(563,724,o),
(580,744,o),
(580,755,o),
(563,772,o),
(538,808,o),
(513,870,o),
(496,1000,o),
(496,1210,o),
(501,1262,qs),
(505,1304,o),
(521,1341,o),
(550,1379,o),
(595,1392,o),
(680,1392,o),
(702,1374,qs),
(716,1364,o),
(735,1344,o),
(748,1298,o),
(755,1262,o),
(758,1190,o),
(759,1138,o),
(759,980,o),
(732,834,o),
(701,785,o),
(674,755,o),
(674,745,o),
(692,728,o),
(704,708,qs),
(759,619,o),
(759,432,qs),
(759,376,ls),
(759,356,o),
(755,232,o),
(730,179,qs),
(712,140,o),
(663,131,qs),
(599,119,o),
(564,140,qs),
(551,148,o),
(532,161,o),
(518,191,o),
(497,235,o),
(497,365,qs),
(497,440,o),
(497,440,q),
(497,573,o)
);
},
{
closed = 1;
nodes = (
(1175,725,o),
(1202,746,o),
(1202,753,o),
(1190,762,qs),
(1092,844,o),
(1092,1077,qs),
(1092,1290,o),
(1037,1400,qs),
(1009,1455,o),
(935,1529,o),
(825,1570,o),
(707,1586,o),
(549,1586,o),
(430,1570,o),
(320,1529,o),
(245,1455,o),
(189,1344,o),
(162,1183,o),
(162,915,o),
(118,839,qs),
(100,808,o),
(64,771,o),
(38,754,o),
(38,746,o),
(51,737,qs),
(162,660,o),
(162,421,qs),
(162,138,o),
(283,20,qs),
(344,-40,o),
(512,-93,o),
(742,-93,o),
(910,-40,o),
(1032,79,o),
(1092,279,o),
(1092,504,o),
(1112,627,o),
(1150,696,o)
);
}
);
};
layerId = m01;
shapes = (
{
ref = O;
},
{
pos = (35,273);
ref = dblgravecomb;
}
);
width = 1241;
}
);
note = uni020C;
unicode = 524;
},
{
glyphname = Odieresis;
kernLeft = O;
kernRight = O;
lastChange = "2023-11-17 14:42:02 +0000";
layers = (
{
background = {
shapes = (
{
closed = 1;
nodes = (
(871,1688,o),
(942,1761,o),
(942,1863,o),
(871,1936,o),
(767,1936,o),
(695,1863,o),
(695,1761,o),
(767,1688,o)
);
},
{
closed = 1;
nodes = (
(475,1688,o),
(546,1761,o),
(546,1863,o),
(475,1936,o),
(369,1936,o),
(298,1863,o),
(298,1761,o),
(369,1688,o)
);
},
{
closed = 1;
nodes = (
(526,650,qs),
(538,682,o),
(563,724,o),
(580,744,o),
(580,755,o),
(563,772,o),
(538,808,o),
(513,870,o),
(496,1000,o),
(496,1210,o),
(501,1262,qs),
(505,1304,o),
(521,1341,o),
(550,1379,o),
(595,1392,o),
(680,1392,o),
(702,1374,qs),
(716,1364,o),
(735,1344,o),
(748,1298,o),
(755,1262,o),
(758,1190,o),
(759,1138,o),
(759,980,o),
(732,834,o),
(701,785,o),
(674,755,o),
(674,745,o),
(692,728,o),
(704,708,qs),
(759,619,o),
(759,432,qs),
(759,376,ls),
(759,356,o),
(755,232,o),
(730,179,qs),
(712,140,o),
(663,131,qs),
(599,119,o),
(564,140,qs),
(551,148,o),
(532,161,o),
(518,191,o),
(497,235,o),
(497,365,qs),
(497,440,o),
(497,440,q),
(497,573,o)
);
},
{
closed = 1;
nodes = (
(1175,725,o),
(1202,746,o),
(1202,753,o),
(1190,762,qs),
(1092,844,o),
(1092,1077,qs),
(1092,1290,o),
(1037,1400,qs),
(1009,1455,o),
(935,1529,o),
(825,1570,o),
(707,1586,o),
(549,1586,o),
(430,1570,o),
(320,1529,o),
(245,1455,o),
(189,1344,o),
(162,1183,o),
(162,915,o),
(118,839,qs),
(100,808,o),
(64,771,o),
(38,754,o),
(38,746,o),
(51,737,qs),
(162,660,o),
(162,421,qs),
(162,138,o),
(283,20,qs),
(344,-40,o),
(512,-93,o),
(742,-93,o),
(910,-40,o),
(1032,79,o),
(1092,279,o),
(1092,504,o),
(1112,627,o),
(1150,696,o)
);
}
);
};
layerId = m01;
shapes = (
{
ref = O;
},
{
pos = (217,273);
ref = dieresiscomb;
}
);
width = 1241;
}
);
note = Odieresis;
unicode = 214;
},
{
glyphname = Ograve;
kernLeft = O;
kernRight = O;
lastChange = "2023-11-17 14:42:02 +0000";
layers = (
{
background = {
shapes = (
{
closed = 1;
nodes = (
(300,1900,qs),
(558,1688,l),
(683,1688,l),
(533,1914,l),
(513,1960,l),
(506,1964,o),
(440,2004,o),
(378,2036,o),
(329,2036,qs),
(264,2036,o),
(229,1994,q),
(242,1945,o)
);
},
{
closed = 1;
nodes = (
(526,650,qs),
(538,682,o),
(563,724,o),
(580,744,o),
(580,755,o),
(563,772,o),
(538,808,o),
(513,870,o),
(496,1000,o),
(496,1210,o),
(501,1262,qs),
(505,1304,o),
(521,1341,o),
(550,1379,o),
(595,1392,o),
(680,1392,o),
(702,1374,qs),
(716,1364,o),
(735,1344,o),
(748,1298,o),
(755,1262,o),
(758,1190,o),
(759,1138,o),
(759,980,o),
(732,834,o),
(701,785,o),
(674,755,o),
(674,745,o),
(692,728,o),
(704,708,qs),
(759,619,o),
(759,432,qs),
(759,376,ls),
(759,356,o),
(755,232,o),
(730,179,qs),
(712,140,o),
(663,131,qs),
(599,119,o),
(564,140,qs),
(551,148,o),
(532,161,o),
(518,191,o),
(497,235,o),
(497,365,qs),
(497,440,o),
(497,440,q),
(497,573,o)
);
},
{
closed = 1;
nodes = (
(1175,725,o),
(1202,746,o),
(1202,753,o),
(1190,762,qs),
(1092,844,o),
(1092,1077,qs),
(1092,1290,o),
(1037,1400,qs),
(1009,1455,o),
(935,1529,o),
(825,1570,o),
(707,1586,o),
(549,1586,o),
(430,1570,o),
(320,1529,o),
(245,1455,o),
(189,1344,o),
(162,1183,o),
(162,915,o),
(118,839,qs),
(100,808,o),
(64,771,o),
(38,754,o),
(38,746,o),
(51,737,qs),
(162,660,o),
(162,421,qs),
(162,138,o),
(283,20,qs),
(344,-40,o),
(512,-93,o),
(742,-93,o),
(910,-40,o),
(1032,79,o),
(1092,279,o),
(1092,504,o),
(1112,627,o),
(1150,696,o)
);
}
);
};
layerId = m01;
shapes = (
{
ref = O;
},
{
pos = (154,273);
ref = gravecomb;
}
);
width = 1241;
}
);
note = Ograve;
unicode = 210;
},
{
glyphname = Ohungarumlaut;
kernLeft = O;
kernRight = O;
lastChange = "2023-11-17 14:42:02 +0000";
layers = (
{
background = {
shapes = (
{
closed = 1;
nodes = (
(742,1942,o),
(769,1995,q),
(742,2031,o),
(646,2031,o),
(612,2018,qs),
(599,2013,o),
(563,1991,o),
(547,1979,o),
(509,1951,o),
(503,1946,q),
(378,1688,l),
(496,1688,l),
(659,1857,ls)
);
},
{
closed = 1;
nodes = (
(1112,1946,o),
(1136,1995,q),
(1102,2031,o),
(1012,2031,o),
(973,2018,qs),
(961,2014,o),
(925,1990,o),
(912,1981,o),
(873,1949,o),
(869,1946,q),
(744,1688,l),
(862,1688,l),
(1025,1857,ls)
);
},
{
closed = 1;
nodes = (
(526,650,qs),
(538,682,o),
(563,724,o),
(580,744,o),
(580,755,o),
(563,772,o),
(538,808,o),
(513,870,o),
(496,1000,o),
(496,1210,o),
(501,1262,qs),
(505,1304,o),
(521,1341,o),
(550,1379,o),
(595,1392,o),
(680,1392,o),
(702,1374,qs),
(716,1364,o),
(735,1344,o),
(748,1298,o),
(755,1262,o),
(758,1190,o),
(759,1138,o),
(759,980,o),
(732,834,o),
(701,785,o),
(674,755,o),
(674,745,o),
(692,728,o),
(704,708,qs),
(759,619,o),
(759,432,qs),
(759,376,ls),
(759,356,o),
(755,232,o),
(730,179,qs),
(712,140,o),
(663,131,qs),
(599,119,o),
(564,140,qs),
(551,148,o),
(532,161,o),
(518,191,o),
(497,235,o),
(497,365,qs),
(497,440,o),
(497,440,q),
(497,573,o)
);
},
{
closed = 1;
nodes = (
(1175,725,o),
(1202,746,o),
(1202,753,o),
(1190,762,qs),
(1092,844,o),
(1092,1077,qs),
(1092,1290,o),
(1037,1400,qs),
(1009,1455,o),
(935,1529,o),
(825,1570,o),
(707,1586,o),
(549,1586,o),
(430,1570,o),
(320,1529,o),
(245,1455,o),
(189,1344,o),
(162,1183,o),
(162,915,o),
(118,839,qs),
(100,808,o),
(64,771,o),
(38,754,o),
(38,746,o),
(51,737,qs),
(162,660,o),
(162,421,qs),
(162,138,o),
(283,20,qs),
(344,-40,o),
(512,-93,o),
(742,-93,o),
(910,-40,o),
(1032,79,o),
(1092,279,o),
(1092,504,o),
(1112,627,o),
(1150,696,o)
);
}
);
};
layerId = m01;
shapes = (
{
ref = O;
},
{
pos = (305,273);
ref = hungarumlautcomb;
}
);
width = 1241;
}
);
note = Ohungarumlaut;
unicode = 336;
},
{
glyphname = Oinvertedbreve;
kernLeft = O;
kernRight = O;
lastChange = "2023-11-17 14:42:02 +0000";
layers = (
{
background = {
shapes = (
{
closed = 1;
nodes = (
(537,1850,o),
(615,1850,qs),
(785,1850,o),
(812,1688,q),
(929,1688,l),
(919,1831,o),
(754,1997,o),
(479,1997,o),
(317,1825,o),
(311,1688,q),
(427,1688,l),
(438,1765,o)
);
},
{
closed = 1;
nodes = (
(526,650,qs),
(538,682,o),
(563,724,o),
(580,744,o),
(580,755,o),
(563,772,o),
(538,808,o),
(513,870,o),
(496,1000,o),
(496,1210,o),
(501,1262,qs),
(505,1304,o),
(521,1341,o),
(550,1379,o),
(595,1392,o),
(680,1392,o),
(702,1374,qs),
(716,1364,o),
(735,1344,o),
(748,1298,o),
(755,1262,o),
(758,1190,o),
(759,1138,o),
(759,980,o),
(732,834,o),
(701,785,o),
(674,755,o),
(674,745,o),
(692,728,o),
(704,708,qs),
(759,619,o),
(759,432,qs),
(759,376,ls),
(759,356,o),
(755,232,o),
(730,179,qs),
(712,140,o),
(663,131,qs),
(599,119,o),
(564,140,qs),
(551,148,o),
(532,161,o),
(518,191,o),
(497,235,o),
(497,365,qs),
(497,440,o),
(497,440,q),
(497,573,o)
);
},
{
closed = 1;
nodes = (
(1175,725,o),
(1202,746,o),
(1202,753,o),
(1190,762,qs),
(1092,844,o),
(1092,1077,qs),
(1092,1290,o),
(1037,1400,qs),
(1009,1455,o),
(935,1529,o),
(825,1570,o),
(707,1586,o),
(549,1586,o),
(430,1570,o),
(320,1529,o),
(245,1455,o),
(189,1344,o),
(162,1183,o),
(162,915,o),
(118,839,qs),
(100,808,o),
(64,771,o),
(38,754,o),
(38,746,o),
(51,737,qs),
(162,660,o),
(162,421,qs),
(162,138,o),
(283,20,qs),
(344,-40,o),
(512,-93,o),
(742,-93,o),
(910,-40,o),
(1032,79,o),
(1092,279,o),
(1092,504,o),
(1112,627,o),
(1150,696,o)
);
}
);
};
layerId = m01;
shapes = (
{
ref = O;
},
{
pos = (234,273);
ref = breveinvertedcomb;
}
);
width = 1241;
}
);
note = uni020E;
unicode = 526;
},
{
glyphname = Omacron;
kernLeft = O;
kernRight = O;
lastChange = "2023-11-17 14:42:02 +0000";
layers = (
{
background = {
shapes = (
{
closed = 1;
nodes = (
(304,1815,l),
(304,1688,l),
(935,1688,l),
(935,1815,l)
);
},
{
closed = 1;
nodes = (
(526,650,qs),
(538,682,o),
(563,724,o),
(580,744,o),
(580,755,o),
(563,772,o),
(538,808,o),
(513,870,o),
(496,1000,o),
(496,1210,o),
(501,1262,qs),
(505,1304,o),
(521,1341,o),
(550,1379,o),
(595,1392,o),
(680,1392,o),
(702,1374,qs),
(716,1364,o),
(735,1344,o),
(748,1298,o),
(755,1262,o),
(758,1190,o),
(759,1138,o),
(759,980,o),
(732,834,o),
(701,785,o),
(674,755,o),
(674,745,o),
(692,728,o),
(704,708,qs),
(759,619,o),
(759,432,qs),
(759,376,ls),
(759,356,o),
(755,232,o),
(730,179,qs),
(712,140,o),
(663,131,qs),
(599,119,o),
(564,140,qs),
(551,148,o),
(532,161,o),
(518,191,o),
(497,235,o),
(497,365,qs),
(497,440,o),
(497,440,q),
(497,573,o)
);
},
{
closed = 1;
nodes = (
(1175,725,o),
(1202,746,o),
(1202,753,o),
(1190,762,qs),
(1092,844,o),
(1092,1077,qs),
(1092,1290,o),
(1037,1400,qs),
(1009,1455,o),
(935,1529,o),
(825,1570,o),
(707,1586,o),
(549,1586,o),
(430,1570,o),
(320,1529,o),
(245,1455,o),
(189,1344,o),
(162,1183,o),
(162,915,o),
(118,839,qs),
(100,808,o),
(64,771,o),
(38,754,o),
(38,746,o),
(51,737,qs),
(162,660,o),
(162,421,qs),
(162,138,o),
(283,20,qs),
(344,-40,o),
(512,-93,o),
(742,-93,o),
(910,-40,o),
(1032,79,o),
(1092,279,o),
(1092,504,o),
(1112,627,o),
(1150,696,o)
);
}
);
};
layerId = m01;
shapes = (
{
ref = O;
},
{
pos = (217,273);
ref = macroncomb;
}
);
width = 1241;
}
);
note = Omacron;
unicode = 332;
},
{
glyphname = Oslash;
kernLeft = O;
kernRight = O;
lastChange = "2023-11-17 14:42:02 +0000";
layers = (
{
anchors = (
{
name = bottom;
pos = (620,0);
},
{
name = top;
pos = (620,1562);
}
);
background = {
shapes = (
{
closed = 1;
nodes = (
(1067,1710,l),
(983,1750,l),
(165,-229,l),
(249,-269,l)
);
},
{
closed = 1;
nodes = (
(497,1205,qs),
(498,1236,o),
(503,1268,o),
(511,1310,o),
(525,1331,o),
(544,1355,o),
(571,1365,o),
(604,1372,o),
(648,1372,o),
(682,1365,o),
(715,1352,o),
(734,1320,qs),
(758,1283,o),
(758,1088,qs),
(758,432,ls),
(758,356,o),
(756,290,qs),
(754,251,o),
(747,212,o),
(735,159,o),
(716,134,o),
(677,98,o),
(626,98,qs),
(559,98,o),
(534,136,qs),
(520,158,o),
(496,216,o),
(496,421,qs),
(495,1088,ls),
(495,1143,o)
);
},
{
closed = 1;
nodes = (
(1130,662,qs),
(1149,696,o),
(1174,725,o),
(1201,746,o),
(1201,753,o),
(1190,762,qs),
(1091,844,o),
(1091,1077,qs),
(1091,1290,o),
(1036,1400,qs),
(1008,1455,o),
(934,1529,o),
(824,1570,o),
(706,1586,o),
(548,1586,o),
(429,1570,o),
(319,1529,o),
(244,1455,o),
(188,1344,o),
(161,1183,o),
(161,915,o),
(117,839,qs),
(99,808,o),
(63,771,o),
(37,754,o),
(37,746,o),
(50,737,qs),
(161,660,o),
(161,421,qs),
(161,143,o),
(392,-92,o),
(860,-92,o),
(1091,143,o),
(1091,421,qs),
(1091,591,o)
);
}
);
};
layerId = m01;
shapes = (
{
closed = 1;
nodes = (
(938,-92,o),
(1091,50,o),
(1091,421,cs),
(1091,534,o),
(1104,615,o),
(1130,662,cs),
(1173,738,o),
(1220,738,o),
(1190,762,cs),
(1124,817,o),
(1091,922,o),
(1091,1077,cs),
(1091,1219,o),
(1073,1327,o),
(1036,1400,cs),
(999,1473,o),
(952,1522,o),
(879,1550,cs),
(806,1577,o),
(732,1586,o),
(627,1586,cs),
(522,1586,o),
(447,1577,o),
(374,1550,cs),
(301,1522,o),
(253,1474,o),
(216,1400,cs),
(179,1326,o),
(161,1228,o),
(161,1049,cs),
(161,960,o),
(146,890,o),
(117,839,cs),
(71,760,o),
(15,761,o),
(50,737,cs),
(124,686,o),
(161,580,o),
(161,421,cs),
(161,50,o),
(314,-92,o),
(626,-92,cs)
);
},
{
closed = 1;
nodes = (
(1067,1710,l),
(983,1750,l),
(165,-229,l),
(249,-269,l)
);
},
{
closed = 1;
nodes = (
(581,98,o),
(551,111,o),
(534,136,cs),
(525,151,o),
(516,168,o),
(508,187,cs),
(500,206,o),
(496,284,o),
(496,421,cs),
(495,1088,l),
(497,1205,ls),
(499,1277,o),
(505,1306,o),
(535,1343,cs),
(551,1363,o),
(587,1372,o),
(626,1372,cs),
(655,1372,o),
(677,1367,o),
(699,1359,cs),
(710,1354,o),
(721,1341,o),
(734,1320,cs),
(750,1295,o),
(758,1218,o),
(758,1088,cs),
(758,432,l),
(756,290,ls),
(753,238,o),
(749,221,o),
(741,186,cs),
(737,168,o),
(732,155,o),
(726,147,cs),
(713,130,o),
(694,98,o),
(626,98,cs)
);
}
);
width = 1240;
}
);
note = Oslash;
unicode = 216;
},
{
glyphname = Otilde;
kernLeft = O;
kernRight = O;
lastChange = "2023-11-17 14:42:02 +0000";
layers = (
{
background = {
shapes = (
{
closed = 1;
nodes = (
(585,1744,o),
(708,1688,o),
(762,1688,qs),
(855,1688,o),
(963,1839,o),
(973,1956,q),
(874,1956,l),
(854,1847,o),
(789,1847,qs),
(757,1847,o),
(704,1875,qs),
(545,1959,o),
(481,1959,qs),
(390,1959,o),
(274,1817,o),
(268,1696,q),
(367,1696,l),
(376,1800,o),
(440,1800,qs),
(476,1800,o)
);
},
{
closed = 1;
nodes = (
(526,650,qs),
(538,682,o),
(563,724,o),
(580,744,o),
(580,755,o),
(563,772,o),
(538,808,o),
(513,870,o),
(496,1000,o),
(496,1210,o),
(501,1262,qs),
(505,1304,o),
(521,1341,o),
(550,1379,o),
(595,1392,o),
(680,1392,o),
(702,1374,qs),
(716,1364,o),
(735,1344,o),
(748,1298,o),
(755,1262,o),
(758,1190,o),
(759,1138,o),
(759,980,o),
(732,834,o),
(701,785,o),
(674,755,o),
(674,745,o),
(692,728,o),
(704,708,qs),
(759,619,o),
(759,432,qs),
(759,376,ls),
(759,356,o),
(755,232,o),
(730,179,qs),
(712,140,o),
(663,131,qs),
(599,119,o),
(564,140,qs),
(551,148,o),
(532,161,o),
(518,191,o),
(497,235,o),
(497,365,qs),
(497,440,o),
(497,440,q),
(497,573,o)
);
},
{
closed = 1;
nodes = (
(1175,725,o),
(1202,746,o),
(1202,753,o),
(1190,762,qs),
(1092,844,o),
(1092,1077,qs),
(1092,1290,o),
(1037,1400,qs),
(1009,1455,o),
(935,1529,o),
(825,1570,o),
(707,1586,o),
(549,1586,o),
(430,1570,o),
(320,1529,o),
(245,1455,o),
(189,1344,o),
(162,1183,o),
(162,915,o),
(118,839,qs),
(100,808,o),
(64,771,o),
(38,754,o),
(38,746,o),
(51,737,qs),
(162,660,o),
(162,421,qs),
(162,138,o),
(283,20,qs),
(344,-40,o),
(512,-93,o),
(742,-93,o),
(910,-40,o),
(1032,79,o),
(1092,279,o),
(1092,504,o),
(1112,627,o),
(1150,696,o)
);
}
);
};
layerId = m01;
shapes = (
{
ref = O;
},
{
pos = (188,273);
ref = tildecomb;
}
);
width = 1241;
}
);
note = Otilde;
unicode = 213;
},
